<?xml version="1.0" standalone="no"?>
<!DOCTYPE svg PUBLIC "-//W3C//DTD SVG 1.1//EN" "http://www.w3.org/Graphics/SVG/1.1/DTD/svg11.dtd" >
<svg xmlns="http://www.w3.org/2000/svg" xmlns:xlink="http://www.w3.org/1999/xlink" version="1.1">
<metadata>
Created by FontForge 20190801 at Tue May 24 23:21:59 2005
 By Jimmy Wärting
Design 2005 by Erik Spiekermann &#38; Christian Schwartz
</metadata>
<defs>
<font id="BoschSerif-Regular" horiz-adv-x="500" >
  <font-face 
    font-family="Bosch Serif"
    font-weight="400"
    font-stretch="normal"
    units-per-em="1000"
    panose-1="2 2 5 0 0 0 0 0 0 0"
    ascent="800"
    descent="-200"
    x-height="511"
    cap-height="688"
    bbox="-100 -268 1180 1007"
    underline-thickness="50"
    underline-position="-220"
    unicode-range="U+0020-FB05"
  />
<missing-glyph horiz-adv-x="201" 
 />
    <glyph glyph-name="ff" unicode="ff" horiz-adv-x="679" 
d="M535 511h119v-46h-119v-401q0 -16 11 -22.5t45 -9.5l21 -2v-30h-253v30q43 5 53.5 11t10.5 23v401h-207v-401q0 -17 11 -23t55 -11v-30h-245v30q44 5 55 11t11 23v401h-79v46h79v36q0 111 60.5 170t174.5 59q88 0 136 -41q53 52 143 52q59 0 93.5 -21t34.5 -56
q0 -21 -14 -34.5t-36 -13.5h-55v77q-15 12 -37 12q-36 0 -52 -33t-16 -109v-98zM216 511h207v174q-34 54 -96 54q-57 0 -84 -39t-27 -120v-69z" />
    <glyph glyph-name="fi" unicode="fi" horiz-adv-x="623" 
d="M24 465v46h79v46q0 112 61 171t177 59q73 0 116.5 -22t43.5 -60q0 -24 -16 -39t-41 -15h-57v80q-18 20 -60 20q-57 0 -84 -39.5t-27 -122.5v-78h256l21 7h38v-454q0 -15 10 -21.5t40 -10.5l15 -2v-30h-240v30q41 5 52 11t11 23v401h-203v-401q0 -17 11 -23t55 -11v-30
h-245v30q44 5 55 11t11 23v401h-79z" />
    <glyph glyph-name="fl" unicode="fl" horiz-adv-x="625" 
d="M24 465v46h79v45q0 112 59.5 171.5t172.5 59.5q86 0 136 -37l21 26h39v-712q0 -16 10 -22t40 -10l17 -2v-30h-243v30q42 5 53 11t11 23v626q-34 61 -97 61q-106 0 -106 -163v-77h161v-46h-161v-401q0 -17 11 -23t55 -11v-30h-245v30q44 5 55 11t11 23v401h-79z" />
    <glyph glyph-name="ffi" unicode="ffi" horiz-adv-x="942" 
d="M738 465h-203v-401q0 -17 11 -23t55 -11v-30h-242v30q43 5 53.5 11t10.5 23v401h-207v-401q0 -17 11 -23t55 -11v-30h-245v30q44 5 55 11t11 23v401h-79v46h79v36q0 111 60.5 170t174.5 59q94 0 143 -48q63 59 178 59q71 0 113 -22t42 -59q0 -23 -14.5 -36.5t-39.5 -13.5
h-54v76q-19 19 -60 19q-57 0 -84 -39.5t-27 -122.5v-78h256l21 7h38v-454q0 -15 10 -21.5t40 -10.5l15 -2v-30h-240v30q41 5 52 11t11 23v401zM216 511h207v174q-34 54 -96 54q-57 0 -84 -39t-27 -120v-69z" />
    <glyph glyph-name="ffl" unicode="ffl" horiz-adv-x="944" 
d="M103 465h-79v46h79v36q0 111 60.5 170t174.5 59q94 0 141 -48q65 59 175 59q85 0 135 -37l22 26h39v-712q0 -16 10 -22t40 -10l17 -2v-30h-243v30q42 5 53 11t11 23v626q-34 61 -97 61q-106 0 -106 -163v-77h161v-46h-161v-401q0 -17 11 -23t55 -11v-30h-242v30
q43 5 53.5 11t10.5 23v401h-207v-401q0 -17 11 -23t55 -11v-30h-245v30q44 5 55 11t11 23v401zM216 511h207v174q-34 54 -96 54q-57 0 -84 -39t-27 -120v-69z" />
    <glyph glyph-name=".notdef" horiz-adv-x="201" 
 />
    <glyph glyph-name=".null" horiz-adv-x="0" 
 />
    <glyph glyph-name="nonmarkingreturn" horiz-adv-x="333" 
 />
    <glyph glyph-name="space" unicode=" " horiz-adv-x="201" 
 />
    <glyph glyph-name="exclam" unicode="!" horiz-adv-x="280" 
d="M120 199l-47 390v38q0 30 18.5 49.5t46.5 19.5t47 -20t19 -49v-38l-48 -390h-36zM138 126q28 0 48.5 -20t20.5 -49t-20.5 -49t-48.5 -20t-48.5 20.5t-20.5 48.5q0 29 20.5 49t48.5 20z" />
    <glyph glyph-name="quotedbl" unicode="&#x22;" horiz-adv-x="421" 
d="M283 453l-37 214v26q0 28 15 45t40 17t40.5 -17t15.5 -45v-26l-38 -214h-36zM99 453l-37 214v26q0 28 15 45t40 17t40.5 -17t15.5 -45v-26l-38 -214h-36z" />
    <glyph glyph-name="numbersign" unicode="#" horiz-adv-x="560" 
d="M88 458v79h98l16 151h49l-16 -151h116l16 151h49l-16 -151h90v-79h-98l-13 -124h91v-79h-99l-15 -154h-49l15 154h-116l-15 -154h-49l15 154h-89v79h97l13 124h-90zM227 458l-13 -124h116l13 124h-116z" />
    <glyph glyph-name="dollar" unicode="$" horiz-adv-x="602" 
d="M290 -116v105q-102 7 -156 35q-73 36 -73 95q0 29 20 45t55 16h50v-112q30 -36 104 -41v279q-98 33 -140 68q-63 51 -63 135q0 91 69 143q48 37 134 46v58h44v-58q91 -7 142 -37t51 -76q0 -24 -15.5 -38t-41.5 -14h-60v93q-27 26 -76 32v-253q100 -34 137 -62
q73 -53 73 -150q0 -82 -51 -136q-53 -57 -159 -68v-105h-44zM334 292v-264q118 15 118 124q0 53 -26 84t-92 56zM290 419v239q-117 -14 -117 -111q0 -46 26.5 -74.5t90.5 -53.5z" />
    <glyph glyph-name="percent" unicode="%" horiz-adv-x="885" 
d="M662 349q70 0 120 -53t50 -128q0 -76 -49.5 -128t-122.5 -52q-69 0 -117.5 52.5t-48.5 127.5q0 76 49 128.5t119 52.5zM663 315q-75 0 -75 -149q0 -69 19.5 -106.5t54.5 -37.5q75 0 75 146q0 147 -74 147zM220 700q71 0 120.5 -52.5t49.5 -127.5q0 -76 -50 -128.5
t-121 -52.5q-70 0 -118.5 53t-48.5 128t49 127.5t119 52.5zM221 666q-75 0 -75 -146q0 -147 74 -147t74 147q0 146 -73 146zM189 0l442 688h63l-441 -688h-64z" />
    <glyph glyph-name="ampersand" unicode="&#x26;" horiz-adv-x="707" 
d="M519 0l-40 48q-76 -60 -182 -60q-116 0 -185 51.5t-69 136.5q0 63 39.5 107t136.5 90q-44 54 -61.5 91.5t-17.5 77.5q0 69 51 113t131 44q75 0 123.5 -38.5t48.5 -98.5q0 -47 -36 -87t-119 -85l1 -1q0 -1 2 -3l2 -2l1 -1l178 -218q39 71 39 128q0 22 -14.5 31.5
t-59.5 16.5v32h198v-32q-43 -5 -58 -19t-25 -55q-20 -75 -54 -134l49 -59q18 -22 38 -31t60 -13v-30h-177zM249 337l-3 4q-77 -60 -77 -154q0 -68 43.5 -110t114.5 -42q69 0 126 46zM315 419q47 31 66 62t19 79q0 47 -21 73.5t-58 26.5t-58.5 -25t-21.5 -68q0 -32 15 -62.5
t59 -85.5z" />
    <glyph glyph-name="quotesingle" unicode="'" horiz-adv-x="237" 
d="M99 453l-37 214v26q0 28 15 45t40 17t40.5 -17t15.5 -45v-26l-38 -214h-36z" />
    <glyph glyph-name="parenleft" unicode="(" horiz-adv-x="360" 
d="M328 -118l-21 -24q-247 187 -247 445q0 259 247 447l21 -24q-80 -83 -117.5 -185t-37.5 -238t37.5 -237.5t117.5 -183.5z" />
    <glyph glyph-name="parenright" unicode=")" horiz-adv-x="360" 
d="M53 -142l-21 24q80 82 117.5 183.5t37.5 238.5t-37.5 238.5t-117.5 183.5l21 24q247 -187 247 -446q0 -261 -247 -446z" />
    <glyph glyph-name="asterisk" unicode="*" horiz-adv-x="413" 
d="M162 367l-13 -15q-19 -22 -38 -22q-17 0 -29 12t-12 29q0 14 13 33l12 16l90 71l-111 9l-18 7q-34 12 -34 41q0 19 12 31.5t29 12.5q10 0 23 -5l19 -8l90 -62l-30 111v20q0 22 12 35t32 13q19 0 31 -13t12 -35v-20l-31 -111l91 62l19 8q13 5 22 5q17 0 29 -13t12 -32
q0 -12 -9.5 -23.5t-23.5 -16.5l-20 -7l-110 -9l90 -71l12 -16q14 -18 14 -34q0 -15 -13 -27.5t-29 -12.5q-19 0 -38 22l-13 15l-46 112z" />
    <glyph glyph-name="plus" unicode="+" horiz-adv-x="560" 
d="M63 276v52h189v201h56v-201h189v-52h-189v-201h-56v201h-189z" />
    <glyph glyph-name="comma" unicode="," horiz-adv-x="280" 
d="M63 -172l-15 27q62 35 88 68t25 79q-15 -6 -32 -6q-28 0 -48 19t-20 46q0 26 21 45t50 19q40 0 66 -31t26 -80q0 -128 -161 -186z" />
    <glyph glyph-name="hyphen" unicode="-" horiz-adv-x="401" 
d="M77 235v74h248v-74h-248z" />
    <glyph glyph-name="period" unicode="." horiz-adv-x="280" 
d="M139 128q29 0 49.5 -21t20.5 -49q0 -29 -21 -49.5t-50 -20.5q-28 0 -48.5 21t-20.5 49t20.5 49t49.5 21z" />
    <glyph glyph-name="slash" unicode="/" horiz-adv-x="407" 
d="M11 -116l302 862h63l-302 -862h-63z" />
    <glyph glyph-name="zero" unicode="0" horiz-adv-x="602" 
d="M300 700q114 0 186.5 -100t72.5 -257q0 -158 -72.5 -256.5t-188.5 -98.5q-112 0 -183.5 99.5t-71.5 255.5q0 157 72 257t185 100zM301 661q-70 0 -101 -74.5t-31 -241.5q0 -169 31 -244t100 -75q71 0 102 73.5t31 244.5q0 169 -31 243t-101 74z" />
    <glyph glyph-name="one" unicode="1" horiz-adv-x="602" 
d="M248 566l-134 -8v32q139 36 208 103h45v-612q0 -23 25 -32.5t103 -16.5v-32h-380v32q85 7 109 15.5t24 33.5v485z" />
    <glyph glyph-name="two" unicode="2" horiz-adv-x="602" 
d="M54 0v61q203 161 270 248.5t67 191.5q0 79 -30.5 120t-89.5 41q-52 0 -84 -31v-110h-57q-26 0 -44.5 18t-18.5 44q0 49 62 83t150 34q108 0 170.5 -51t62.5 -138q0 -63 -34 -123t-110 -129q-72 -65 -224 -172h273q25 0 38 13t34 57h39l-16 -157h-458z" />
    <glyph glyph-name="three" unicode="3" horiz-adv-x="602" 
d="M318 388v-3q82 -4 129 -27q88 -42 88 -145q0 -96 -77.5 -160.5t-191.5 -64.5q-92 0 -153.5 32.5t-61.5 81.5q0 25 18.5 38.5t50.5 13.5h52v-95q36 -33 96 -33q144 0 144 169q0 74 -31.5 109t-98.5 35q-44 0 -101 -20l-15 35q119 44 162 84.5t43 109.5q0 114 -97 114
q-42 0 -73 -22v-93h-58q-26 0 -42 14.5t-16 36.5q0 44 57 73t142 29q94 0 148 -39t54 -106q0 -56 -40 -96t-128 -71z" />
    <glyph glyph-name="four" unicode="4" horiz-adv-x="602" 
d="M347 196h-311v53l357 445h69v-438h100v-60h-100v-121q0 -20 13.5 -28.5t53.5 -12.5l18 -2v-32h-284v32l18 2q41 5 53.5 13t12.5 28v121zM100 260v-4h247v303h-4z" />
    <glyph glyph-name="five" unicode="5" horiz-adv-x="602" 
d="M151 601v-225q56 56 153 56q102 0 164 -56.5t62 -150.5q0 -104 -74 -170.5t-191 -66.5q-86 0 -144 32.5t-58 80.5q0 25 18.5 39.5t50.5 14.5h52v-101q32 -28 83 -28q140 0 140 185q0 178 -127 178q-85 0 -128 -61h-44v360h393l-13 -87h-337z" />
    <glyph glyph-name="six" unicode="6" horiz-adv-x="602" 
d="M416 548v94q-23 19 -61 19q-102 0 -149 -113q-27 -66 -34 -198q56 81 158 81q97 0 160.5 -62.5t63.5 -158.5q0 -97 -67 -159.5t-170 -62.5q-122 0 -192 89.5t-70 243.5q0 173 85 276t227 103q76 0 122 -27t46 -71q0 -25 -16 -39.5t-42 -14.5h-61zM309 389
q-63 0 -96.5 -46t-33.5 -132t36 -135.5t100 -49.5q121 0 121 181q0 182 -127 182z" />
    <glyph glyph-name="seven" unicode="7" horiz-adv-x="602" 
d="M155 0v28l327 574h-302q-26 0 -39 -14.5t-32 -65.5h-38l15 166h448v-63l-278 -625h-101z" />
    <glyph glyph-name="eight" unicode="8" horiz-adv-x="602" 
d="M377 368q180 -44 180 -183q0 -86 -72.5 -141.5t-185.5 -55.5q-112 0 -183 55.5t-71 141.5q0 139 178 183q-144 41 -144 157q0 75 63 125t158 50q96 0 159.5 -50t63.5 -125q0 -115 -146 -157zM301 348q-134 0 -134 -163q0 -159 133 -159q69 0 102 39t33 120
q0 163 -134 163zM301 661q-106 0 -106 -136q0 -138 105 -138q107 0 107 138q0 136 -106 136z" />
    <glyph glyph-name="nine" unicode="9" horiz-adv-x="602" 
d="M186 142v-94q26 -21 64 -21q104 0 147 105q27 70 32 206q-56 -81 -156 -81q-97 0 -159.5 62.5t-62.5 158.5q0 97 66 159.5t169 62.5q123 0 192 -88.5t69 -245.5q0 -179 -80.5 -278.5t-225.5 -99.5q-79 0 -126.5 27.5t-47.5 73.5q0 24 16 38.5t42 14.5h61zM286 662
q-60 0 -88.5 -44t-28.5 -136q0 -183 124 -183q130 0 130 177q0 88 -36 137t-101 49z" />
    <glyph glyph-name="colon" unicode=":" horiz-adv-x="280" 
d="M139 424q29 0 49.5 -20.5t20.5 -49.5t-21 -49.5t-50 -20.5q-28 0 -48.5 21t-20.5 49q0 29 20.5 49.5t49.5 20.5zM139 128q29 0 49.5 -21t20.5 -49q0 -29 -21 -49.5t-50 -20.5q-28 0 -48.5 21t-20.5 49t20.5 49t49.5 21z" />
    <glyph glyph-name="semicolon" unicode=";" horiz-adv-x="280" 
d="M65 -172l-15 27q61 34 87 67.5t25 79.5q-14 -6 -31 -6q-29 0 -49 19t-20 46t21 45.5t51 18.5q41 0 66 -31t25 -80q0 -62 -41 -109.5t-119 -76.5zM137 424q29 0 49.5 -20.5t20.5 -49.5t-21 -49.5t-50 -20.5q-28 0 -48.5 21t-20.5 49q0 29 20.5 49.5t49.5 20.5z" />
    <glyph glyph-name="less" unicode="&#x3c;" horiz-adv-x="560" 
d="M477 95l-404 173v41l404 178v-55l-330 -143l330 -139v-55z" />
    <glyph glyph-name="equal" unicode="=" horiz-adv-x="560" 
d="M48 336v51h464v-51h-464zM48 165v51h464v-51h-464z" />
    <glyph glyph-name="greater" unicode="&#x3e;" horiz-adv-x="560" 
d="M83 95v55l330 145l-330 137v55l404 -170v-42z" />
    <glyph glyph-name="question" unicode="?" horiz-adv-x="459" 
d="M165 198v46q0 43 15 73.5t56 71.5q42 41 57 73t15 78q0 58 -25.5 90.5t-70.5 32.5q-42 0 -69 -23v-94h-48q-32 0 -50 14t-18 40q0 46 52 73t138 27q100 0 154.5 -42.5t54.5 -119.5q0 -53 -26.5 -92t-95.5 -85q-54 -36 -74 -61.5t-20 -57.5v-44h-45zM195 126q29 0 49 -20
t20 -49t-20.5 -49t-49.5 -20q-28 0 -48 20.5t-20 48.5q0 29 20 49t49 20z" />
    <glyph glyph-name="at" unicode="@" horiz-adv-x="899" 
d="M664 -25l22 -32q-114 -74 -250 -74q-177 0 -283 108.5t-106 289.5q0 182 119 300t303 118q173 0 278 -97t105 -257q0 -123 -61.5 -201t-158.5 -78q-108 0 -133 78q-60 -79 -137 -79q-61 0 -96.5 42.5t-35.5 115.5q0 81 38 159q31 63 82.5 99t110.5 36q72 0 109 -63l69 46
h35l-74 -281q-12 -47 -12 -68q0 -46 51 -46q74 0 119 65.5t45 171.5q0 147 -90 232.5t-245 85.5q-166 0 -269 -105t-103 -275t90 -264t252 -94q67 0 113 13.5t113 53.5zM504 227l27 99q8 32 8 55q0 38 -19.5 60.5t-51.5 22.5q-85 0 -126 -190q-13 -59 -13 -100q0 -78 59 -78
q37 0 68 35.5t48 95.5z" />
    <glyph glyph-name="A" unicode="A" horiz-adv-x="756" 
d="M31 0v32q41 6 58 13.5t22 21.5l242 635h53l241 -631q8 -19 21.5 -26t55.5 -13v-32h-273v32q42 6 56 12t14 19q0 3 -2 11l-59 160h-239l-60 -164q-2 -6 -2 -9q-1 -11 15.5 -17t61.5 -12v-32h-205zM338 549l-102 -276h210l-100 276h-8z" />
    <glyph glyph-name="B" unicode="B" horiz-adv-x="668" 
d="M403 375v-4q80 -9 126 -36q89 -48 89 -145q0 -91 -78 -140.5t-220 -49.5h-275v32q53 7 69 15t16 28v538q0 19 -16 27t-69 16v32h262q127 0 194 -42t67 -121q0 -58 -39.5 -94t-125.5 -56zM249 346v-273q0 -20 16 -28t59 -8q169 0 169 157q0 152 -174 152h-70zM249 384h48
q80 0 116 31t36 101q0 69 -35.5 101.5t-111.5 32.5h-53v-266z" />
    <glyph glyph-name="C" unicode="C" horiz-adv-x="676" 
d="M609 199v-167q-100 -44 -214 -44q-157 0 -249.5 96t-92.5 258q0 163 96.5 260.5t256.5 97.5q92 0 189 -34v-159h-40q-37 99 -65 126t-90 27q-110 0 -164 -78.5t-54 -239.5q0 -162 54 -238.5t168 -76.5q72 0 101.5 31t62.5 141h41z" />
    <glyph glyph-name="D" unicode="D" horiz-adv-x="738" 
d="M130 75v538q0 19 -16 27t-69 16v32h297q159 0 251 -92.5t92 -251.5q0 -157 -93 -250.5t-250 -93.5h-297v32q53 7 69 15t16 28zM249 649v-576q0 -20 18 -27.5t64 -7.5q120 0 173 71.5t53 233.5q0 161 -53 233.5t-171 72.5h-84z" />
    <glyph glyph-name="E" unicode="E" horiz-adv-x="644" 
d="M553 688l11 -166h-37q-37 93 -52.5 110t-61.5 17h-164v-277h108q21 0 30.5 17.5t20.5 78.5h37v-233h-37q-11 61 -21 80t-30 19h-108v-259q0 -22 17.5 -29.5t67.5 -7.5h112q29 0 43.5 10t30 40.5t45.5 112.5h40l-15 -201h-545v32q53 7 69 15t16 28v538q0 19 -16 27t-69 16
v32h508z" />
    <glyph glyph-name="F" unicode="F" horiz-adv-x="644" 
d="M569 688l8 -178h-39q-14 39 -21 57.5t-16.5 37.5t-15 25t-16 12t-19.5 6.5t-27 0.5h-174v-289h119q21 0 30 18t21 83h36v-246h-36q-12 68 -21.5 87.5t-29.5 19.5h-119v-247q0 -20 17.5 -28t78.5 -15v-32h-300v32q53 7 69 15t16 28v538q0 19 -16 27t-69 16v32h524z" />
    <glyph glyph-name="G" unicode="G" horiz-adv-x="717" 
d="M635 30h-49q-59 -25 -99 -33.5t-95 -8.5q-154 0 -246.5 96.5t-92.5 257.5t96.5 259.5t255.5 98.5q103 0 204 -37v-166h-39q-37 97 -60 123q-36 40 -104 40q-114 0 -169.5 -79t-55.5 -240q0 -314 214 -314q58 0 93 20.5t35 53.5v136q0 20 -13.5 28.5t-55.5 12.5l-8 1l-9 1
v32h259v-32q-2 0 -6.5 -1t-7.5 -2q-28 -5 -37.5 -13t-9.5 -27v-207z" />
    <glyph glyph-name="H" unicode="H" horiz-adv-x="809" 
d="M249 379h311v234q0 19 -15.5 27t-68.5 16v32h288v-32q-54 -7 -69.5 -15t-15.5 -28v-538q0 -20 16 -28t69 -15v-32h-288v32q53 7 68.5 15t15.5 28v266h-311v-266q0 -20 16 -28t69 -15v-32h-289v32q53 7 69 15t16 28v538q0 19 -16 27t-69 16v32h289v-32q-54 -7 -69.5 -15
t-15.5 -28v-234z" />
    <glyph glyph-name="I" unicode="I" horiz-adv-x="392" 
d="M137 75v538q0 20 -16.5 28t-72.5 15v32h297v-32q-56 -7 -72.5 -15t-16.5 -28v-538q0 -20 16.5 -28t72.5 -15v-32h-297v32q56 7 72.5 15t16.5 28z" />
    <glyph glyph-name="J" unicode="J" horiz-adv-x="392" 
d="M21 -50l33 -97q50 5 69.5 37t19.5 109v614q0 20 -16.5 28t-72.5 15v32h293v-32q-54 -7 -69.5 -15t-15.5 -28v-578q0 -100 -58 -160t-153 -60q-55 0 -89.5 22t-34.5 57q0 25 18 40.5t47 15.5h29z" />
    <glyph glyph-name="K" unicode="K" horiz-adv-x="750" 
d="M249 301l275 303q16 17 16 27q0 17 -68 25v32h209v-32q-35 -5 -51 -12.5t-35 -26.5l-186 -200l232 -333q20 -28 36.5 -38t52.5 -14v-32h-274v32q59 8 59 24q0 6 -9 20l-177 255l-80 -86v-170q0 -20 15.5 -28t67.5 -15v-32h-287v32q53 7 69 15t16 28v538q0 19 -16 27
t-69 16v32h289v-32q-54 -7 -69.5 -15t-15.5 -28v-312z" />
    <glyph glyph-name="L" unicode="L" horiz-adv-x="622" 
d="M550 208h41l-18 -208h-528v32q53 7 69 15t16 28v538q0 19 -16 27t-69 16v32h293v-32q-56 -7 -72.5 -15t-16.5 -28v-538q0 -22 17.5 -29.5t67.5 -7.5h99q21 0 31 2.5t24 22.5t25.5 49t36.5 96z" />
    <glyph glyph-name="M" unicode="M" horiz-adv-x="949" 
d="M416 -3l-238 610v-532q0 -22 14.5 -29t71.5 -14v-32h-219v32q54 7 61 9q25 8 25 34v533q0 22 -13.5 31.5t-53.5 14.5l-19 2v32h225l203 -533l209 533h222v-32l-18 -2q-41 -5 -54 -13t-13 -28v-538q0 -20 13.5 -28.5t53.5 -12.5l18 -2v-32h-288v32l18 2q41 5 53.5 13
t12.5 28v532l-240 -610h-44z" />
    <glyph glyph-name="N" unicode="N" horiz-adv-x="757" 
d="M600 -7l-418 588h-4v-506q0 -22 14.5 -29t71.5 -14v-32h-219v32q54 7 61 9q25 8 25 34v537q0 21 -13.5 29.5t-55.5 12.5q-3 1 -8.5 1.5t-8.5 0.5v32h202l349 -490h4v415q0 20 -16 28t-70 15v32h210v-32q-48 -7 -62 -15t-14 -28v-620h-48z" />
    <glyph glyph-name="O" unicode="O" horiz-adv-x="757" 
d="M378 700q131 0 226 -95q101 -101 101 -262q0 -153 -94 -254t-236 -101q-59 0 -118.5 25.5t-103.5 69.5q-100 100 -100 260q0 159 101 262q44 45 103.5 70t120.5 25zM380 660q-199 0 -199 -317q0 -316 196 -316q102 0 150.5 77.5t48.5 239.5q0 316 -196 316z" />
    <glyph glyph-name="P" unicode="P" horiz-adv-x="653" 
d="M249 299v-224q0 -20 17.5 -28t78.5 -15v-32h-300v32q53 7 69 15t16 28v538q0 19 -16 27t-69 16v32h299q266 0 266 -190q0 -93 -69.5 -146t-193.5 -53h-98zM249 649v-312h90q149 0 149 158q0 79 -35.5 116.5t-111.5 37.5h-92z" />
    <glyph glyph-name="Q" unicode="Q" horiz-adv-x="757" 
d="M683 -32h32q-15 -71 -39 -106q-47 -68 -137 -68q-55 0 -152 43q-58 26 -89 35t-65 9q-37 0 -87 -18l-14 32l229 94q-74 10 -124 33.5t-93 69.5q-91 97 -91 251q0 161 101 262q95 95 224 95q131 0 226 -95q101 -101 101 -264q0 -154 -94 -250q-70 -70 -214 -125l-123 -47
h15q52 0 137 -14q82 -13 128 -13q55 0 81 15.5t48 60.5zM380 660q-199 0 -199 -317q0 -316 197 -316q103 0 150.5 76t47.5 239q0 318 -196 318z" />
    <glyph glyph-name="R" unicode="R" horiz-adv-x="719" 
d="M45 688h295q129 0 195.5 -45t66.5 -132q0 -144 -193 -174q41 -9 70 -33.5t60 -74.5l92 -154q15 -24 29.5 -31.5t57.5 -12.5v-31h-181l-154 264q-19 34 -42.5 46t-68.5 12h-23v-247q0 -20 16.5 -28t71.5 -15v-32h-292v32q53 7 69 15t16 28v538q0 19 -16 27t-69 16v32z
M249 650v-290h82q77 0 113 35.5t36 110.5q0 74 -35 109t-111 35h-85z" />
    <glyph glyph-name="S" unicode="S" horiz-adv-x="560" 
d="M473 529h-39q-31 82 -58.5 106t-89.5 24q-64 0 -100 -30t-36 -83q0 -63 57 -98q21 -13 37.5 -20t88.5 -30q104 -34 146.5 -80.5t42.5 -126.5q0 -94 -66 -148.5t-179 -54.5q-87 0 -219 41v171h41q41 -110 74.5 -141.5t107.5 -31.5q72 0 109.5 30.5t37.5 88.5q0 74 -63 111
q-32 18 -115 46q-101 35 -144.5 81t-43.5 119q0 90 61.5 143t166.5 53q79 0 183 -30v-140z" />
    <glyph glyph-name="T" unicode="T" horiz-adv-x="674" 
d="M277 649h-85q-25 0 -36 -2t-24.5 -19t-23 -40.5t-30.5 -82.5h-42l9 183h584l9 -183h-42q-22 59 -31 82.5t-23 40.5t-24.5 19t-35.5 2h-85v-572q0 -20 18 -29t73 -16v-32h-302v32q55 7 73 16t18 29v572z" />
    <glyph glyph-name="U" unicode="U" horiz-adv-x="770" 
d="M647 613v-373q0 -122 -63.5 -187t-183.5 -65q-138 0 -208.5 64t-70.5 189v372q0 19 -16 27t-69 16v32h288v-32q-54 -8 -69 -15.5t-15 -27.5v-366q0 -109 43 -158t140 -49q89 0 132.5 50t43.5 153v370q0 20 -16 28t-70 15v32h218v-32q-54 -8 -69 -15.5t-15 -27.5z" />
    <glyph glyph-name="V" unicode="V" horiz-adv-x="751" 
d="M349 -9l-242 627q-7 19 -21 25.5t-57 12.5v32h275v-32q-42 -5 -56 -11t-14 -19q0 -4 2 -12l173 -473h8l172 466q4 9 4 18q0 14 -14 20t-61 11v32h203v-32q-42 -6 -57 -13.5t-22 -26.5l-237 -625h-56z" />
    <glyph glyph-name="W" unicode="W" horiz-adv-x="1055" 
d="M301 -9l-189 623q-7 20 -22.5 28.5t-57.5 13.5v32h271v-32q-42 -5 -55.5 -12t-13.5 -21q0 -6 2 -16l127 -440h7l169 521h48l174 -519h7l122 438q3 9 3 17q1 11 -12 17.5t-43 11.5l-21 3v32h205v-32q-44 -5 -59 -13t-20 -27l-176 -625h-63l-171 515h-5l-166 -515h-61z" />
    <glyph glyph-name="X" unicode="X" horiz-adv-x="730" 
d="M35 0v32q42 5 61.5 13.5t30.5 26.5l175 271l-187 281q-10 16 -21.5 21t-47.5 11v32h268v-32q-37 -4 -51.5 -9t-14.5 -15q0 -8 6 -17l132 -202h4l118 198q6 9 6 18q0 19 -67 27v32h202v-32q-39 -4 -55.5 -12t-28.5 -26l-152 -244l204 -305q13 -19 26.5 -25.5t51.5 -11.5
v-32h-270v32q63 8 63 24q0 7 -8 19l-149 230h-4l-141 -227q-7 -10 -7 -19q0 -11 15.5 -16.5t58.5 -10.5v-32h-218z" />
    <glyph glyph-name="Y" unicode="Y" horiz-adv-x="692" 
d="M297 298l-192 322q-11 20 -25.5 27t-52.5 12v29h271v-29q-42 -5 -56.5 -9.5t-14.5 -14.5q0 -9 6 -19l158 -271h2l138 263q7 14 7 20q0 13 -15 19.5t-54 11.5v29h196v-29q-40 -7 -53 -13t-23 -24l-172 -319v-226q0 -20 15 -29t56 -14l20 -2v-32h-302v32q59 8 75 15.5
t16 29.5v221z" />
    <glyph glyph-name="Z" unicode="Z" horiz-adv-x="630" 
d="M47 0v43l408 606h-224q-41 0 -56.5 -18.5t-56.5 -116.5h-39l15 174h490v-42l-409 -608h228q48 0 70.5 28t62.5 137h40l-17 -203h-512z" />
    <glyph glyph-name="bracketleft" unicode="[" horiz-adv-x="360" 
d="M83 -130v869h244v-32l-84 -8q-31 -3 -44 -13t-13 -32v-699q0 -22 13 -32t44 -13l84 -8v-32h-244z" />
    <glyph glyph-name="backslash" unicode="\" horiz-adv-x="407" 
d="M333 -116l-302 862h63l302 -862h-63z" />
    <glyph glyph-name="bracketright" unicode="]" horiz-adv-x="360" 
d="M32 -130v32l84 8q31 3 44 13t13 32v699q0 22 -13 32t-44 13l-84 8v32h244v-869h-244z" />
    <glyph glyph-name="asciicircum" unicode="^" 
d="M36 385l169 303h90l169 -303h-43l-171 210l-171 -210h-43z" />
    <glyph glyph-name="underscore" unicode="_" horiz-adv-x="401" 
d="M-16 -145v50h434v-50h-434z" />
    <glyph glyph-name="grave" unicode="`" 
d="M312 579h-37l-97 77q-37 29 -37 57q0 20 13.5 33.5t33.5 13.5q18 0 29.5 -9.5t24.5 -35.5z" />
    <glyph glyph-name="a" unicode="a" horiz-adv-x="549" 
d="M508 88l32 -10q-26 -84 -105 -84q-82 0 -102 76q-56 -78 -145 -78q-64 0 -103.5 36t-39.5 94q0 90 105 133q65 26 181 31v72q0 67 -21 97t-67 30q-49 0 -69 -25v-81h-47q-60 0 -60 45q0 44 53.5 71.5t138.5 27.5q92 0 136 -38.5t44 -120.5v-281q0 -36 29 -36q14 0 21.5 8
t18.5 33zM331 142v110q-97 -4 -134 -29t-37 -84q0 -43 20.5 -66.5t57.5 -23.5q38 0 65.5 27.5t27.5 65.5z" />
    <glyph glyph-name="b" unicode="b" horiz-adv-x="624" 
d="M197 776v-347q72 94 169 94q94 0 152 -73.5t58 -191.5q0 -124 -67.5 -197t-182.5 -73q-48 0 -84.5 12t-89.5 46l-44 -42h-23v645q0 25 -17 35t-63 12v30l153 50h39zM197 324v-192q28 -103 124 -103q139 0 139 223q0 103 -33.5 157t-98.5 54q-56 0 -93.5 -40t-37.5 -99z
" />
    <glyph glyph-name="c" unicode="c" horiz-adv-x="528" 
d="M462 136l33 -14q-57 -134 -201 -134q-109 0 -177.5 74t-68.5 192q0 120 71.5 194.5t187.5 74.5q80 0 129.5 -28t49.5 -74q0 -24 -16 -38.5t-43 -14.5h-55v94q-29 23 -73 23q-133 0 -133 -227q0 -219 149 -219q53 0 86.5 22.5t60.5 74.5z" />
    <glyph glyph-name="d" unicode="d" horiz-adv-x="642" 
d="M449 0l-12 94q-69 -105 -173 -105q-99 0 -157.5 71.5t-58.5 192.5t64.5 196t168.5 75q79 0 146 -63v191q0 25 -16.5 34.5t-63.5 11.5v31l154 47h39v-680q0 -18 15.5 -23.5t64.5 -6.5v-30l-134 -36h-37zM427 188v125q0 160 -127 160q-136 0 -136 -214q0 -104 34.5 -159
t98.5 -55q54 0 92 42t38 101z" />
    <glyph glyph-name="e" unicode="e" horiz-adv-x="558" 
d="M477 123l29 -16q-63 -119 -201 -119q-113 0 -185 74.5t-72 192.5t69 193t178 75q100 0 159 -70q28 -34 40 -73t14 -104h-345v-21q0 -106 43 -161t125 -55q49 0 81.5 19t64.5 65zM387 314v22q0 149 -98 149q-54 0 -84 -41t-40 -130h222z" />
    <glyph glyph-name="f" unicode="f" horiz-adv-x="360" 
d="M24 465v46h79v66q0 102 50 156t145 54q59 0 93.5 -21t34.5 -56q0 -21 -14 -34.5t-36 -13.5h-55v77q-15 12 -37 12q-36 0 -52 -33t-16 -109v-98h119v-46h-119v-401q0 -16 11 -22.5t45 -9.5l21 -2v-30h-256v30l16 2q32 4 41 10t9 22v401h-79z" />
    <glyph glyph-name="g" unicode="g" horiz-adv-x="573" 
d="M540 433h-94q22 -40 22 -84q0 -76 -58 -124.5t-149 -48.5q-27 0 -55 6q-14 3 -17 3q-23 0 -40 -14.5t-17 -34.5t16 -29t53 -9h152q82 0 126.5 -35t44.5 -100q0 -84 -73.5 -136t-192.5 -52q-106 0 -172 35.5t-66 91.5q0 65 106 103q-71 21 -71 86q0 76 99 113
q-95 50 -95 142q0 75 59 126t146 51q88 0 153 -55l89 43h34v-78zM332 0h-133q-39 0 -62 -23.5t-23 -62.5q0 -101 147 -101q81 0 127.5 30t46.5 83q0 74 -103 74zM266 485q-94 0 -94 -136q0 -135 93 -135q94 0 94 134q0 137 -93 137z" />
    <glyph glyph-name="h" unicode="h" horiz-adv-x="633" 
d="M216 776v-347q73 94 177 94q70 0 110.5 -39t40.5 -106v-314q0 -16 10 -22t39 -10l16 -2v-30h-239v30q40 5 50.5 11t10.5 23v303q0 42 -23.5 66.5t-64.5 24.5q-52 0 -89.5 -32.5t-37.5 -76.5v-285q0 -17 10.5 -23t50.5 -11v-30h-239v30q45 5 55 10.5t10 23.5v585
q0 25 -17 35t-63 12v30l154 50h39z" />
    <glyph glyph-name="i" unicode="i" horiz-adv-x="314" 
d="M181 518h39v-454q0 -17 11 -23t55 -11v-30h-247v30q47 5 57.5 10.5t10.5 23.5v329q0 25 -17.5 34.5t-64.5 10.5v30zM162 737q28 0 47.5 -20t19.5 -48t-19.5 -47.5t-48.5 -19.5q-28 0 -47.5 19.5t-19.5 47.5q0 29 20 48.5t48 19.5z" />
    <glyph glyph-name="j" unicode="j" horiz-adv-x="310" 
d="M221 518v-522q0 -100 -51.5 -161t-136.5 -61q-48 0 -77 18t-29 47q0 22 16 35t42 13h29l27 -75q37 4 52 38.5t15 111.5v431q0 25 -17.5 34.5t-64.5 10.5v30l156 50h39zM163 737q28 0 47.5 -20t19.5 -48t-19.5 -47.5t-48.5 -19.5q-28 0 -47.5 19.5t-19.5 47.5
q0 29 19.5 48.5t48.5 19.5z" />
    <glyph glyph-name="k" unicode="k" horiz-adv-x="615" 
d="M23 696v30l154 50h39v-532l183 186q17 17 17 27q0 17 -51 24v30h192v-30q-54 -8 -78 -32l-128 -126l177 -257q13 -18 25.5 -25t41.5 -11v-30h-236v30q29 5 38 8.5t9 10.5q0 9 -8 20l-122 181l-60 -59v-127q0 -17 10.5 -23t50.5 -11v-30h-239v30q45 5 55 10.5t10 23.5v585
q0 25 -17 35t-63 12z" />
    <glyph glyph-name="l" unicode="l" horiz-adv-x="314" 
d="M24 696v30l157 50h39v-712q0 -17 11 -23t55 -11v-30h-249v30l17 2q33 4 43 10t10 22v585q0 25 -17.5 35t-65.5 12z" />
    <glyph glyph-name="m" unicode="m" horiz-adv-x="915" 
d="M197 518l10 -100q64 105 174 105q55 0 86.5 -24.5t44.5 -77.5q68 102 175 102q67 0 103 -38t36 -108v-313q0 -16 10 -22t39 -10l16 -2v-30h-237v30q40 5 50 11t10 23v301q0 44 -22 68.5t-61 24.5q-46 0 -77.5 -31t-31.5 -77v-286q0 -18 9.5 -23.5t50.5 -10.5v-30h-234v30
q40 5 50 11t10 23v301q0 44 -22 68.5t-61 24.5q-46 0 -77.5 -31t-31.5 -77v-286q0 -17 10 -23t50 -11v-30h-238v30q43 5 54 11t11 23v329q0 25 -17 34.5t-62 10.5v30l139 50h34z" />
    <glyph glyph-name="n" unicode="n" horiz-adv-x="633" 
d="M163 518h34l10 -100q76 105 186 105q70 0 110.5 -39t40.5 -106v-314q0 -16 10 -22t39 -10l16 -2v-30h-239v30q40 5 50.5 11t10.5 23v303q0 42 -23.5 66.5t-64.5 24.5q-52 0 -89.5 -32.5t-37.5 -76.5v-285q0 -17 10.5 -23t50.5 -11v-30h-239v30q43 5 54 11t11 23v329
q0 25 -17 34.5t-62 10.5v30z" />
    <glyph glyph-name="o" unicode="o" horiz-adv-x="603" 
d="M301 523q89 0 163 -63q92 -75 92 -206q0 -142 -110 -217q-70 -49 -147 -49q-38 0 -82 17t-78 45q-91 77 -91 205q0 143 109 219q70 49 144 49zM302 485q-65 0 -101.5 -61t-36.5 -169q0 -107 36.5 -168t100.5 -61q66 0 102 60t36 170q0 107 -36.5 168t-100.5 61z" />
    <glyph glyph-name="p" unicode="p" horiz-adv-x="649" 
d="M163 518h34l10 -99q74 104 179 104q92 0 150 -73.5t58 -191.5q0 -121 -63.5 -195.5t-165.5 -74.5q-85 0 -149 63v-205q0 -17 10 -23t42 -9l18 -2v-30h-248v30q44 6 54.5 11.5t10.5 22.5v547q0 25 -17 34.5t-62 10.5v30zM216 324v-128q0 -160 127 -160q135 0 135 215
q0 212 -133 212q-55 0 -92 -40t-37 -99z" />
    <glyph glyph-name="q" unicode="q" horiz-adv-x="633" 
d="M427 -154v233q-68 -91 -167 -91q-94 0 -153 72.5t-59 188.5q0 126 68.5 200.5t183.5 74.5q101 0 178 -58l38 45h24v-665q0 -15 10 -21.5t39 -10.5l16 -2v-30h-248v30l18 2q33 4 42.5 9.5t9.5 22.5zM427 187v204q-17 50 -45.5 72.5t-73.5 22.5q-144 0 -144 -229
q0 -103 34 -156.5t99 -53.5q55 0 92.5 40.5t37.5 99.5z" />
    <glyph glyph-name="r" unicode="r" horiz-adv-x="468" 
d="M163 518h34l11 -106q71 111 157 111q36 0 56.5 -18t20.5 -50t-20.5 -50t-57.5 -18h-30v50q-9 9 -23 9q-39 0 -67 -35t-28 -84v-263q0 -17 12 -23t58 -11v-30h-248v30q43 5 54 11t11 23v329q0 25 -17 34.5t-62 10.5v30z" />
    <glyph glyph-name="s" unicode="s" horiz-adv-x="486" 
d="M406 375h-41q-22 64 -46.5 86t-73.5 22q-46 0 -71 -19.5t-25 -55.5q0 -44 47 -68q28 -14 95 -35q82 -28 115.5 -62.5t33.5 -90.5q0 -75 -54.5 -119.5t-145.5 -44.5q-82 0 -172 37v130h42q26 -77 53 -102.5t81 -25.5q51 0 80 22t29 62q0 46 -47 71q-16 9 -90 35
q-82 29 -115.5 64t-33.5 93q0 70 50.5 109.5t138.5 39.5q73 0 150 -29v-119z" />
    <glyph glyph-name="t" unicode="t" horiz-adv-x="367" 
d="M323 100l29 -11q-38 -101 -136 -101q-61 0 -94.5 35t-33.5 97v345h-70v41l26 4q51 7 78 39.5t39 100.5h37v-139h129v-46h-129v-356q0 -69 55 -69q22 0 38 13.5t32 46.5z" />
    <glyph glyph-name="u" unicode="u" horiz-adv-x="623" 
d="M425 0l-10 92q-70 -104 -177 -104q-70 0 -110 39t-40 108v312q0 15 -10 21.5t-39 10.5l-16 2v30h177v-364q0 -46 23.5 -70.5t66.5 -24.5q49 0 82.5 31.5t33.5 78.5v285q0 15 -9.5 21.5t-36.5 10.5l-15 2v30h173v-408q0 -20 16.5 -27t62.5 -7v-29l-134 -40h-38z" />
    <glyph glyph-name="v" unicode="v" horiz-adv-x="580" 
d="M254 511v-30q-35 -4 -47.5 -9.5t-12.5 -16.5q0 -3 2 -9l132 -325l122 310q5 13 5 20q0 13 -12.5 19t-45.5 11v30h168v-30q-28 -5 -41 -13.5t-20 -24.5l-183 -451h-49l-196 456q-10 24 -62 33v30h240z" />
    <glyph glyph-name="w" unicode="w" horiz-adv-x="827" 
d="M233 -7l-159 455q-6 15 -17 21t-41 12v30h232v-30q-36 -5 -48 -10t-11 -15q0 -3 2 -9l101 -303l134 367h45l131 -370l98 299q2 8 2 12q0 12 -12 18t-49 11v30h169v-30q-31 -6 -41 -12t-16 -22l-156 -454h-49l-130 365l-135 -365h-50z" />
    <glyph glyph-name="x" unicode="x" horiz-adv-x="617" 
d="M38 0v30q37 6 53.5 13t27.5 22l133 187l-148 204q-13 17 -57 25v30h242v-30q-35 -4 -46.5 -8.5t-11.5 -12.5t8 -18l101 -139l88 133q8 13 8 19q0 10 -12 15t-49 11v30h181v-30q-53 -10 -71 -35l-123 -174l152 -208q11 -16 24 -23t40 -11v-30h-240v30q37 6 47.5 9.5
t10.5 10.5q0 6 -7 15l-115 157l-98 -147q-8 -11 -8 -20q0 -10 11.5 -14.5t49.5 -10.5v-30h-191z" />
    <glyph glyph-name="y" unicode="y" horiz-adv-x="579" 
d="M84 -218v32q126 62 188 191l-196 443q-10 24 -62 33v30h240v-30q-35 -4 -47.5 -9.5t-12.5 -16.5q0 -3 2 -9l131 -312l124 297q4 8 4 20q0 13 -12 19.5t-46 10.5v30h168v-30q-28 -5 -40.5 -13t-20.5 -25l-178 -413q-68 -159 -138 -248h-104z" />
    <glyph glyph-name="z" unicode="z" horiz-adv-x="542" 
d="M56 0v52l317 421h-172q-28 0 -39.5 -16t-48.5 -102h-41l11 156h405v-51l-318 -423h164q38 0 56 18.5t45 85.5l15 38h42l-17 -179h-419z" />
    <glyph glyph-name="braceleft" unicode="{" horiz-adv-x="360" 
d="M348 -99v-32q-73 4 -112.5 18t-65.5 46q-40 49 -40 144v109q0 57 -24.5 77t-101.5 25v32q76 4 101 24.5t25 77.5v109q0 113 57 161q26 23 61.5 33t99.5 14v-32q-72 -9 -94 -34t-22 -99v-109q0 -69 -26 -104.5t-93 -54.5v-1v-1v-1v-1q67 -20 93 -55t26 -104v-109
q0 -74 22 -99t94 -34z" />
    <glyph glyph-name="bar" unicode="|" horiz-adv-x="201" 
d="M73 -116v862h54v-862h-54z" />
    <glyph glyph-name="braceright" unicode="}" horiz-adv-x="360" 
d="M10 -131v32q72 9 94 34t22 99v109q0 69 26 104.5t93 54.5v1v1v1v1q-66 20 -92.5 55t-26.5 104v109q0 74 -22 99t-94 34v32q73 -4 113 -18t66 -46q40 -49 40 -144v-109q0 -57 25 -77.5t101 -24.5v-32q-77 -5 -101.5 -25t-24.5 -77v-109q0 -111 -57 -161q-26 -22 -62 -32.5
t-100 -14.5z" />
    <glyph glyph-name="asciitilde" unicode="~" horiz-adv-x="560" 
d="M121 246l-32 14q27 63 53 88t64 25q34 0 94 -24q51 -21 77 -21q18 0 29.5 10t29.5 41l32 -14q-27 -63 -53 -88.5t-64 -25.5q-33 0 -94 25q-51 21 -77 21q-18 0 -30 -10t-29 -41z" />
    <glyph glyph-name="exclamdown" unicode="&#xa1;" horiz-adv-x="280" 
d="M205 -13v-38q0 -29 -18.5 -49t-46.5 -20t-47 20t-19 49v38l48 390h36zM138 590q28 0 48.5 -20t20.5 -49t-20.5 -49t-49.5 -20q-28 0 -48 20.5t-20 48.5q0 29 20.5 49t48.5 20z" />
    <glyph glyph-name="cent" unicode="&#xa2;" horiz-adv-x="602" 
d="M313 -116v105q-108 13 -168 77q-64 69 -64 178q0 103 61 172q60 67 171 83v79h44v-77q71 -4 112 -25q55 -26 55 -75q0 -24 -16 -38t-42 -14h-50v92q-24 18 -59 22v-426q51 2 85 25t58 72l33 -14q-22 -56 -68 -90.5t-108 -40.5v-105h-44zM313 41v421q-35 -8 -54.5 -22.5
t-35.5 -44.5q-28 -54 -28 -149q0 -90 28.5 -139t89.5 -66z" />
    <glyph glyph-name="sterling" unicode="&#xa3;" horiz-adv-x="602" 
d="M68 328v46h80q-22 76 -22 129q0 91 61 144t165 53q85 0 141 -31.5t56 -79.5q0 -23 -16.5 -38.5t-41.5 -15.5h-62v97q-29 30 -73 30q-111 0 -111 -165q0 -42 7 -123h189v-46h-184q14 -129 14 -191v-4q110 -49 171 -49q35 0 53.5 16t32.5 59h37q-13 -92 -42 -129.5
t-87 -37.5q-39 0 -71.5 15.5t-104.5 67.5q-36 -87 -126 -87q-47 0 -76.5 25t-29.5 66t30 67.5t77 26.5q32 0 76 -15q-8 47 -42 149l-7 21h-94zM213 106l-6 4q-39 23 -76 23q-28 0 -45.5 -14.5t-17.5 -38.5t18.5 -39t47.5 -15q69 0 79 80z" />
    <glyph glyph-name="currency" unicode="&#xa4;" horiz-adv-x="602" 
d="M24 386v42h78q14 78 37.5 125t65.5 84q73 63 180 63q82 0 133.5 -31t51.5 -79q0 -26 -17 -41.5t-46 -15.5h-56v99q-30 31 -74 31q-83 0 -122 -85q-24 -50 -33 -150h186v-42h-188q-1 -14 -1 -42v-35h189v-42h-187q12 -123 50 -176.5t113 -53.5q59 0 95 31t61 104l35 -6
q-44 -178 -212 -178q-95 0 -163 60q-42 38 -64.5 87.5t-35.5 131.5h-76v42h73q-1 8 -1 22v13v10q0 20 1 32h-73z" />
    <glyph glyph-name="yen" unicode="&#xa5;" horiz-adv-x="602" 
d="M76 299v42h171l-145 279q-10 19 -22.5 26t-47.5 13v29h257v-29q-40 -5 -54 -10t-14 -15q0 -6 5 -18l116 -238h4l110 230q6 14 6 20q0 13 -14 19.5t-52 11.5v29h186v-29q-36 -7 -47.5 -13t-20.5 -24l-141 -281h174v-42h-178v-92h178v-42h-178v-88q0 -22 17 -30t75 -15v-32
h-299v32q59 8 75 15.5t16 29.5v88h-177v42h177v92h-177z" />
    <glyph glyph-name="brokenbar" unicode="&#xa6;" horiz-adv-x="201" 
d="M73 -116v394h54v-394h-54zM73 366v380h54v-380h-54z" />
    <glyph glyph-name="section" unicode="&#xa7;" horiz-adv-x="560" 
d="M367 551v84q-31 26 -78 26q-51 0 -80.5 -23.5t-29.5 -64.5q0 -40 27 -62.5t112 -52.5q96 -35 133 -58q71 -49 71 -124q0 -91 -104 -136q45 -44 45 -105q0 -72 -55 -115.5t-146 -43.5q-82 0 -133 28t-51 73q0 23 15.5 37.5t40.5 14.5h52v-91q37 -23 80 -23q52 0 81.5 24
t29.5 65t-29 64.5t-115 54.5q-92 33 -131 60q-66 45 -66 119q0 47 25 79.5t79 55.5q-45 42 -45 102q0 72 54.5 116.5t142.5 44.5q79 0 129.5 -28t50.5 -72q0 -49 -57 -49h-48zM388 163q53 30 53 76q0 55 -67 86q-23 10 -111 44q-66 26 -95 46q-53 -29 -53 -77q0 -52 63 -83
q28 -14 109 -44q60 -22 101 -48z" />
    <glyph glyph-name="dieresis" unicode="&#xa8;" 
d="M350 733q26 0 44.5 -18.5t18.5 -44.5t-18.5 -44.5t-44.5 -18.5t-44.5 18.5t-18.5 44.5t18.5 44.5t44.5 18.5zM150 733q26 0 44.5 -18.5t18.5 -44.5t-18.5 -44.5t-44.5 -18.5t-44.5 18.5t-18.5 44.5t18.5 44.5t44.5 18.5z" />
    <glyph glyph-name="copyright" unicode="&#xa9;" horiz-adv-x="833" 
d="M565 258v-99q-59 -26 -134 -26q-97 0 -158.5 58.5t-61.5 151.5q0 94 63 153.5t163 59.5q63 0 120 -21v-95h-27q-20 51 -39 68.5t-55 17.5q-123 0 -123 -183q0 -181 125 -181q41 0 61 19t39 77h27zM418 695q148 0 249.5 -101t101.5 -249q0 -150 -102.5 -252t-253.5 -102
q-146 0 -247.5 102.5t-101.5 249.5q0 148 102.5 250t251.5 102zM418 661q-134 0 -223.5 -91t-89.5 -227q0 -134 89.5 -226t219.5 -92q133 0 223.5 92t90.5 228q0 134 -89 225t-221 91z" />
    <glyph glyph-name="ordfeminine" unicode="&#xaa;" horiz-adv-x="454" 
d="M419 335l27 -9q-21 -70 -89 -70t-87 61q-44 -63 -116 -63q-54 0 -87 30t-33 78q0 123 234 135v60q0 101 -69 101q-38 0 -55 -22v-70h-40q-52 0 -52 38q0 37 46 61t117 24q77 0 113.5 -31.5t36.5 -97.5v-230q0 -28 23 -28q11 0 17.5 7t13.5 26zM268 376v91
q-74 -5 -102.5 -24.5t-28.5 -66.5q0 -34 15.5 -52.5t44.5 -18.5t50 21.5t21 49.5z" />
    <glyph glyph-name="guillemotleft" unicode="&#xab;" horiz-adv-x="463" 
d="M207 50l-177 193l177 193l33 -21l-100 -172l100 -172zM393 50l-178 193l178 193l32 -21l-100 -172l100 -172z" />
    <glyph glyph-name="logicalnot" unicode="&#xac;" horiz-adv-x="560" 
d="M424 143v182h-352v52h408v-234h-56z" />
    <glyph glyph-name="uni00AD" unicode="&#xad;" horiz-adv-x="401" 
d="M77 235v74h248v-74h-248z" />
    <glyph glyph-name="registered" unicode="&#xae;" horiz-adv-x="537" 
d="M164 584h105q92 0 92 -56q0 -22 -15 -35t-48 -20q23 -4 42 -31l24 -39q8 -13 30 -15v-18h-72l-46 79q-9 16 -29 16h-3v-63q0 -7 5 -10t22 -4v-18h-107v18q16 2 21 4.5t5 9.5v151q0 9 -21 12l-5 1v18zM244 564v-79h19q41 0 41 42q0 20 -8.5 28.5t-29.5 8.5h-22zM269 695
q95 0 159.5 -64t64.5 -158q0 -95 -65 -158.5t-162 -63.5q-93 0 -157.5 64.5t-64.5 156.5q0 94 65 158.5t160 64.5zM269 665q-83 0 -136 -54t-53 -139q0 -82 53.5 -136.5t133.5 -54.5q83 0 136.5 54t53.5 138t-53 138t-135 54z" />
    <glyph glyph-name="macron" unicode="&#xaf;" 
d="M115 634v63h270v-63h-270z" />
    <glyph glyph-name="degree" unicode="&#xb0;" horiz-adv-x="280" 
d="M139 725q56 0 94 -37t38 -92t-38 -91.5t-95 -36.5q-56 0 -93.5 36.5t-37.5 91.5t38 92t94 37zM138 687q-37 0 -60 -25.5t-23 -65.5t23.5 -65.5t58.5 -25.5q37 0 60.5 25t23.5 66q0 40 -23 65.5t-60 25.5z" />
    <glyph glyph-name="plusminus" unicode="&#xb1;" horiz-adv-x="560" 
d="M61 308v52h191v173h56v-173h191v-52h-191v-173h-56v173h-191zM61 0v52h438v-52h-438z" />
    <glyph glyph-name="twosuperior" unicode="&#xb2;" horiz-adv-x="360" 
d="M32 326v46q109 59 150.5 104.5t41.5 104.5q0 78 -59 78q-23 0 -43 -12v-65h-43q-20 0 -31.5 10.5t-11.5 27.5q0 30 37 50t93 20q68 0 108 -28.5t40 -76.5q0 -66 -86 -130q-39 -29 -112 -69h140q16 0 23 7t21 35h26l-9 -102h-285z" />
    <glyph glyph-name="threesuperior" unicode="&#xb3;" horiz-adv-x="360" 
d="M196 524v-3q40 0 62 -7q67 -20 67 -81q0 -50 -46 -82t-117 -32q-61 0 -98.5 19.5t-37.5 51.5q0 37 48 37h35v-61q24 -17 53 -17q75 0 75 77q0 69 -69 69q-21 0 -47 -10l-8 29q61 22 82.5 41.5t21.5 51.5q0 53 -52 53q-22 0 -42 -13v-59h-38q-17 0 -29 10t-12 25
q0 29 37.5 48t94.5 19q59 0 93 -20.5t34 -56.5q0 -59 -107 -89z" />
    <glyph glyph-name="acute" unicode="&#xb4;" 
d="M198 579l70 136q13 26 24.5 35.5t29.5 9.5q20 0 33.5 -13.5t13.5 -33.5q0 -28 -37 -57l-97 -77h-37z" />
    <glyph glyph-name="uni00B5" unicode="&#xb5;" horiz-adv-x="602" 
d="M164 -1l9 -144q1 -23 1 -28q0 -23 -15 -38t-38 -15t-38.5 15t-15.5 38q0 8 1 13l1 15l9 203v389q0 16 -11 22.5t-43 10.5l-11 1v30h177v-364q0 -46 23.5 -70.5t66.5 -24.5q49 0 82.5 31.5t33.5 78.5v285q0 16 -10.5 22.5t-39.5 10.5l-11 1v30h173v-407q0 -34 61 -34h18
v-30l-134 -40h-38l-11 92q-69 -104 -177 -104q-34 0 -63 11z" />
    <glyph glyph-name="paragraph" unicode="&#xb6;" horiz-adv-x="622" 
d="M343 -115v443h-67q-109 0 -175 50.5t-66 133.5q0 84 63.5 130t180.5 46h305v-32q-54 -7 -69.5 -15t-15.5 -28v-728h-47v764h-62v-764h-47zM343 649h-41q-53 0 -75 -32t-22 -110t21.5 -109t75.5 -31h41v282z" />
    <glyph glyph-name="periodcentered" unicode="&#xb7;" horiz-adv-x="280" 
d="M139 367q29 0 49.5 -20.5t20.5 -49.5t-21 -49.5t-50 -20.5q-28 0 -48.5 21t-20.5 49q0 29 20.5 49.5t49.5 20.5z" />
    <glyph glyph-name="cedilla" unicode="&#xb8;" 
d="M269 0l-29 -49q111 -7 111 -79q0 -39 -34 -63t-90 -24q-68 0 -114 34l12 21q36 -15 79 -15q72 0 72 42q0 37 -72 38l-22 20l45 75h42z" />
    <glyph glyph-name="onesuperior" unicode="&#xb9;" horiz-adv-x="360" 
d="M73 332v27q42 3 54 8t12 19v228l-69 -5v26q71 20 114 59h38v-308q0 -14 12 -19t50 -8v-27h-211z" />
    <glyph glyph-name="ordmasculine" unicode="&#xba;" horiz-adv-x="492" 
d="M246 689q73 0 135 -52q75 -61 75 -168q0 -116 -90 -178q-57 -40 -122 -40q-73 0 -134 51q-75 63 -75 168q0 117 90 179q58 40 121 40zM247 658q-51 0 -79 -49t-28 -139q0 -89 28 -138t78 -49q52 0 79 48t27 140q0 89 -27.5 138t-77.5 49z" />
    <glyph glyph-name="guillemotright" unicode="&#xbb;" horiz-adv-x="463" 
d="M70 50l-33 21l100 172l-100 172l33 21l177 -193zM255 50l-32 21l100 172l-100 172l32 21l178 -193z" />
    <glyph glyph-name="onequarter" unicode="&#xbc;" horiz-adv-x="736" 
d="M568 0v83h-177v44l194 234h66v-234h59v-44h-59v-83h-83zM434 130v-3h134v155h-3zM118 0l436 678h63l-436 -678h-63zM33 332v27q42 3 54 8t12 19v228l-69 -5v26q71 20 114 59h38v-308q0 -14 12 -19t50 -8v-27h-211z" />
    <glyph glyph-name="onehalf" unicode="&#xbd;" horiz-adv-x="767" 
d="M437 0v46q109 59 150.5 104.5t41.5 104.5q0 78 -59 78q-24 0 -43 -12v-65h-44q-19 0 -30.5 10.5t-11.5 27.5q0 30 37 50t93 20q68 0 108 -28.5t40 -76.5q0 -66 -86 -130q-39 -29 -112 -69h140q16 0 23 7t21 35h26l-9 -102h-285zM109 0l436 678h63l-436 -678h-63zM33 332
v27q42 3 54 8t12 19v228l-69 -5v26q71 20 114 59h38v-308q0 -14 12 -19t50 -8v-27h-211z" />
    <glyph glyph-name="threequarters" unicode="&#xbe;" horiz-adv-x="765" 
d="M598 0v83h-177v44l194 234h66v-234h60v-44h-60v-83h-83zM465 130v-3h133v155h-3zM196 524v-3q40 0 62 -7q67 -20 67 -81q0 -50 -46 -82t-117 -32q-61 0 -98.5 19.5t-37.5 51.5q0 37 48 37h35v-61q24 -17 53 -17q75 0 75 77q0 69 -69 69q-21 0 -47 -10l-8 29
q61 22 82.5 41.5t21.5 51.5q0 53 -52 53q-22 0 -42 -13v-59h-38q-17 0 -29 10t-12 25q0 29 37.5 48t94.5 19q59 0 93 -20.5t34 -56.5q0 -59 -107 -89zM162 0l436 678h63l-436 -678h-63z" />
    <glyph glyph-name="questiondown" unicode="&#xbf;" horiz-adv-x="459" 
d="M317 30h48q32 0 49.5 -14.5t17.5 -39.5q0 -46 -52 -73t-139 -27q-99 0 -153.5 42.5t-54.5 119.5q0 54 26.5 92t95.5 85q54 36 74 61.5t20 57.5v44h46v-46q0 -43 -15 -73.5t-56 -71.5q-43 -42 -58 -73.5t-15 -77.5q0 -58 25.5 -90.5t70.5 -32.5q43 0 70 22v95zM263 590
q28 0 48.5 -20.5t20.5 -48.5t-20.5 -48.5t-49.5 -20.5q-28 0 -48 20.5t-20 48.5q0 29 20 49t49 20z" />
    <glyph glyph-name="Agrave" unicode="&#xc0;" horiz-adv-x="756" 
d="M31 0v32q41 6 58 13.5t22 21.5l242 635h53l241 -631q8 -19 21.5 -26t55.5 -13v-32h-273v32q42 6 56 12t14 19q0 3 -2 11l-59 160h-239l-60 -164q-2 -6 -2 -9q-1 -11 15.5 -17t61.5 -12v-32h-205zM338 549l-102 -276h210l-100 276h-8zM422 727h-37l-97 77q-37 29 -37 57
q0 20 13.5 33.5t33.5 13.5q18 0 29 -9.5t25 -35.5z" />
    <glyph glyph-name="Aacute" unicode="&#xc1;" horiz-adv-x="756" 
d="M31 0v32q41 6 58 13.5t22 21.5l242 635h53l241 -631q8 -19 21.5 -26t55.5 -13v-32h-273v32q42 6 56 12t14 19q0 3 -2 11l-59 160h-239l-60 -164q-2 -6 -2 -9q-1 -11 15.5 -17t61.5 -12v-32h-205zM338 549l-102 -276h210l-100 276h-8zM344 727l70 136q14 26 25 35.5
t29 9.5q20 0 33.5 -13.5t13.5 -33.5q0 -28 -37 -57l-97 -77h-37z" />
    <glyph glyph-name="Acircumflex" unicode="&#xc2;" horiz-adv-x="756" 
d="M31 0v32q41 6 58 13.5t22 21.5l242 635h53l241 -631q8 -19 21.5 -26t55.5 -13v-32h-273v32q42 6 56 12t14 19q0 3 -2 11l-59 160h-239l-60 -164q-2 -6 -2 -9q-1 -11 15.5 -17t61.5 -12v-32h-205zM338 549l-102 -276h210l-100 276h-8zM238 739l105 154h70l105 -154h-37
l-103 78l-103 -78h-37z" />
    <glyph glyph-name="Atilde" unicode="&#xc3;" horiz-adv-x="756" 
d="M31 0v32q41 6 58 13.5t22 21.5l242 635h53l241 -631q8 -19 21.5 -26t55.5 -13v-32h-273v32q42 6 56 12t14 19q0 3 -2 11l-59 160h-239l-60 -164q-2 -6 -2 -9q-1 -11 15.5 -17t61.5 -12v-32h-205zM338 549l-102 -276h210l-100 276h-8zM240 755l-32 14q25 56 49.5 79
t60.5 23q30 0 79 -19q37 -15 59 -15q20 0 33 8.5t27 31.5l32 -13q-26 -57 -50 -79.5t-60 -22.5q-29 0 -79 18q-37 15 -60 15q-35 0 -59 -40z" />
    <glyph glyph-name="Adieresis" unicode="&#xc4;" horiz-adv-x="756" 
d="M31 0v32q41 6 58 13.5t22 21.5l242 635h53l241 -631q8 -19 21.5 -26t55.5 -13v-32h-273v32q42 6 56 12t14 19q0 3 -2 11l-59 160h-239l-60 -164q-2 -6 -2 -9q-1 -11 15.5 -17t61.5 -12v-32h-205zM338 549l-102 -276h210l-100 276h-8zM478 881q26 0 44.5 -18.5t18.5 -44.5
t-18.5 -44.5t-44.5 -18.5t-44.5 18.5t-18.5 44.5t18.5 44.5t44.5 18.5zM278 881q26 0 44.5 -18.5t18.5 -44.5t-18.5 -44.5t-44.5 -18.5t-44.5 18.5t-18.5 44.5t18.5 44.5t44.5 18.5z" />
    <glyph glyph-name="Aring" unicode="&#xc5;" horiz-adv-x="756" 
d="M31 0v32q41 6 58 13.5t22 21.5l242 635h53l241 -631q8 -19 21.5 -26t55.5 -13v-32h-273v32q42 6 56 12t14 19q0 3 -2 11l-59 160h-239l-60 -164q-2 -6 -2 -9q-1 -11 15.5 -17t61.5 -12v-32h-205zM338 549l-102 -276h210l-100 276h-8zM378 922q40 0 69 -28.5t29 -67.5
q0 -41 -28.5 -68.5t-70.5 -27.5q-40 0 -68.5 28t-28.5 68q0 39 29 67.5t69 28.5zM378 887q-25 0 -40.5 -17t-15.5 -44t15.5 -44.5t40.5 -17.5t40.5 17.5t15.5 44.5q0 26 -15.5 43.5t-40.5 17.5z" />
    <glyph glyph-name="AE" unicode="&#xc6;" horiz-adv-x="1004" 
d="M23 0v32q36 6 50.5 13t25.5 23l349 573q-19 9 -67 15v32h530l13 -166h-38q-37 92 -52.5 109.5t-62.5 17.5h-163v-277h109q21 0 30 18t20 78h36v-233h-36q-11 61 -20.5 80t-29.5 19h-109v-259q0 -22 17.5 -29.5t67.5 -7.5h111q22 0 34 4t26 22.5t26 47.5t34 89h39
l-15 -201h-545v32q53 7 69 15t16 28v160h-235l-99 -166q-4 -5 -4 -12q0 -15 54 -22l19 -3v-32h-200zM488 617h-7l-205 -343h212v343z" />
    <glyph glyph-name="Ccedilla" unicode="&#xc7;" horiz-adv-x="676" 
d="M388 -12l-22 -38q111 -7 111 -79q0 -39 -34 -63t-90 -24q-69 0 -114 34l12 21q36 -15 79 -15q72 0 72 42q0 37 -72 38l-22 20l39 66q-135 14 -214.5 109t-79.5 243q0 163 96.5 260.5t256.5 97.5q92 0 189 -34v-159h-40q-37 99 -65 126t-90 27q-110 0 -164 -78.5
t-54 -239.5q0 -162 54 -238.5t168 -76.5q72 0 101.5 31t62.5 141h41v-167q-102 -44 -212 -44h-9z" />
    <glyph glyph-name="Egrave" unicode="&#xc8;" horiz-adv-x="644" 
d="M553 688l11 -166h-37q-37 93 -52.5 110t-61.5 17h-164v-277h108q21 0 30.5 17.5t20.5 78.5h37v-233h-37q-11 61 -21 80t-30 19h-108v-259q0 -22 17.5 -29.5t67.5 -7.5h112q29 0 43.5 10t30 40.5t45.5 112.5h40l-15 -201h-545v32q53 7 69 15t16 28v538q0 19 -16 27t-69 16
v32h508zM393 727h-37l-97 77q-37 29 -37 57q0 20 13.5 33.5t33.5 13.5q18 0 29.5 -9.5t24.5 -35.5z" />
    <glyph glyph-name="Eacute" unicode="&#xc9;" horiz-adv-x="644" 
d="M553 688l11 -166h-37q-37 93 -52.5 110t-61.5 17h-164v-277h108q21 0 30.5 17.5t20.5 78.5h37v-233h-37q-11 61 -21 80t-30 19h-108v-259q0 -22 17.5 -29.5t67.5 -7.5h112q29 0 43.5 10t30 40.5t45.5 112.5h40l-15 -201h-545v32q53 7 69 15t16 28v538q0 19 -16 27t-69 16
v32h508zM282 727l70 136q13 26 24.5 35.5t29.5 9.5q20 0 33.5 -13.5t13.5 -33.5q0 -28 -37 -57l-97 -77h-37z" />
    <glyph glyph-name="Ecircumflex" unicode="&#xca;" horiz-adv-x="644" 
d="M553 688l11 -166h-37q-37 93 -52.5 110t-61.5 17h-164v-277h108q21 0 30.5 17.5t20.5 78.5h37v-233h-37q-11 61 -21 80t-30 19h-108v-259q0 -22 17.5 -29.5t67.5 -7.5h112q29 0 43.5 10t30 40.5t45.5 112.5h40l-15 -201h-545v32q53 7 69 15t16 28v538q0 19 -16 27t-69 16
v32h508zM182 739l105 154h70l105 -154h-37l-103 78l-103 -78h-37z" />
    <glyph glyph-name="Edieresis" unicode="&#xcb;" horiz-adv-x="644" 
d="M553 688l11 -166h-37q-37 93 -52.5 110t-61.5 17h-164v-277h108q21 0 30.5 17.5t20.5 78.5h37v-233h-37q-11 61 -21 80t-30 19h-108v-259q0 -22 17.5 -29.5t67.5 -7.5h112q29 0 43.5 10t30 40.5t45.5 112.5h40l-15 -201h-545v32q53 7 69 15t16 28v538q0 19 -16 27t-69 16
v32h508zM422 881q26 0 44.5 -18.5t18.5 -44.5t-18.5 -44.5t-44.5 -18.5t-44.5 18.5t-18.5 44.5t18.5 44.5t44.5 18.5zM222 881q26 0 44.5 -18.5t18.5 -44.5t-18.5 -44.5t-44.5 -18.5t-44.5 18.5t-18.5 44.5t18.5 44.5t44.5 18.5z" />
    <glyph glyph-name="Igrave" unicode="&#xcc;" horiz-adv-x="392" 
d="M137 75v538q0 20 -16.5 28t-72.5 15v32h297v-32q-56 -7 -72.5 -15t-16.5 -28v-538q0 -20 16.5 -28t72.5 -15v-32h-297v32q56 7 72.5 15t16.5 28zM258 727h-37l-97 77q-37 29 -37 57q0 20 13.5 33.5t33.5 13.5q18 0 29.5 -9.5t24.5 -35.5z" />
    <glyph glyph-name="Iacute" unicode="&#xcd;" horiz-adv-x="392" 
d="M137 75v538q0 20 -16.5 28t-72.5 15v32h297v-32q-56 -7 -72.5 -15t-16.5 -28v-538q0 -20 16.5 -28t72.5 -15v-32h-297v32q56 7 72.5 15t16.5 28zM159 727l70 136q13 26 24.5 35.5t29.5 9.5q20 0 33.5 -13.5t13.5 -33.5q0 -28 -37 -57l-97 -77h-37z" />
    <glyph glyph-name="Icircumflex" unicode="&#xce;" horiz-adv-x="392" 
d="M137 75v538q0 20 -16.5 28t-72.5 15v32h297v-32q-56 -7 -72.5 -15t-16.5 -28v-538q0 -20 16.5 -28t72.5 -15v-32h-297v32q56 7 72.5 15t16.5 28zM56 739l105 154h70l105 -154h-37l-103 78l-103 -78h-37z" />
    <glyph glyph-name="Idieresis" unicode="&#xcf;" horiz-adv-x="392" 
d="M137 75v538q0 20 -16.5 28t-72.5 15v32h297v-32q-56 -7 -72.5 -15t-16.5 -28v-538q0 -20 16.5 -28t72.5 -15v-32h-297v32q56 7 72.5 15t16.5 28zM296 881q26 0 44.5 -18.5t18.5 -44.5t-18.5 -44.5t-44.5 -18.5t-44.5 18.5t-18.5 44.5t18.5 44.5t44.5 18.5zM96 881
q26 0 44.5 -18.5t18.5 -44.5t-18.5 -44.5t-44.5 -18.5t-44.5 18.5t-18.5 44.5t18.5 44.5t44.5 18.5z" />
    <glyph glyph-name="Eth" unicode="&#xd0;" horiz-adv-x="738" 
d="M43 328v42h87v243q0 19 -16 27t-69 16v32h297q157 0 250 -93.5t93 -251.5q0 -157 -93 -250t-250 -93h-297v32q53 7 69 15t16 28v253h-87zM249 328v-255q0 -20 18 -27.5t64 -7.5q120 0 173 71.5t53 233.5q0 161 -53 233.5t-171 72.5h-84v-279h179v-42h-179z" />
    <glyph glyph-name="Ntilde" unicode="&#xd1;" horiz-adv-x="757" 
d="M600 -7l-418 588h-4v-506q0 -22 14.5 -29t71.5 -14v-32h-219v32q54 7 61 9q25 8 25 34v537q0 21 -13.5 29.5t-55.5 12.5q-3 1 -8.5 1.5t-8.5 0.5v32h202l349 -490h4v415q0 20 -16 28t-70 15v32h210v-32q-48 -7 -62 -15t-14 -28v-620h-48zM267 755l-32 14q25 56 49.5 79
t60.5 23q30 0 79 -19q38 -15 59 -15q20 0 33 8.5t27 31.5l32 -13q-26 -57 -50 -79.5t-60 -22.5q-29 0 -79 18q-38 15 -60 15q-35 0 -59 -40z" />
    <glyph glyph-name="Ograve" unicode="&#xd2;" horiz-adv-x="757" 
d="M378 700q131 0 226 -95q101 -101 101 -262q0 -153 -94 -254t-236 -101q-59 0 -118.5 25.5t-103.5 69.5q-100 100 -100 260q0 159 101 262q44 45 103.5 70t120.5 25zM380 660q-199 0 -199 -317q0 -316 196 -316q102 0 150.5 77.5t48.5 239.5q0 316 -196 316zM458 727h-37
l-97 77q-37 29 -37 57q0 20 13.5 33.5t33.5 13.5q18 0 29 -9.5t25 -35.5z" />
    <glyph glyph-name="Oacute" unicode="&#xd3;" horiz-adv-x="757" 
d="M378 700q131 0 226 -95q101 -101 101 -262q0 -153 -94 -254t-236 -101q-59 0 -118.5 25.5t-103.5 69.5q-100 100 -100 260q0 159 101 262q44 45 103.5 70t120.5 25zM380 660q-199 0 -199 -317q0 -316 196 -316q102 0 150.5 77.5t48.5 239.5q0 316 -196 316zM327 727
l70 136q13 26 24.5 35.5t29.5 9.5q20 0 33.5 -13.5t13.5 -33.5q0 -28 -37 -57l-97 -77h-37z" />
    <glyph glyph-name="Ocircumflex" unicode="&#xd4;" horiz-adv-x="757" 
d="M378 700q131 0 226 -95q101 -101 101 -262q0 -153 -94 -254t-236 -101q-59 0 -118.5 25.5t-103.5 69.5q-100 100 -100 260q0 159 101 262q44 45 103.5 70t120.5 25zM380 660q-199 0 -199 -317q0 -316 196 -316q102 0 150.5 77.5t48.5 239.5q0 316 -196 316zM239 739
l105 154h70l105 -154h-37l-103 78l-103 -78h-37z" />
    <glyph glyph-name="Otilde" unicode="&#xd5;" horiz-adv-x="757" 
d="M378 700q131 0 226 -95q101 -101 101 -262q0 -153 -94 -254t-236 -101q-59 0 -118.5 25.5t-103.5 69.5q-100 100 -100 260q0 159 101 262q44 45 103.5 70t120.5 25zM380 660q-199 0 -199 -317q0 -316 196 -316q102 0 150.5 77.5t48.5 239.5q0 316 -196 316zM246 755
l-32 14q25 56 49.5 79t60.5 23q30 0 79 -19q38 -15 59 -15q20 0 33 8.5t27 31.5l32 -13q-26 -57 -50 -79.5t-60 -22.5q-29 0 -79 18q-37 15 -60 15q-35 0 -59 -40z" />
    <glyph glyph-name="Odieresis" unicode="&#xd6;" horiz-adv-x="757" 
d="M378 700q131 0 226 -95q101 -101 101 -262q0 -153 -94 -254t-236 -101q-59 0 -118.5 25.5t-103.5 69.5q-100 100 -100 260q0 159 101 262q44 45 103.5 70t120.5 25zM380 660q-199 0 -199 -317q0 -316 196 -316q102 0 150.5 77.5t48.5 239.5q0 316 -196 316zM479 881
q25 0 44 -18.5t19 -44.5t-18.5 -44.5t-44.5 -18.5q-25 0 -44 18.5t-19 44.5t19 44.5t44 18.5zM279 881q25 0 44 -18.5t19 -44.5t-18.5 -44.5t-44.5 -18.5q-25 0 -44 18.5t-19 44.5t19 44.5t44 18.5z" />
    <glyph glyph-name="multiply" unicode="&#xd7;" horiz-adv-x="560" 
d="M121 108l-36 36l158 158l-158 158l37 37l158 -158l158 158l37 -37l-159 -158l158 -158l-36 -37l-159 158z" />
    <glyph glyph-name="Oslash" unicode="&#xd8;" horiz-adv-x="757" 
d="M41 0l92 104q-80 102 -80 239q0 161 101 262q95 95 224 95q114 0 213 -83l63 71h62l-93 -104q82 -105 82 -241q0 -160 -99 -259q-45 -46 -105 -71t-123 -25q-115 0 -212 82l-62 -70h-63zM557 510l-339 -382q52 -101 158 -101q102 0 151 77t49 236q0 97 -19 170zM200 178
l339 381q-52 101 -157 101q-201 0 -201 -318q0 -95 19 -164z" />
    <glyph glyph-name="Ugrave" unicode="&#xd9;" horiz-adv-x="770" 
d="M647 613v-373q0 -122 -63.5 -187t-183.5 -65q-138 0 -208.5 64t-70.5 189v372q0 19 -16 27t-69 16v32h288v-32q-54 -8 -69 -15.5t-15 -27.5v-366q0 -109 43 -158t140 -49q89 0 132.5 50t43.5 153v370q0 20 -16 28t-70 15v32h218v-32q-54 -8 -69 -15.5t-15 -27.5zM459 727
h-37l-97 77q-37 29 -37 57q0 20 13.5 33.5t33.5 13.5q18 0 29.5 -9.5t24.5 -35.5z" />
    <glyph glyph-name="Uacute" unicode="&#xda;" horiz-adv-x="770" 
d="M647 613v-373q0 -122 -63.5 -187t-183.5 -65q-138 0 -208.5 64t-70.5 189v372q0 19 -16 27t-69 16v32h288v-32q-54 -8 -69 -15.5t-15 -27.5v-366q0 -109 43 -158t140 -49q89 0 132.5 50t43.5 153v370q0 20 -16 28t-70 15v32h218v-32q-54 -8 -69 -15.5t-15 -27.5zM392 727
l70 136q14 26 25 35.5t29 9.5q20 0 33.5 -13.5t13.5 -33.5q0 -28 -37 -57l-97 -77h-37z" />
    <glyph glyph-name="Ucircumflex" unicode="&#xdb;" horiz-adv-x="770" 
d="M647 613v-373q0 -122 -63.5 -187t-183.5 -65q-138 0 -208.5 64t-70.5 189v372q0 19 -16 27t-69 16v32h288v-32q-54 -8 -69 -15.5t-15 -27.5v-366q0 -109 43 -158t140 -49q89 0 132.5 50t43.5 153v370q0 20 -16 28t-70 15v32h218v-32q-54 -8 -69 -15.5t-15 -27.5zM277 739
l105 154h70l105 -154h-37l-103 78l-103 -78h-37z" />
    <glyph glyph-name="Udieresis" unicode="&#xdc;" horiz-adv-x="770" 
d="M647 613v-373q0 -122 -63.5 -187t-183.5 -65q-138 0 -208.5 64t-70.5 189v372q0 19 -16 27t-69 16v32h288v-32q-54 -8 -69 -15.5t-15 -27.5v-366q0 -109 43 -158t140 -49q89 0 132.5 50t43.5 153v370q0 20 -16 28t-70 15v32h218v-32q-54 -8 -69 -15.5t-15 -27.5zM517 881
q25 0 44 -18.5t19 -44.5t-18.5 -44.5t-44.5 -18.5q-25 0 -44 18.5t-19 44.5t19 44.5t44 18.5zM317 881q25 0 44 -18.5t19 -44.5t-18.5 -44.5t-44.5 -18.5q-25 0 -44 18.5t-19 44.5t19 44.5t44 18.5z" />
    <glyph glyph-name="Yacute" unicode="&#xdd;" horiz-adv-x="692" 
d="M297 298l-192 322q-11 20 -25.5 27t-52.5 12v29h271v-29q-42 -5 -56.5 -9.5t-14.5 -14.5q0 -9 6 -19l158 -271h2l138 263q7 14 7 20q0 13 -15 19.5t-54 11.5v29h196v-29q-40 -7 -53 -13t-23 -24l-172 -319v-226q0 -20 15 -29t56 -14l20 -2v-32h-302v32q59 8 75 15.5
t16 29.5v221zM359 727l70 136q13 26 24.5 35.5t29.5 9.5q20 0 33.5 -13.5t13.5 -33.5q0 -28 -37 -57l-97 -77h-37z" />
    <glyph glyph-name="Thorn" unicode="&#xde;" horiz-adv-x="653" 
d="M249 552h95q266 0 266 -179q0 -90 -69 -140t-194 -50h-98v-108q0 -22 14 -29.5t58 -11.5l12 -1l12 -1v-32h-300v32l18 2q41 5 54 13t13 28v538q0 19 -16 27t-69 16v32h289v-32q-54 -7 -69.5 -15t-15.5 -28v-61zM249 514v-293h90q149 0 149 148q0 76 -35 110.5t-112 34.5
h-92z" />
    <glyph glyph-name="germandbls" unicode="&#xdf;" horiz-adv-x="653" 
d="M24 465v46h79v31q0 116 60 180.5t167 64.5q87 0 139.5 -42.5t52.5 -113.5q0 -125 -169 -197v-4q94 -19 153 -57q108 -68 108 -186q0 -87 -60 -143t-153 -56q-59 0 -94.5 20t-35.5 53q0 22 17 36.5t42 14.5h47v-82q12 -6 26 -6q47 0 72 38.5t25 110.5q0 90 -55 152
q-56 61 -154 78v36q70 32 99 74t29 112q0 126 -94 126q-109 0 -109 -176v-575h-179v30l16 2q32 4 41 10t9 22v401h-79z" />
    <glyph glyph-name="agrave" unicode="&#xe0;" horiz-adv-x="549" 
d="M508 88l32 -10q-26 -84 -105 -84q-82 0 -102 76q-56 -78 -145 -78q-64 0 -103.5 36t-39.5 94q0 90 105 133q65 26 181 31v72q0 67 -21 97t-67 30q-49 0 -69 -25v-81h-47q-60 0 -60 45q0 44 53.5 71.5t138.5 27.5q92 0 136 -38.5t44 -120.5v-281q0 -36 29 -36q14 0 21.5 8
t18.5 33zM331 142v110q-97 -4 -134 -29t-37 -84q0 -43 20.5 -66.5t57.5 -23.5q38 0 65.5 27.5t27.5 65.5zM342 579h-37l-97 77q-37 29 -37 57q0 20 13.5 33.5t33.5 13.5q18 0 29 -9.5t25 -35.5z" />
    <glyph glyph-name="aacute" unicode="&#xe1;" horiz-adv-x="549" 
d="M508 88l32 -10q-26 -84 -105 -84q-82 0 -102 76q-56 -78 -145 -78q-64 0 -103.5 36t-39.5 94q0 90 105 133q65 26 181 31v72q0 67 -21 97t-67 30q-49 0 -69 -25v-81h-47q-60 0 -60 45q0 44 53.5 71.5t138.5 27.5q92 0 136 -38.5t44 -120.5v-281q0 -36 29 -36q14 0 21.5 8
t18.5 33zM331 142v110q-97 -4 -134 -29t-37 -84q0 -43 20.5 -66.5t57.5 -23.5q38 0 65.5 27.5t27.5 65.5zM220 579l70 136q14 26 25 35.5t29 9.5q20 0 33.5 -13.5t13.5 -33.5q0 -28 -37 -57l-97 -77h-37z" />
    <glyph glyph-name="acircumflex" unicode="&#xe2;" horiz-adv-x="549" 
d="M508 88l32 -10q-26 -84 -105 -84q-82 0 -102 76q-56 -78 -145 -78q-64 0 -103.5 36t-39.5 94q0 90 105 133q65 26 181 31v72q0 67 -21 97t-67 30q-49 0 -69 -25v-81h-47q-60 0 -60 45q0 44 53.5 71.5t138.5 27.5q92 0 136 -38.5t44 -120.5v-281q0 -36 29 -36q14 0 21.5 8
t18.5 33zM331 142v110q-97 -4 -134 -29t-37 -84q0 -43 20.5 -66.5t57.5 -23.5q38 0 65.5 27.5t27.5 65.5zM126 591l105 154h70l105 -154h-37l-103 78l-103 -78h-37z" />
    <glyph glyph-name="atilde" unicode="&#xe3;" horiz-adv-x="549" 
d="M508 88l32 -10q-26 -84 -105 -84q-82 0 -102 76q-56 -78 -145 -78q-64 0 -103.5 36t-39.5 94q0 90 105 133q65 26 181 31v72q0 67 -21 97t-67 30q-49 0 -69 -25v-81h-47q-60 0 -60 45q0 44 53.5 71.5t138.5 27.5q92 0 136 -38.5t44 -120.5v-281q0 -36 29 -36q14 0 21.5 8
t18.5 33zM331 142v110q-97 -4 -134 -29t-37 -84q0 -43 20.5 -66.5t57.5 -23.5q38 0 65.5 27.5t27.5 65.5zM125 607l-32 14q25 56 49.5 79t60.5 23q30 0 79 -19q37 -15 59 -15q20 0 33 8.5t27 31.5l32 -13q-26 -57 -50 -79.5t-60 -22.5q-29 0 -79 18q-37 15 -60 15
q-35 0 -59 -40z" />
    <glyph glyph-name="adieresis" unicode="&#xe4;" horiz-adv-x="549" 
d="M508 88l32 -10q-26 -84 -105 -84q-82 0 -102 76q-56 -78 -145 -78q-64 0 -103.5 36t-39.5 94q0 90 105 133q65 26 181 31v72q0 67 -21 97t-67 30q-49 0 -69 -25v-81h-47q-60 0 -60 45q0 44 53.5 71.5t138.5 27.5q92 0 136 -38.5t44 -120.5v-281q0 -36 29 -36q14 0 21.5 8
t18.5 33zM331 142v110q-97 -4 -134 -29t-37 -84q0 -43 20.5 -66.5t57.5 -23.5q38 0 65.5 27.5t27.5 65.5zM366 733q26 0 44.5 -18.5t18.5 -44.5t-18.5 -44.5t-44.5 -18.5t-44.5 18.5t-18.5 44.5t18.5 44.5t44.5 18.5zM166 733q26 0 44.5 -18.5t18.5 -44.5t-18.5 -44.5
t-44.5 -18.5t-44.5 18.5t-18.5 44.5t18.5 44.5t44.5 18.5z" />
    <glyph glyph-name="aring" unicode="&#xe5;" horiz-adv-x="549" 
d="M508 88l32 -10q-26 -84 -105 -84q-82 0 -102 76q-56 -78 -145 -78q-64 0 -103.5 36t-39.5 94q0 90 105 133q65 26 181 31v72q0 67 -21 97t-67 30q-49 0 -69 -25v-81h-47q-60 0 -60 45q0 44 53.5 71.5t138.5 27.5q92 0 136 -38.5t44 -120.5v-281q0 -36 29 -36q14 0 21.5 8
t18.5 33zM331 142v110q-97 -4 -134 -29t-37 -84q0 -43 20.5 -66.5t57.5 -23.5q38 0 65.5 27.5t27.5 65.5zM275 774q40 0 69 -28.5t29 -67.5q0 -41 -28.5 -68.5t-70.5 -27.5q-40 0 -68.5 28t-28.5 68q0 39 29 67.5t69 28.5zM275 739q-25 0 -40.5 -17t-15.5 -44t15.5 -44.5
t40.5 -17.5t40.5 17.5t15.5 44.5q0 26 -15.5 43.5t-40.5 17.5z" />
    <glyph glyph-name="ae" unicode="&#xe6;" horiz-adv-x="827" 
d="M746 123l29 -16q-63 -119 -194 -119q-136 0 -206 120q-66 -116 -181 -116q-68 0 -108.5 36.5t-40.5 97.5q0 94 111 139q65 27 182 32v61q0 66 -22.5 96.5t-71.5 30.5q-48 0 -70 -27v-82h-47q-60 0 -60 45q0 44 54.5 73t138.5 29q60 0 95.5 -15.5t57.5 -51.5q67 67 157 67
q99 0 152 -67q28 -35 40.5 -77.5t14.5 -112.5h-330v-11q0 -216 161 -216q47 0 76 17.5t62 66.5zM655 303v33q0 77 -22 113t-68 36q-55 0 -82 -43t-35 -139h207zM338 141v120q-100 -4 -139 -31t-39 -89q0 -92 81 -92q39 0 68 27.5t29 64.5z" />
    <glyph glyph-name="ccedilla" unicode="&#xe7;" horiz-adv-x="528" 
d="M288 -12l-22 -38q111 -7 111 -79q0 -39 -34 -63t-90 -24q-68 0 -114 34l12 21q36 -15 79 -15q72 0 72 42q0 37 -72 38l-22 20l41 68q-93 16 -147 87t-54 175q0 120 71.5 194.5t187.5 74.5q80 0 129.5 -28t49.5 -74q0 -24 -16 -38.5t-43 -14.5h-55v94q-29 23 -73 23
q-133 0 -133 -227q0 -219 149 -219q53 0 86.5 22.5t60.5 74.5l33 -14q-58 -134 -200 -134h-7z" />
    <glyph glyph-name="egrave" unicode="&#xe8;" horiz-adv-x="558" 
d="M477 123l29 -16q-63 -119 -201 -119q-113 0 -185 74.5t-72 192.5t69 193t178 75q100 0 159 -70q28 -34 40 -73t14 -104h-345v-21q0 -106 43 -161t125 -55q49 0 81.5 19t64.5 65zM387 314v22q0 149 -98 149q-54 0 -84 -41t-40 -130h222zM356 579h-37l-97 77q-37 29 -37 57
q0 20 13.5 33.5t33.5 13.5q18 0 29 -9.5t25 -35.5z" />
    <glyph glyph-name="eacute" unicode="&#xe9;" horiz-adv-x="558" 
d="M477 123l29 -16q-63 -119 -201 -119q-113 0 -185 74.5t-72 192.5t69 193t178 75q100 0 159 -70q28 -34 40 -73t14 -104h-345v-21q0 -106 43 -161t125 -55q49 0 81.5 19t64.5 65zM387 314v22q0 149 -98 149q-54 0 -84 -41t-40 -130h222zM248 579l70 136q14 26 25 35.5
t29 9.5q20 0 33.5 -13.5t13.5 -33.5q0 -28 -37 -57l-97 -77h-37z" />
    <glyph glyph-name="ecircumflex" unicode="&#xea;" horiz-adv-x="558" 
d="M477 123l29 -16q-63 -119 -201 -119q-113 0 -185 74.5t-72 192.5t69 193t178 75q100 0 159 -70q28 -34 40 -73t14 -104h-345v-21q0 -106 43 -161t125 -55q49 0 81.5 19t64.5 65zM387 314v22q0 149 -98 149q-54 0 -84 -41t-40 -130h222zM160 591l105 154h70l105 -154h-37
l-103 78l-103 -78h-37z" />
    <glyph glyph-name="edieresis" unicode="&#xeb;" horiz-adv-x="558" 
d="M477 123l29 -16q-63 -119 -201 -119q-113 0 -185 74.5t-72 192.5t69 193t178 75q100 0 159 -70q28 -34 40 -73t14 -104h-345v-21q0 -106 43 -161t125 -55q49 0 81.5 19t64.5 65zM387 314v22q0 149 -98 149q-54 0 -84 -41t-40 -130h222zM403 733q25 0 44 -18.5t19 -44.5
t-18.5 -44.5t-44.5 -18.5q-25 0 -44 18.5t-19 44.5t19 44.5t44 18.5zM203 733q25 0 44 -18.5t19 -44.5t-18.5 -44.5t-44.5 -18.5q-25 0 -44 18.5t-19 44.5t19 44.5t44 18.5z" />
    <glyph glyph-name="igrave" unicode="&#xec;" horiz-adv-x="314" 
d="M181 518h39v-454q0 -17 11 -23t55 -11v-30h-247v30q47 5 57.5 10.5t10.5 23.5v329q0 25 -17.5 34.5t-64.5 10.5v30zM219 579h-37l-97 77q-37 29 -37 57q0 20 13.5 33.5t33.5 13.5q18 0 29 -9.5t25 -35.5z" />
    <glyph glyph-name="iacute" unicode="&#xed;" horiz-adv-x="314" 
d="M181 518h39v-454q0 -17 11 -23t55 -11v-30h-247v30q47 5 57.5 10.5t10.5 23.5v329q0 25 -17.5 34.5t-64.5 10.5v30zM105 579l70 136q13 26 24.5 35.5t29.5 9.5q20 0 33.5 -13.5t13.5 -33.5q0 -28 -37 -57l-97 -77h-37z" />
    <glyph glyph-name="icircumflex" unicode="&#xee;" horiz-adv-x="314" 
d="M181 518h39v-454q0 -17 11 -23t55 -11v-30h-247v30q47 5 57.5 10.5t10.5 23.5v329q0 25 -17.5 34.5t-64.5 10.5v30zM11 591l105 154h70l105 -154h-37l-103 78l-103 -78h-37z" />
    <glyph glyph-name="idieresis" unicode="&#xef;" horiz-adv-x="314" 
d="M181 518h39v-454q0 -17 11 -23t55 -11v-30h-247v30q47 5 57.5 10.5t10.5 23.5v329q0 25 -17.5 34.5t-64.5 10.5v30zM257 733q25 0 44 -18.5t19 -44.5t-18.5 -44.5t-44.5 -18.5q-25 0 -44 18.5t-19 44.5t19 44.5t44 18.5zM57 733q25 0 44 -18.5t19 -44.5t-18.5 -44.5
t-44.5 -18.5q-25 0 -44 18.5t-19 44.5t19 44.5t44 18.5z" />
    <glyph glyph-name="eth" unicode="&#xf0;" horiz-adv-x="603" 
d="M172 561l-22 29l108 80q-46 39 -85 66l19 26q66 -33 109 -60l96 71l22 -28l-87 -65q115 -86 169 -184t54 -217q0 -135 -79 -216q-34 -34 -81.5 -54.5t-93.5 -20.5q-87 0 -162 62q-91 76 -91 207q0 118 75 193q34 34 78.5 53.5t87.5 19.5q62 0 112 -44q-37 85 -117 166z
M302 485q-66 0 -102 -60t-36 -170q0 -109 36 -169t101 -60q67 0 102.5 59t35.5 171q0 110 -35.5 169.5t-101.5 59.5z" />
    <glyph glyph-name="ntilde" unicode="&#xf1;" horiz-adv-x="633" 
d="M163 518h34l10 -100q76 105 186 105q70 0 110.5 -39t40.5 -106v-314q0 -16 10 -22t39 -10l16 -2v-30h-239v30q40 5 50.5 11t10.5 23v303q0 42 -23.5 66.5t-64.5 24.5q-52 0 -89.5 -32.5t-37.5 -76.5v-285q0 -17 10.5 -23t50.5 -11v-30h-239v30q43 5 54 11t11 23v329
q0 25 -17 34.5t-62 10.5v30zM179 607l-32 14q25 56 49.5 79t60.5 23q30 0 79 -19q37 -15 59 -15q20 0 33 8.5t27 31.5l32 -13q-26 -57 -50 -79.5t-60 -22.5q-29 0 -79 18q-37 15 -60 15q-35 0 -59 -40z" />
    <glyph glyph-name="ograve" unicode="&#xf2;" horiz-adv-x="603" 
d="M301 523q89 0 163 -63q92 -75 92 -206q0 -142 -110 -217q-70 -49 -147 -49q-38 0 -82 17t-78 45q-91 77 -91 205q0 143 109 219q70 49 144 49zM302 485q-65 0 -101.5 -61t-36.5 -169q0 -107 36.5 -168t100.5 -61q66 0 102 60t36 170q0 107 -36.5 168t-100.5 61zM372 579
h-37l-97 77q-37 29 -37 57q0 20 13.5 33.5t33.5 13.5q18 0 29 -9.5t25 -35.5z" />
    <glyph glyph-name="oacute" unicode="&#xf3;" horiz-adv-x="603" 
d="M301 523q89 0 163 -63q92 -75 92 -206q0 -142 -110 -217q-70 -49 -147 -49q-38 0 -82 17t-78 45q-91 77 -91 205q0 143 109 219q70 49 144 49zM302 485q-65 0 -101.5 -61t-36.5 -169q0 -107 36.5 -168t100.5 -61q66 0 102 60t36 170q0 107 -36.5 168t-100.5 61zM250 579
l70 136q13 26 24.5 35.5t29.5 9.5q20 0 33.5 -13.5t13.5 -33.5q0 -28 -37 -57l-97 -77h-37z" />
    <glyph glyph-name="ocircumflex" unicode="&#xf4;" horiz-adv-x="603" 
d="M301 523q89 0 163 -63q92 -75 92 -206q0 -142 -110 -217q-70 -49 -147 -49q-38 0 -82 17t-78 45q-91 77 -91 205q0 143 109 219q70 49 144 49zM302 485q-65 0 -101.5 -61t-36.5 -169q0 -107 36.5 -168t100.5 -61q66 0 102 60t36 170q0 107 -36.5 168t-100.5 61zM162 591
l105 154h70l105 -154h-37l-103 78l-103 -78h-37z" />
    <glyph glyph-name="otilde" unicode="&#xf5;" horiz-adv-x="603" 
d="M301 523q89 0 163 -63q92 -75 92 -206q0 -142 -110 -217q-70 -49 -147 -49q-38 0 -82 17t-78 45q-91 77 -91 205q0 143 109 219q70 49 144 49zM302 485q-65 0 -101.5 -61t-36.5 -169q0 -107 36.5 -168t100.5 -61q66 0 102 60t36 170q0 107 -36.5 168t-100.5 61zM169 607
l-32 14q25 56 49.5 79t60.5 23q30 0 79 -19q37 -15 59 -15q20 0 33 8.5t27 31.5l32 -13q-26 -57 -50 -79.5t-60 -22.5q-29 0 -79 18q-37 15 -60 15q-35 0 -59 -40z" />
    <glyph glyph-name="odieresis" unicode="&#xf6;" horiz-adv-x="603" 
d="M301 523q89 0 163 -63q92 -75 92 -206q0 -142 -110 -217q-70 -49 -147 -49q-38 0 -82 17t-78 45q-91 77 -91 205q0 143 109 219q70 49 144 49zM302 485q-65 0 -101.5 -61t-36.5 -169q0 -107 36.5 -168t100.5 -61q66 0 102 60t36 170q0 107 -36.5 168t-100.5 61zM402 733
q26 0 44.5 -18.5t18.5 -44.5t-18.5 -44.5t-44.5 -18.5t-44.5 18.5t-18.5 44.5t18.5 44.5t44.5 18.5zM202 733q26 0 44.5 -18.5t18.5 -44.5t-18.5 -44.5t-44.5 -18.5t-44.5 18.5t-18.5 44.5t18.5 44.5t44.5 18.5z" />
    <glyph glyph-name="divide" unicode="&#xf7;" horiz-adv-x="560" 
d="M63 275v54h434v-54h-434zM280 177q26 0 44.5 -18.5t18.5 -44.5q0 -27 -18.5 -45.5t-45.5 -18.5q-26 0 -44.5 19t-18.5 45t19 44.5t45 18.5zM280 556q26 0 44.5 -19t18.5 -45t-18.5 -44.5t-45.5 -18.5q-25 0 -44 18.5t-19 44.5t19 45t45 19z" />
    <glyph glyph-name="oslash" unicode="&#xf8;" horiz-adv-x="600" 
d="M576 511l-79 -84q59 -72 59 -171q0 -144 -110 -219q-68 -49 -145 -49q-82 0 -160 61l-46 -49h-60l74 79q-61 74 -61 174q0 144 109 221q70 49 144 49q86 0 166 -65l50 53h59zM175 148l240 255q-38 82 -112 82q-65 0 -102 -60.5t-37 -169.5q0 -62 11 -107zM429 355
l-238 -253q38 -76 110 -76q65 0 101.5 60t36.5 168q0 52 -10 101z" />
    <glyph glyph-name="ugrave" unicode="&#xf9;" horiz-adv-x="623" 
d="M425 0l-10 92q-70 -104 -177 -104q-70 0 -110 39t-40 108v312q0 15 -10 21.5t-39 10.5l-16 2v30h177v-364q0 -46 23.5 -70.5t66.5 -24.5q49 0 82.5 31.5t33.5 78.5v285q0 15 -9.5 21.5t-36.5 10.5l-15 2v30h173v-408q0 -20 16.5 -27t62.5 -7v-29l-134 -40h-38zM347 579
h-37l-97 77q-37 29 -37 57q0 20 13.5 33.5t33.5 13.5q18 0 29 -9.5t25 -35.5z" />
    <glyph glyph-name="uacute" unicode="&#xfa;" horiz-adv-x="623" 
d="M425 0l-10 92q-70 -104 -177 -104q-70 0 -110 39t-40 108v312q0 15 -10 21.5t-39 10.5l-16 2v30h177v-364q0 -46 23.5 -70.5t66.5 -24.5q49 0 82.5 31.5t33.5 78.5v285q0 15 -9.5 21.5t-36.5 10.5l-15 2v30h173v-408q0 -20 16.5 -27t62.5 -7v-29l-134 -40h-38zM260 579
l70 136q13 26 24.5 35.5t29.5 9.5q20 0 33.5 -13.5t13.5 -33.5q0 -28 -37 -57l-97 -77h-37z" />
    <glyph glyph-name="ucircumflex" unicode="&#xfb;" horiz-adv-x="623" 
d="M425 0l-10 92q-70 -104 -177 -104q-70 0 -110 39t-40 108v312q0 15 -10 21.5t-39 10.5l-16 2v30h177v-364q0 -46 23.5 -70.5t66.5 -24.5q49 0 82.5 31.5t33.5 78.5v285q0 15 -9.5 21.5t-36.5 10.5l-15 2v30h173v-408q0 -20 16.5 -27t62.5 -7v-29l-134 -40h-38zM154 591
l105 154h70l105 -154h-37l-103 78l-103 -78h-37z" />
    <glyph glyph-name="udieresis" unicode="&#xfc;" horiz-adv-x="623" 
d="M425 0l-10 92q-70 -104 -177 -104q-70 0 -110 39t-40 108v312q0 15 -10 21.5t-39 10.5l-16 2v30h177v-364q0 -46 23.5 -70.5t66.5 -24.5q49 0 82.5 31.5t33.5 78.5v285q0 15 -9.5 21.5t-36.5 10.5l-15 2v30h173v-408q0 -20 16.5 -27t62.5 -7v-29l-134 -40h-38zM412 733
q26 0 44.5 -18.5t18.5 -44.5t-18.5 -44.5t-44.5 -18.5t-44.5 18.5t-18.5 44.5t18.5 44.5t44.5 18.5zM212 733q26 0 44.5 -18.5t18.5 -44.5t-18.5 -44.5t-44.5 -18.5t-44.5 18.5t-18.5 44.5t18.5 44.5t44.5 18.5z" />
    <glyph glyph-name="yacute" unicode="&#xfd;" horiz-adv-x="579" 
d="M84 -218v32q126 62 188 191l-196 443q-10 24 -62 33v30h240v-30q-35 -4 -47.5 -9.5t-12.5 -16.5q0 -3 2 -9l131 -312l124 297q4 8 4 20q0 13 -12 19.5t-46 10.5v30h168v-30q-28 -5 -40.5 -13t-20.5 -25l-178 -413q-68 -159 -138 -248h-104zM302 579l70 136q14 26 25 35.5
t29 9.5q20 0 33.5 -13.5t13.5 -33.5q0 -28 -37 -57l-97 -77h-37z" />
    <glyph glyph-name="thorn" unicode="&#xfe;" horiz-adv-x="635" 
d="M9 696v30l154 50h39v-345q73 92 170 92q92 0 150 -74t58 -192q0 -120 -63 -194.5t-165 -74.5q-86 0 -150 63v-205q0 -18 9.5 -23.5t44.5 -8.5l8 -1l8 -1v-30h-248v30l16 2q31 4 40 10t9 22v803q0 25 -17 35t-63 12zM202 324v-128q0 -160 127 -160q135 0 135 215
q0 212 -133 212q-55 0 -92 -40t-37 -99z" />
    <glyph glyph-name="ydieresis" unicode="&#xff;" horiz-adv-x="579" 
d="M84 -218v32q126 62 188 191l-196 443q-10 24 -62 33v30h240v-30q-35 -4 -47.5 -9.5t-12.5 -16.5q0 -3 2 -9l131 -312l124 297q4 8 4 20q0 13 -12 19.5t-46 10.5v30h168v-30q-28 -5 -40.5 -13t-20.5 -25l-178 -413q-68 -159 -138 -248h-104zM419 733q25 0 44 -18.5
t19 -44.5t-18.5 -44.5t-44.5 -18.5q-25 0 -44 18.5t-19 44.5t19 44.5t44 18.5zM219 733q25 0 44 -18.5t19 -44.5t-18.5 -44.5t-44.5 -18.5q-25 0 -44 18.5t-19 44.5t19 44.5t44 18.5z" />
    <glyph glyph-name="Amacron" unicode="&#x100;" horiz-adv-x="756" 
d="M31 0v32q41 6 58 13.5t22 21.5l242 635h53l241 -631q8 -19 21.5 -26t55.5 -13v-32h-273v32q42 6 56 12t14 19q0 3 -2 11l-59 160h-239l-60 -164q-2 -6 -2 -9q-1 -11 15.5 -17t61.5 -12v-32h-205zM338 549l-102 -276h210l-100 276h-8zM243 782v63h270v-63h-270z" />
    <glyph glyph-name="amacron" unicode="&#x101;" horiz-adv-x="549" 
d="M508 88l32 -10q-26 -84 -105 -84q-82 0 -102 76q-56 -78 -145 -78q-64 0 -103.5 36t-39.5 94q0 90 105 133q65 26 181 31v72q0 67 -21 97t-67 30q-49 0 -69 -25v-81h-47q-60 0 -60 45q0 44 53.5 71.5t138.5 27.5q92 0 136 -38.5t44 -120.5v-281q0 -36 29 -36q14 0 21.5 8
t18.5 33zM331 142v110q-97 -4 -134 -29t-37 -84q0 -43 20.5 -66.5t57.5 -23.5q38 0 65.5 27.5t27.5 65.5zM131 634v63h270v-63h-270z" />
    <glyph glyph-name="Abreve" unicode="&#x102;" horiz-adv-x="756" 
d="M31 0v32q41 6 58 13.5t22 21.5l242 635h53l241 -631q8 -19 21.5 -26t55.5 -13v-32h-273v32q42 6 56 12t14 19q0 3 -2 11l-59 160h-239l-60 -164q-2 -6 -2 -9q-1 -11 15.5 -17t61.5 -12v-32h-205zM338 549l-102 -276h210l-100 276h-8zM469 879h39q-12 -69 -51 -102
q-33 -30 -79 -30t-79 30q-39 33 -51 102h39q24 -62 91 -62q68 0 91 62z" />
    <glyph glyph-name="abreve" unicode="&#x103;" horiz-adv-x="549" 
d="M508 88l32 -10q-26 -84 -105 -84q-82 0 -102 76q-56 -78 -145 -78q-64 0 -103.5 36t-39.5 94q0 90 105 133q65 26 181 31v72q0 67 -21 97t-67 30q-49 0 -69 -25v-81h-47q-60 0 -60 45q0 44 53.5 71.5t138.5 27.5q92 0 136 -38.5t44 -120.5v-281q0 -36 29 -36q14 0 21.5 8
t18.5 33zM331 142v110q-97 -4 -134 -29t-37 -84q0 -43 20.5 -66.5t57.5 -23.5q38 0 65.5 27.5t27.5 65.5zM354 731h39q-12 -69 -51 -102q-33 -30 -79 -30t-79 30q-39 33 -51 102h39q24 -62 91 -62q68 0 91 62z" />
    <glyph glyph-name="Aogonek" unicode="&#x104;" horiz-adv-x="758" 
d="M673 -134l20 -22q-41 -47 -104 -47q-44 0 -71.5 22.5t-27.5 59.5q0 75 110 121h-150v32q42 6 56 12t14 19q0 3 -2 11l-58 160h-239l-61 -164q-2 -6 -2 -8q-1 -11 15.5 -17.5t62.5 -12.5v-32h-205v32q40 6 56.5 13.5t22.5 21.5l243 635h52l241 -631q8 -19 21.5 -26
t55.5 -13v-32h-84q-64 -52 -64 -109q0 -48 45 -48q23 0 48 19q3 2 5 4zM235 273h211l-101 277h-8z" />
    <glyph glyph-name="aogonek" unicode="&#x105;" horiz-adv-x="549" 
d="M517 -134l21 -22q-43 -47 -104 -47q-44 0 -72 22.5t-28 59.5q0 68 93 115q-77 5 -94 76q-54 -78 -144 -78q-64 0 -104 36t-40 94q0 90 105 133q66 27 181 32v71q0 67 -20.5 97t-66.5 30q-49 0 -70 -27v-81h-47q-60 0 -60 44t55.5 73t137.5 29q91 0 135 -39t44 -120v-281
q0 -36 29 -36q14 0 21.5 8t18.5 33l32 -10q-15 -53 -55 -76q-65 -42 -65 -110q0 -49 45 -49q24 0 52 23zM331 142v110q-97 -4 -134 -29t-37 -84q0 -43 20.5 -66.5t57.5 -23.5q38 0 65.5 27.5t27.5 65.5z" />
    <glyph glyph-name="Cacute" unicode="&#x106;" horiz-adv-x="676" 
d="M609 199v-167q-100 -44 -214 -44q-157 0 -249.5 96t-92.5 258q0 163 96.5 260.5t256.5 97.5q92 0 189 -34v-159h-40q-37 99 -65 126t-90 27q-110 0 -164 -78.5t-54 -239.5q0 -162 54 -238.5t168 -76.5q72 0 101.5 31t62.5 141h41zM345 727l70 136q13 26 24.5 35.5
t29.5 9.5q20 0 33.5 -13.5t13.5 -33.5q0 -28 -37 -57l-97 -77h-37z" />
    <glyph glyph-name="cacute" unicode="&#x107;" horiz-adv-x="528" 
d="M462 136l33 -14q-57 -134 -201 -134q-109 0 -177.5 74t-68.5 192q0 120 71.5 194.5t187.5 74.5q80 0 129.5 -28t49.5 -74q0 -24 -16 -38.5t-43 -14.5h-55v94q-29 23 -73 23q-133 0 -133 -227q0 -219 149 -219q53 0 86.5 22.5t60.5 74.5zM250 579l70 136q13 26 24.5 35.5
t29.5 9.5q20 0 33.5 -13.5t13.5 -33.5q0 -28 -37 -57l-97 -77h-37z" />
    <glyph glyph-name="Ccircumflex" unicode="&#x108;" horiz-adv-x="676" 
d="M609 199v-167q-100 -44 -214 -44q-157 0 -249.5 96t-92.5 258q0 163 96.5 260.5t256.5 97.5q92 0 189 -34v-159h-40q-37 99 -65 126t-90 27q-110 0 -164 -78.5t-54 -239.5q0 -162 54 -238.5t168 -76.5q72 0 101.5 31t62.5 141h41zM251 739l105 154h70l105 -154h-37
l-103 78l-103 -78h-37z" />
    <glyph glyph-name="ccircumflex" unicode="&#x109;" horiz-adv-x="528" 
d="M462 136l33 -14q-57 -134 -201 -134q-109 0 -177.5 74t-68.5 192q0 120 71.5 194.5t187.5 74.5q80 0 129.5 -28t49.5 -74q0 -24 -16 -38.5t-43 -14.5h-55v94q-29 23 -73 23q-133 0 -133 -227q0 -219 149 -219q53 0 86.5 22.5t60.5 74.5zM162 591l105 154h70l105 -154h-37
l-103 78l-103 -78h-37z" />
    <glyph glyph-name="Cdotaccent" unicode="&#x10a;" horiz-adv-x="676" 
d="M609 199v-167q-100 -44 -214 -44q-157 0 -249.5 96t-92.5 258q0 163 96.5 260.5t256.5 97.5q92 0 189 -34v-159h-40q-37 99 -65 126t-90 27q-110 0 -164 -78.5t-54 -239.5q0 -162 54 -238.5t168 -76.5q72 0 101.5 31t62.5 141h41zM386 885q28 0 47.5 -20t19.5 -48
t-19.5 -47.5t-48.5 -19.5q-28 0 -47.5 19.5t-19.5 47.5q0 29 20 48.5t48 19.5z" />
    <glyph glyph-name="cdotaccent" unicode="&#x10b;" horiz-adv-x="528" 
d="M462 136l33 -14q-57 -134 -201 -134q-109 0 -177.5 74t-68.5 192q0 120 71.5 194.5t187.5 74.5q80 0 129.5 -28t49.5 -74q0 -24 -16 -38.5t-43 -14.5h-55v94q-29 23 -73 23q-133 0 -133 -227q0 -219 149 -219q53 0 86.5 22.5t60.5 74.5zM312 737q28 0 47.5 -20t19.5 -48
t-19.5 -47.5t-48.5 -19.5q-28 0 -47.5 19.5t-19.5 47.5q0 29 20 48.5t48 19.5z" />
    <glyph glyph-name="Ccaron" unicode="&#x10c;" horiz-adv-x="676" 
d="M609 199v-167q-100 -44 -214 -44q-157 0 -249.5 96t-92.5 258q0 163 96.5 260.5t256.5 97.5q92 0 189 -34v-159h-40q-37 99 -65 126t-90 27q-110 0 -164 -78.5t-54 -239.5q0 -162 54 -238.5t168 -76.5q72 0 101.5 31t62.5 141h41zM353 746l-105 154h37l103 -78l103 78h37
l-105 -154h-70z" />
    <glyph glyph-name="ccaron" unicode="&#x10d;" horiz-adv-x="528" 
d="M462 136l33 -14q-57 -134 -201 -134q-109 0 -177.5 74t-68.5 192q0 120 71.5 194.5t187.5 74.5q80 0 129.5 -28t49.5 -74q0 -24 -16 -38.5t-43 -14.5h-55v94q-29 23 -73 23q-133 0 -133 -227q0 -219 149 -219q53 0 86.5 22.5t60.5 74.5zM264 598l-105 154h37l103 -78
l103 78h37l-105 -154h-70z" />
    <glyph glyph-name="Dcaron" unicode="&#x10e;" horiz-adv-x="738" 
d="M130 75v538q0 19 -16 27t-69 16v32h297q159 0 251 -92.5t92 -251.5q0 -157 -93 -250.5t-250 -93.5h-297v32q53 7 69 15t16 28zM249 649v-576q0 -20 18 -27.5t64 -7.5q120 0 173 71.5t53 233.5q0 161 -53 233.5t-171 72.5h-84zM281 746l-105 154h37l103 -78l103 78h37
l-105 -154h-70z" />
    <glyph glyph-name="dcaron" unicode="&#x10f;" horiz-adv-x="752" 
d="M601 562l-12 28q80 25 86 83q-11 -3 -23 -3q-23 0 -38.5 15t-15.5 38t16 38.5t41 15.5q32 0 52.5 -24t20.5 -62q0 -102 -127 -129zM449 0l-12 94q-69 -105 -173 -105q-99 0 -157.5 71.5t-58.5 192.5t64.5 196t168.5 75q79 0 146 -63v191q0 25 -16.5 34.5t-63.5 11.5v31
l154 47h39v-680q0 -18 15.5 -23.5t64.5 -6.5v-30l-134 -36h-37zM427 188v125q0 160 -127 160q-136 0 -136 -214q0 -104 34.5 -159t98.5 -55q54 0 92 42t38 101z" />
    <glyph glyph-name="Dcroat" unicode="&#x110;" horiz-adv-x="738" 
d="M43 328v42h87v243q0 19 -16 27t-69 16v32h297q157 0 250 -93.5t93 -251.5q0 -157 -93 -250t-250 -93h-297v32q53 7 69 15t16 28v253h-87zM249 328v-255q0 -20 18 -27.5t64 -7.5q120 0 173 71.5t53 233.5q0 161 -53 233.5t-171 72.5h-84v-279h179v-42h-179z" />
    <glyph glyph-name="dcroat" unicode="&#x111;" horiz-adv-x="642" 
d="M449 0l-13 94q-68 -105 -171 -105q-99 0 -158 71.5t-59 192.5t64.5 196t168.5 75q82 0 146 -64v133h-124v39h124v20q0 25 -16.5 34.5t-63.5 11.5v31l154 47h39v-144h81v-39h-81v-497q0 -18 15.5 -23.5t64.5 -6.5v-30l-134 -36h-37zM428 188v125q0 160 -127 160
q-137 0 -137 -214q0 -104 34.5 -159t98.5 -55q54 0 92.5 42t38.5 101z" />
    <glyph glyph-name="Emacron" unicode="&#x112;" horiz-adv-x="644" 
d="M553 688l11 -166h-37q-37 93 -52.5 110t-61.5 17h-164v-277h108q21 0 30.5 17.5t20.5 78.5h37v-233h-37q-11 61 -21 80t-30 19h-108v-259q0 -22 17.5 -29.5t67.5 -7.5h112q29 0 43.5 10t30 40.5t45.5 112.5h40l-15 -201h-545v32q53 7 69 15t16 28v538q0 19 -16 27t-69 16
v32h508zM193 782v63h270v-63h-270z" />
    <glyph glyph-name="emacron" unicode="&#x113;" horiz-adv-x="558" 
d="M477 123l29 -16q-63 -119 -201 -119q-113 0 -185 74.5t-72 192.5t69 193t178 75q100 0 159 -70q28 -34 40 -73t14 -104h-345v-21q0 -106 43 -161t125 -55q49 0 81.5 19t64.5 65zM387 314v22q0 149 -98 149q-54 0 -84 -41t-40 -130h222zM150 634v63h270v-63h-270z" />
    <glyph glyph-name="Ebreve" unicode="&#x114;" horiz-adv-x="644" 
d="M553 688l11 -166h-37q-37 93 -52.5 110t-61.5 17h-164v-277h108q21 0 30.5 17.5t20.5 78.5h37v-233h-37q-11 61 -21 80t-30 19h-108v-259q0 -22 17.5 -29.5t67.5 -7.5h112q29 0 43.5 10t30 40.5t45.5 112.5h40l-15 -201h-545v32q53 7 69 15t16 28v538q0 19 -16 27t-69 16
v32h508zM428 879h39q-12 -69 -51 -102q-33 -30 -79 -30t-79 30q-39 33 -51 102h39q24 -62 91 -62q68 0 91 62z" />
    <glyph glyph-name="Edotaccent" unicode="&#x116;" horiz-adv-x="644" 
d="M553 688l11 -166h-37q-37 93 -52.5 110t-61.5 17h-164v-277h108q21 0 30.5 17.5t20.5 78.5h37v-233h-37q-11 61 -21 80t-30 19h-108v-259q0 -22 17.5 -29.5t67.5 -7.5h112q29 0 43.5 10t30 40.5t45.5 112.5h40l-15 -201h-545v32q53 7 69 15t16 28v538q0 19 -16 27t-69 16
v32h508zM337 885q28 0 47.5 -20t19.5 -48t-19.5 -47.5t-48.5 -19.5q-28 0 -47.5 19.5t-19.5 47.5q0 29 19.5 48.5t48.5 19.5z" />
    <glyph glyph-name="edotaccent" unicode="&#x117;" horiz-adv-x="558" 
d="M477 123l29 -16q-63 -119 -201 -119q-113 0 -185 74.5t-72 192.5t69 193t178 75q100 0 159 -70q28 -34 40 -73t14 -104h-345v-21q0 -106 43 -161t125 -55q49 0 81.5 19t64.5 65zM387 314v22q0 149 -98 149q-54 0 -84 -41t-40 -130h222zM300 737q28 0 47.5 -20t19.5 -48
t-19.5 -47.5t-48.5 -19.5q-28 0 -47.5 19.5t-19.5 47.5q0 29 20 48.5t48 19.5z" />
    <glyph glyph-name="Eogonek" unicode="&#x118;" horiz-adv-x="644" 
d="M577 -134l21 -21q-43 -47 -104 -47q-44 0 -72 22.5t-28 58.5q0 37 29 68.5t82 52.5h-460v32q53 7 69 15t16 28v538q0 19 -16 27t-69 16v32h507q7 -96 12 -166h-38q-31 82 -46 102.5t-45 22.5t-34 2h-21h-131v-277h108q21 0 30 18t20 78h37v-233h-37q-11 61 -20.5 80
t-29.5 19h-108v-259q0 -22 17.5 -29.5t67.5 -7.5h112q40 0 58.5 25t59.5 138h40l-15 -201h-45q-64 -54 -64 -109q0 -48 45 -48q24 0 52 23z" />
    <glyph glyph-name="eogonek" unicode="&#x119;" horiz-adv-x="558" 
d="M392 -134l20 -22q-41 -47 -104 -47q-44 0 -71.5 22.5t-27.5 58.5q0 60 88 111q-113 7 -177 73q-72 72 -72 193q0 118 69 193t178 75q100 0 159 -70q28 -34 40 -73t14 -104h-345v-21q0 -106 43 -161t125 -55q49 0 81.5 19t64.5 65l29 -16q-40 -81 -129 -109
q-35 -14 -59 -44t-24 -62q0 -49 45 -49q23 0 48 19q3 2 5 4zM166 314h221v22q0 149 -99 149q-53 0 -82 -41t-40 -130z" />
    <glyph glyph-name="Ecaron" unicode="&#x11a;" horiz-adv-x="644" 
d="M553 688l11 -166h-37q-37 93 -52.5 110t-61.5 17h-164v-277h108q21 0 30.5 17.5t20.5 78.5h37v-233h-37q-11 61 -21 80t-30 19h-108v-259q0 -22 17.5 -29.5t67.5 -7.5h112q29 0 43.5 10t30 40.5t45.5 112.5h40l-15 -201h-545v32q53 7 69 15t16 28v538q0 19 -16 27t-69 16
v32h508zM296 746l-105 154h37l103 -78l103 78h37l-105 -154h-70z" />
    <glyph glyph-name="ecaron" unicode="&#x11b;" horiz-adv-x="558" 
d="M477 123l29 -16q-63 -119 -201 -119q-113 0 -185 74.5t-72 192.5t69 193t178 75q100 0 159 -70q28 -34 40 -73t14 -104h-345v-21q0 -106 43 -161t125 -55q49 0 81.5 19t64.5 65zM387 314v22q0 149 -98 149q-54 0 -84 -41t-40 -130h222zM259 598l-105 154h37l103 -78
l103 78h37l-105 -154h-70z" />
    <glyph glyph-name="Gcircumflex" unicode="&#x11c;" horiz-adv-x="717" 
d="M635 30h-49q-59 -25 -99 -33.5t-95 -8.5q-154 0 -246.5 96.5t-92.5 257.5t96.5 259.5t255.5 98.5q103 0 204 -37v-166h-39q-37 97 -60 123q-36 40 -104 40q-114 0 -169.5 -79t-55.5 -240q0 -314 214 -314q58 0 93 20.5t35 53.5v136q0 20 -13.5 28.5t-55.5 12.5l-8 1l-9 1
v32h259v-32q-2 0 -6.5 -1t-7.5 -2q-28 -5 -37.5 -13t-9.5 -27v-207zM266 739l105 154h70l105 -154h-37l-103 78l-103 -78h-37z" />
    <glyph glyph-name="gcircumflex" unicode="&#x11d;" horiz-adv-x="573" 
d="M540 433h-94q22 -40 22 -84q0 -76 -58 -124.5t-149 -48.5q-27 0 -55 6q-14 3 -17 3q-23 0 -40 -14.5t-17 -34.5t16 -29t53 -9h152q82 0 126.5 -35t44.5 -100q0 -84 -73.5 -136t-192.5 -52q-106 0 -172 35.5t-66 91.5q0 65 106 103q-71 21 -71 86q0 76 99 113
q-95 50 -95 142q0 75 59 126t146 51q88 0 153 -55l89 43h34v-78zM332 0h-133q-39 0 -62 -23.5t-23 -62.5q0 -101 147 -101q81 0 127.5 30t46.5 83q0 74 -103 74zM266 485q-94 0 -94 -136q0 -135 93 -135q94 0 94 134q0 137 -93 137zM141 591l105 154h70l105 -154h-37
l-103 78l-103 -78h-37z" />
    <glyph glyph-name="Gbreve" unicode="&#x11e;" horiz-adv-x="717" 
d="M635 30h-49q-59 -25 -99 -33.5t-95 -8.5q-154 0 -246.5 96.5t-92.5 257.5t96.5 259.5t255.5 98.5q103 0 204 -37v-166h-39q-37 97 -60 123q-36 40 -104 40q-114 0 -169.5 -79t-55.5 -240q0 -314 214 -314q58 0 93 20.5t35 53.5v136q0 20 -13.5 28.5t-55.5 12.5l-8 1l-9 1
v32h259v-32q-2 0 -6.5 -1t-7.5 -2q-28 -5 -37.5 -13t-9.5 -27v-207zM488 879h39q-12 -69 -51 -102q-33 -30 -79 -30t-79 30q-39 33 -51 102h39q24 -62 91 -62q68 0 91 62z" />
    <glyph glyph-name="gbreve" unicode="&#x11f;" horiz-adv-x="573" 
d="M540 433h-94q22 -40 22 -84q0 -76 -58 -124.5t-149 -48.5q-27 0 -55 6q-14 3 -17 3q-23 0 -40 -14.5t-17 -34.5t16 -29t53 -9h152q82 0 126.5 -35t44.5 -100q0 -84 -73.5 -136t-192.5 -52q-106 0 -172 35.5t-66 91.5q0 65 106 103q-71 21 -71 86q0 76 99 113
q-95 50 -95 142q0 75 59 126t146 51q88 0 153 -55l89 43h34v-78zM332 0h-133q-39 0 -62 -23.5t-23 -62.5q0 -101 147 -101q81 0 127.5 30t46.5 83q0 74 -103 74zM266 485q-94 0 -94 -136q0 -135 93 -135q94 0 94 134q0 137 -93 137zM369 731h39q-12 -69 -51 -102
q-33 -30 -79 -30t-79 30q-39 33 -51 102h39q24 -62 91 -62q68 0 91 62z" />
    <glyph glyph-name="Gdotaccent" unicode="&#x120;" horiz-adv-x="717" 
d="M635 30h-49q-59 -25 -99 -33.5t-95 -8.5q-154 0 -246.5 96.5t-92.5 257.5t96.5 259.5t255.5 98.5q103 0 204 -37v-166h-39q-37 97 -60 123q-36 40 -104 40q-114 0 -169.5 -79t-55.5 -240q0 -314 214 -314q58 0 93 20.5t35 53.5v136q0 20 -13.5 28.5t-55.5 12.5l-8 1l-9 1
v32h259v-32q-2 0 -6.5 -1t-7.5 -2q-28 -5 -37.5 -13t-9.5 -27v-207zM391 885q28 0 47.5 -20t19.5 -48t-19.5 -47.5t-48.5 -19.5q-28 0 -47.5 19.5t-19.5 47.5q0 29 19.5 48.5t48.5 19.5z" />
    <glyph glyph-name="gdotaccent" unicode="&#x121;" horiz-adv-x="573" 
d="M540 433h-94q22 -40 22 -84q0 -76 -58 -124.5t-149 -48.5q-27 0 -55 6q-14 3 -17 3q-23 0 -40 -14.5t-17 -34.5t16 -29t53 -9h152q82 0 126.5 -35t44.5 -100q0 -84 -73.5 -136t-192.5 -52q-106 0 -172 35.5t-66 91.5q0 65 106 103q-71 21 -71 86q0 76 99 113
q-95 50 -95 142q0 75 59 126t146 51q88 0 153 -55l89 43h34v-78zM332 0h-133q-39 0 -62 -23.5t-23 -62.5q0 -101 147 -101q81 0 127.5 30t46.5 83q0 74 -103 74zM266 485q-94 0 -94 -136q0 -135 93 -135q94 0 94 134q0 137 -93 137zM281 737q28 0 47.5 -20t19.5 -48
t-19.5 -47.5t-48.5 -19.5q-28 0 -47.5 19.5t-19.5 47.5q0 29 19.5 48.5t48.5 19.5z" />
    <glyph glyph-name="Gcommaaccent" unicode="&#x122;" horiz-adv-x="717" 
d="M635 30h-49q-59 -25 -99 -33.5t-95 -8.5q-154 0 -246.5 96.5t-92.5 257.5t96.5 259.5t255.5 98.5q103 0 204 -37v-166h-39q-37 97 -60 123q-36 40 -104 40q-114 0 -169.5 -79t-55.5 -240q0 -314 214 -314q58 0 93 20.5t35 53.5v136q0 20 -13.5 28.5t-55.5 12.5l-8 1l-9 1
v32h259v-32q-2 0 -6.5 -1t-7.5 -2q-28 -5 -37.5 -13t-9.5 -27v-207zM324 -268l-12 28q80 27 86 84q-12 -3 -24 -3q-22 0 -37.5 15.5t-15.5 37.5q0 23 16 38t41 15q32 0 52.5 -24t20.5 -62q0 -100 -127 -129z" />
    <glyph glyph-name="gcommaaccent" unicode="&#x123;" horiz-adv-x="573" 
d="M540 433h-94q22 -40 22 -84q0 -76 -58 -124.5t-149 -48.5q-27 0 -55 6q-14 3 -17 3q-23 0 -40 -14.5t-17 -34.5t16 -29t53 -9h152q82 0 126.5 -35t44.5 -100q0 -84 -73.5 -136t-192.5 -52q-106 0 -172 35.5t-66 91.5q0 65 106 103q-71 21 -71 86q0 76 99 113
q-95 50 -95 142q0 75 59 126t146 51q88 0 153 -55l89 43h34v-78zM332 0h-133q-39 0 -62 -23.5t-23 -62.5q0 -101 147 -101q81 0 127.5 30t46.5 83q0 74 -103 74zM266 485q-94 0 -94 -136q0 -135 93 -135q94 0 94 134q0 137 -93 137zM342 795l11 -24q-44 -21 -64 -45t-21 -58
q11 4 24 4q21 0 36 -14.5t15 -35.5q0 -22 -15.5 -36t-39.5 -14q-32 0 -52 23.5t-20 61.5q0 95 126 138z" />
    <glyph glyph-name="Hcircumflex" unicode="&#x124;" horiz-adv-x="809" 
d="M249 379h311v234q0 19 -15.5 27t-68.5 16v32h288v-32q-54 -7 -69.5 -15t-15.5 -28v-538q0 -20 16 -28t69 -15v-32h-288v32q53 7 68.5 15t15.5 28v266h-311v-266q0 -20 16 -28t69 -15v-32h-289v32q53 7 69 15t16 28v538q0 19 -16 27t-69 16v32h289v-32q-54 -7 -69.5 -15
t-15.5 -28v-234zM265 739l105 154h70l105 -154h-37l-103 78l-103 -78h-37z" />
    <glyph glyph-name="hcircumflex" unicode="&#x125;" horiz-adv-x="633" 
d="M216 776v-347q73 94 177 94q70 0 110.5 -39t40.5 -106v-314q0 -16 10 -22t39 -10l16 -2v-30h-239v30q40 5 50.5 11t10.5 23v303q0 42 -23.5 66.5t-64.5 24.5q-52 0 -89.5 -32.5t-37.5 -76.5v-285q0 -17 10.5 -23t50.5 -11v-30h-239v30q45 5 55 10.5t10 23.5v585
q0 25 -17 35t-63 12v30l154 50h39zM30 828l105 154h70l105 -154h-37l-103 78l-103 -78h-37z" />
    <glyph glyph-name="Hbar" unicode="&#x126;" horiz-adv-x="809" 
d="M130 498h-86v39h86v76q0 19 -16 27t-69 16v32h289v-32q-54 -7 -69.5 -15t-15.5 -28v-76h311v76q0 19 -15.5 27t-68.5 16v32h288v-32q-54 -7 -69.5 -15t-15.5 -28v-76h86v-39h-86v-423q0 -20 16 -28t69 -15v-32h-288v32q53 7 68.5 15t15.5 28v266h-311v-266q0 -20 16 -28
t69 -15v-32h-289v32q53 7 69 15t16 28v423zM249 379h311v119h-311v-119z" />
    <glyph glyph-name="hbar" unicode="&#x127;" horiz-adv-x="633" 
d="M104 593h-83v39h83v18q0 24 -17 34t-63 12v31l153 49h39v-144h124v-39h-124v-164q74 94 177 94q70 0 110.5 -39t40.5 -106v-314q0 -16 10 -22t39 -10l16 -2v-30h-238v30q40 5 50.5 11t10.5 23v303q0 42 -24.5 67t-65.5 25q-51 0 -88.5 -33t-37.5 -77v-285q0 -17 10.5 -23
t50.5 -11v-30h-238v30q45 5 55 10.5t10 23.5v529z" />
    <glyph glyph-name="Imacron" unicode="&#x12a;" horiz-adv-x="392" 
d="M137 75v538q0 20 -16.5 28t-72.5 15v32h297v-32q-56 -7 -72.5 -15t-16.5 -28v-538q0 -20 16.5 -28t72.5 -15v-32h-297v32q56 7 72.5 15t16.5 28zM61 782v63h270v-63h-270z" />
    <glyph glyph-name="imacron" unicode="&#x12b;" horiz-adv-x="314" 
d="M181 518h39v-454q0 -17 11 -23t55 -11v-30h-247v30q47 5 57.5 10.5t10.5 23.5v329q0 25 -17.5 34.5t-64.5 10.5v30zM13 634v63h270v-63h-270z" />
    <glyph glyph-name="ibreve" unicode="&#x12d;" horiz-adv-x="314" 
d="M181 518h39v-454q0 -17 11 -23t55 -11v-30h-247v30q47 5 57.5 10.5t10.5 23.5v329q0 25 -17.5 34.5t-64.5 10.5v30zM248 731h39q-12 -69 -51 -102q-33 -30 -79 -30t-79 30q-39 33 -51 102h39q24 -62 91 -62q68 0 91 62z" />
    <glyph glyph-name="Iogonek" unicode="&#x12e;" horiz-adv-x="392" 
d="M344 0h-76q-64 -54 -64 -109q0 -48 45 -48q23 0 48 19q3 2 5 4l16 -16q2 -3 4 -5q-41 -47 -104 -47q-44 0 -71.5 22.5t-27.5 58.5q0 37 28.5 68.5t81.5 52.5h-181v32q55 7 71.5 15t16.5 28v538q0 20 -16.5 28t-71.5 15v32h296v-32q-56 -7 -72.5 -15t-16.5 -28v-538
q0 -20 16.5 -28t72.5 -15v-32z" />
    <glyph glyph-name="iogonek" unicode="&#x12f;" horiz-adv-x="314" 
d="M255 -134l21 -22q-41 -47 -105 -47q-44 0 -71.5 22.5t-27.5 59.5q0 75 110 121h-143v30l17 2q32 4 42 10t10 22v329q0 25 -17.5 34.5t-65.5 10.5v30l156 50h39v-454q0 -17 11 -23t55 -11v-30h-64q-65 -53 -65 -109q0 -48 46 -48q24 0 52 23zM162 767q28 0 47.5 -20
t19.5 -48t-20 -47.5t-48 -19.5t-47.5 19.5t-19.5 47.5q0 29 20 48.5t48 19.5z" />
    <glyph glyph-name="Idotaccent" unicode="&#x130;" horiz-adv-x="392" 
d="M137 75v538q0 20 -16.5 28t-72.5 15v32h297v-32q-56 -7 -72.5 -15t-16.5 -28v-538q0 -20 16.5 -28t72.5 -15v-32h-297v32q56 7 72.5 15t16.5 28zM196 885q28 0 47.5 -20t19.5 -48t-19.5 -47.5t-48.5 -19.5q-28 0 -47.5 19.5t-19.5 47.5q0 29 20 48.5t48 19.5z" />
    <glyph glyph-name="dotlessi" unicode="&#x131;" horiz-adv-x="314" 
d="M181 518h39v-454q0 -17 11 -23t55 -11v-30h-247v30q47 5 57.5 10.5t10.5 23.5v329q0 25 -17.5 34.5t-64.5 10.5v30z" />
    <glyph glyph-name="Jcircumflex" unicode="&#x134;" horiz-adv-x="392" 
d="M21 -50l33 -97q50 5 69.5 37t19.5 109v614q0 20 -16.5 28t-72.5 15v32h293v-32q-54 -7 -69.5 -15t-15.5 -28v-578q0 -100 -58 -160t-153 -60q-55 0 -89.5 22t-34.5 57q0 25 18 40.5t47 15.5h29zM55 739l105 154h70l105 -154h-37l-103 78l-103 -78h-37z" />
    <glyph glyph-name="jcircumflex" unicode="&#x135;" horiz-adv-x="310" 
d="M221 518v-522q0 -100 -51.5 -161t-135.5 -61q-48 0 -77.5 17.5t-29.5 46.5q0 22 15.5 35t42.5 13h29l27 -74q37 4 52.5 38t15.5 112v431q0 25 -17.5 34.5t-65.5 10.5v30l156 50h39zM15 591l105 154h70l105 -154h-37l-103 78l-103 -78h-37z" />
    <glyph glyph-name="Kcommaaccent" unicode="&#x136;" horiz-adv-x="750" 
d="M249 301l275 303q16 17 16 27q0 17 -68 25v32h209v-32q-35 -5 -51 -12.5t-35 -26.5l-186 -200l232 -333q20 -28 36.5 -38t52.5 -14v-32h-274v32q59 8 59 24q0 6 -9 20l-177 255l-80 -86v-170q0 -20 15.5 -28t67.5 -15v-32h-287v32q53 7 69 15t16 28v538q0 19 -16 27
t-69 16v32h289v-32q-54 -7 -69.5 -15t-15.5 -28v-312zM327 -268l-12 28q80 27 86 84q-12 -3 -24 -3q-23 0 -38 15.5t-15 37.5q0 23 16 38t41 15q32 0 52.5 -24t20.5 -62q0 -100 -127 -129z" />
    <glyph glyph-name="kcommaaccent" unicode="&#x137;" horiz-adv-x="615" 
d="M23 696v30l154 50h39v-532l183 186q17 17 17 27q0 17 -51 24v30h192v-30q-54 -8 -78 -32l-128 -126l177 -257q13 -18 25.5 -25t41.5 -11v-30h-236v30q29 5 38 8.5t9 10.5q0 9 -8 20l-122 181l-60 -59v-127q0 -17 10.5 -23t50.5 -11v-30h-239v30q45 5 55 10.5t10 23.5v585
q0 25 -17 35t-63 12zM251 -268l-12 28q80 27 86 84q-12 -3 -24 -3q-23 0 -38 15.5t-15 37.5q0 23 16 38t41 15q32 0 52.5 -24t20.5 -62q0 -100 -127 -129z" />
    <glyph glyph-name="Lacute" unicode="&#x139;" horiz-adv-x="622" 
d="M550 208h41l-18 -208h-528v32q53 7 69 15t16 28v538q0 19 -16 27t-69 16v32h293v-32q-56 -7 -72.5 -15t-16.5 -28v-538q0 -22 17.5 -29.5t67.5 -7.5h99q21 0 31 2.5t24 22.5t25.5 49t36.5 96zM162 727l70 136q13 26 24.5 35.5t29.5 9.5q20 0 33.5 -13.5t13.5 -33.5
q0 -28 -37 -57l-97 -77h-37z" />
    <glyph glyph-name="lacute" unicode="&#x13a;" horiz-adv-x="314" 
d="M23 696v30l157 50h39v-712q0 -17 11 -23t55 -11v-30h-249v30l17 2q33 4 43 10t10 22v585q0 25 -17.5 35t-65.5 12zM109 826l70 136q13 26 24.5 35.5t29.5 9.5q20 0 33.5 -13.5t13.5 -33.5q0 -28 -37 -57l-97 -77h-37z" />
    <glyph glyph-name="Lcommaaccent" unicode="&#x13b;" horiz-adv-x="622" 
d="M550 208h41l-18 -208h-528v32q53 7 69 15t16 28v538q0 19 -16 27t-69 16v32h293v-32q-56 -7 -72.5 -15t-16.5 -28v-538q0 -22 17.5 -29.5t67.5 -7.5h99q21 0 31 2.5t24 22.5t25.5 49t36.5 96zM267 -268l-12 28q80 27 86 84q-12 -3 -24 -3q-23 0 -38 15.5t-15 37.5
q0 23 16 38t41 15q32 0 52.5 -24t20.5 -62q0 -100 -127 -129z" />
    <glyph glyph-name="lcommaaccent" unicode="&#x13c;" horiz-adv-x="314" 
d="M24 696v30l157 50h39v-712q0 -17 11 -23t55 -11v-30h-249v30l17 2q33 4 43 10t10 22v585q0 25 -17.5 35t-65.5 12zM103 -268l-12 28q80 27 86 84q-12 -3 -24 -3q-23 0 -38 15.5t-15 37.5q0 23 16 38t41 15q32 0 52.5 -24t20.5 -62q0 -100 -127 -129z" />
    <glyph glyph-name="Lcaron" unicode="&#x13d;" horiz-adv-x="622" 
d="M406 498l-12 28q80 28 86 84q-11 -3 -23 -3q-23 0 -38.5 15t-15.5 38t16 38.5t41 15.5q32 0 52.5 -24t20.5 -62q0 -101 -127 -130zM550 208h41l-18 -208h-528v32q53 7 69 15t16 28v538q0 19 -16 27t-69 16v32h293v-32q-56 -7 -72.5 -15t-16.5 -28v-538q0 -22 17.5 -29.5
t67.5 -7.5h99q21 0 31 2.5t24 22.5t25.5 49t36.5 96z" />
    <glyph glyph-name="lcaron" unicode="&#x13e;" horiz-adv-x="433" 
d="M281 562l-12 28q80 25 86 83q-10 -3 -23 -3q-23 0 -38.5 15t-15.5 38t16 38.5t41 15.5q32 0 52.5 -24t20.5 -62q0 -102 -127 -129zM24 696v30l157 50h39v-712q0 -17 11 -23t55 -11v-30h-249v30l17 2q33 4 43 10t10 22v585q0 25 -17.5 35t-65.5 12z" />
    <glyph glyph-name="Lslash" unicode="&#x141;" horiz-adv-x="610" 
d="M43 224v46l87 34v309q0 19 -16 27t-69 16v32h293v-32q-56 -7 -72.5 -15t-16.5 -28v-262l199 79v-46l-199 -79v-230q0 -22 17.5 -29.5t67.5 -7.5h99q21 0 31 2.5t24 22.5t25.5 49t36.5 96h41l-18 -208h-528v32q53 7 69 15t16 28v183z" />
    <glyph glyph-name="lslash" unicode="&#x142;" horiz-adv-x="314" 
d="M20 262v51l86 59v277q0 25 -17.5 35t-65.5 12v30l157 50h39v-325l81 56v-51l-81 -56v-336q0 -17 11 -23t55 -11v-30h-249v30l17 2q33 4 43 10t10 22v257z" />
    <glyph glyph-name="Nacute" unicode="&#x143;" horiz-adv-x="757" 
d="M600 -7l-418 588h-4v-506q0 -22 14.5 -29t71.5 -14v-32h-219v32q54 7 61 9q25 8 25 34v537q0 21 -13.5 29.5t-55.5 12.5q-3 1 -8.5 1.5t-8.5 0.5v32h202l349 -490h4v415q0 20 -16 28t-70 15v32h210v-32q-48 -7 -62 -15t-14 -28v-620h-48zM356 727l70 136q14 26 25 35.5
t29 9.5q20 0 33.5 -13.5t13.5 -33.5q0 -28 -37 -57l-97 -77h-37z" />
    <glyph glyph-name="nacute" unicode="&#x144;" horiz-adv-x="633" 
d="M163 518h34l10 -100q76 105 186 105q70 0 110.5 -39t40.5 -106v-314q0 -16 10 -22t39 -10l16 -2v-30h-239v30q40 5 50.5 11t10.5 23v303q0 42 -23.5 66.5t-64.5 24.5q-52 0 -89.5 -32.5t-37.5 -76.5v-285q0 -17 10.5 -23t50.5 -11v-30h-239v30q43 5 54 11t11 23v329
q0 25 -17 34.5t-62 10.5v30zM279 579l70 136q13 26 24.5 35.5t29.5 9.5q20 0 33.5 -13.5t13.5 -33.5q0 -28 -37 -57l-97 -77h-37z" />
    <glyph glyph-name="Ncommaaccent" unicode="&#x145;" horiz-adv-x="757" 
d="M600 -7l-418 588h-4v-506q0 -22 14.5 -29t71.5 -14v-32h-219v32q54 7 61 9q25 8 25 34v537q0 21 -13.5 29.5t-55.5 12.5q-3 1 -8.5 1.5t-8.5 0.5v32h202l349 -490h4v415q0 20 -16 28t-70 15v32h210v-32q-48 -7 -62 -15t-14 -28v-620h-48zM342 -268l-12 28q80 27 86 84
q-12 -3 -24 -3q-22 0 -37.5 15.5t-15.5 37.5q0 23 16 38t41 15q32 0 52.5 -24t20.5 -62q0 -100 -127 -129z" />
    <glyph glyph-name="ncommaaccent" unicode="&#x146;" horiz-adv-x="633" 
d="M163 518h34l10 -100q76 105 186 105q70 0 110.5 -39t40.5 -106v-314q0 -16 10 -22t39 -10l16 -2v-30h-239v30q40 5 50.5 11t10.5 23v303q0 42 -23.5 66.5t-64.5 24.5q-52 0 -89.5 -32.5t-37.5 -76.5v-285q0 -17 10.5 -23t50.5 -11v-30h-239v30q43 5 54 11t11 23v329
q0 25 -17 34.5t-62 10.5v30zM261 -268l-12 28q80 27 86 84q-12 -3 -24 -3q-23 0 -38 15.5t-15 37.5q0 23 16 38t41 15q32 0 52.5 -24t20.5 -62q0 -100 -127 -129z" />
    <glyph glyph-name="Ncaron" unicode="&#x147;" horiz-adv-x="757" 
d="M600 -7l-418 588h-4v-506q0 -22 14.5 -29t71.5 -14v-32h-219v32q54 7 61 9q25 8 25 34v537q0 21 -13.5 29.5t-55.5 12.5q-3 1 -8.5 1.5t-8.5 0.5v32h202l349 -490h4v415q0 20 -16 28t-70 15v32h210v-32q-48 -7 -62 -15t-14 -28v-620h-48zM358 746l-105 154h37l103 -78
l103 78h37l-105 -154h-70z" />
    <glyph glyph-name="ncaron" unicode="&#x148;" horiz-adv-x="633" 
d="M163 518h34l10 -100q76 105 186 105q70 0 110.5 -39t40.5 -106v-314q0 -16 10 -22t39 -10l16 -2v-30h-239v30q40 5 50.5 11t10.5 23v303q0 42 -23.5 66.5t-64.5 24.5q-52 0 -89.5 -32.5t-37.5 -76.5v-285q0 -17 10.5 -23t50.5 -11v-30h-239v30q43 5 54 11t11 23v329
q0 25 -17 34.5t-62 10.5v30zM290 598l-105 154h37l103 -78l103 78h37l-105 -154h-70z" />
    <glyph glyph-name="Omacron" unicode="&#x14c;" horiz-adv-x="757" 
d="M378 700q131 0 226 -95q101 -101 101 -262q0 -153 -94 -254t-236 -101q-59 0 -118.5 25.5t-103.5 69.5q-100 100 -100 260q0 159 101 262q44 45 103.5 70t120.5 25zM380 660q-199 0 -199 -317q0 -316 196 -316q102 0 150.5 77.5t48.5 239.5q0 316 -196 316zM244 782v63
h270v-63h-270z" />
    <glyph glyph-name="omacron" unicode="&#x14d;" horiz-adv-x="603" 
d="M301 523q89 0 163 -63q92 -75 92 -206q0 -142 -110 -217q-70 -49 -147 -49q-38 0 -82 17t-78 45q-91 77 -91 205q0 143 109 219q70 49 144 49zM302 485q-65 0 -101.5 -61t-36.5 -169q0 -107 36.5 -168t100.5 -61q66 0 102 60t36 170q0 107 -36.5 168t-100.5 61zM167 634
v63h270v-63h-270z" />
    <glyph glyph-name="Ohungarumlaut" unicode="&#x150;" horiz-adv-x="757" 
d="M378 700q131 0 226 -95q101 -101 101 -262q0 -153 -94 -254t-236 -101q-59 0 -118.5 25.5t-103.5 69.5q-100 100 -100 260q0 159 101 262q44 45 103.5 70t120.5 25zM380 660q-199 0 -199 -317q0 -316 196 -316q102 0 150.5 77.5t48.5 239.5q0 316 -196 316zM278 727
l57 136q11 25 21.5 35t26.5 10q19 0 31 -13t12 -34q0 -16 -6 -27t-25 -30l-80 -77h-37zM436 727l56 136q19 45 49 45q19 0 31 -13t12 -34q0 -17 -6 -27.5t-26 -29.5l-79 -77h-37z" />
    <glyph glyph-name="ohungarumlaut" unicode="&#x151;" horiz-adv-x="603" 
d="M301 523q89 0 163 -63q92 -75 92 -206q0 -142 -110 -217q-70 -49 -147 -49q-38 0 -82 17t-78 45q-91 77 -91 205q0 143 109 219q70 49 144 49zM302 485q-65 0 -101.5 -61t-36.5 -169q0 -107 36.5 -168t100.5 -61q66 0 102 60t36 170q0 107 -36.5 168t-100.5 61zM204 579
l57 136q11 25 21.5 35t26.5 10q19 0 31 -13t12 -34q0 -16 -6 -27t-25 -30l-80 -77h-37zM362 579l56 136q19 45 49 45q19 0 31 -13t12 -34q0 -17 -6 -27.5t-26 -29.5l-79 -77h-37z" />
    <glyph glyph-name="OE" unicode="&#x152;" horiz-adv-x="985" 
d="M931 0h-535q-157 0 -250 93.5t-93 251.5q0 157 93 250t250 93h498l13 -166h-38q-37 92 -52.5 109.5t-62.5 17.5h-161v-277h107q20 0 30 18.5t20 77.5h36v-233h-36q-11 61 -20.5 80t-29.5 19h-107v-259q0 -22 17.5 -29.5t67.5 -7.5h109q22 0 34 4t26 22.5t26 47.5t34 89
h39zM476 39v576q0 19 -15 27t-52 8q-122 0 -175 -71t-53 -234q0 -161 53 -233.5t172 -72.5h70z" />
    <glyph glyph-name="oe" unicode="&#x153;" horiz-adv-x="950" 
d="M869 123l29 -16q-65 -119 -202 -119q-130 0 -201 110q-79 -110 -194 -110q-87 0 -162 62q-91 76 -91 205q0 142 109 219q70 49 144 49q114 0 193 -110q68 110 192 110q101 0 160 -71q28 -33 40 -72t14 -104h-345v-21q0 -106 42.5 -161t124.5 -55q49 0 82 19t65 65z
M302 485q-65 0 -101.5 -61t-36.5 -169q0 -107 36.5 -168t100.5 -61q66 0 102 60t36 170q0 107 -36.5 168t-100.5 61zM778 314v22q0 149 -98 149q-53 0 -82.5 -41t-40.5 -130h221z" />
    <glyph glyph-name="Racute" unicode="&#x154;" horiz-adv-x="719" 
d="M45 688h295q129 0 195.5 -45t66.5 -132q0 -144 -193 -174q41 -9 70 -33.5t60 -74.5l92 -154q15 -24 29.5 -31.5t57.5 -12.5v-31h-181l-154 264q-19 34 -42.5 46t-68.5 12h-23v-247q0 -20 16.5 -28t71.5 -15v-32h-292v32q53 7 69 15t16 28v538q0 19 -16 27t-69 16v32z
M249 650v-290h82q77 0 113 35.5t36 110.5q0 74 -35 109t-111 35h-85zM275 727l70 136q13 26 24.5 35.5t29.5 9.5q20 0 33.5 -13.5t13.5 -33.5q0 -28 -37 -57l-97 -77h-37z" />
    <glyph glyph-name="racute" unicode="&#x155;" horiz-adv-x="468" 
d="M163 518h34l11 -106q71 111 157 111q36 0 56.5 -18t20.5 -50t-20.5 -50t-57.5 -18h-30v50q-9 9 -23 9q-39 0 -67 -35t-28 -84v-263q0 -17 12 -23t58 -11v-30h-248v30q43 5 54 11t11 23v329q0 25 -17 34.5t-62 10.5v30zM211 579l70 136q13 26 24.5 35.5t29.5 9.5
q20 0 33.5 -13.5t13.5 -33.5q0 -28 -37 -57l-97 -77h-37z" />
    <glyph glyph-name="Rcommaaccent" unicode="&#x156;" horiz-adv-x="719" 
d="M45 688h295q129 0 195.5 -45t66.5 -132q0 -144 -193 -174q41 -9 70 -33.5t60 -74.5l92 -154q15 -24 29.5 -31.5t57.5 -12.5v-31h-181l-154 264q-19 34 -42.5 46t-68.5 12h-23v-247q0 -20 16.5 -28t71.5 -15v-32h-292v32q53 7 69 15t16 28v538q0 19 -16 27t-69 16v32z
M249 650v-290h82q77 0 113 35.5t36 110.5q0 74 -35 109t-111 35h-85zM320 -268l-12 28q80 27 86 84q-12 -3 -24 -3q-22 0 -37.5 15.5t-15.5 37.5q0 23 16 38t41 15q32 0 52.5 -24t20.5 -62q0 -100 -127 -129z" />
    <glyph glyph-name="rcommaaccent" unicode="&#x157;" horiz-adv-x="468" 
d="M163 518h34l11 -106q71 111 157 111q36 0 56.5 -18t20.5 -50t-20.5 -50t-57.5 -18h-30v50q-9 9 -23 9q-39 0 -67 -35t-28 -84v-263q0 -17 12 -23t58 -11v-30h-248v30q43 5 54 11t11 23v329q0 25 -17 34.5t-62 10.5v30zM102 -268l-12 28q80 27 86 84q-12 -3 -24 -3
q-22 0 -37.5 15.5t-15.5 37.5q0 23 16 38t41 15q32 0 52.5 -24t20.5 -62q0 -100 -127 -129z" />
    <glyph glyph-name="Rcaron" unicode="&#x158;" horiz-adv-x="719" 
d="M45 688h295q129 0 195.5 -45t66.5 -132q0 -144 -193 -174q41 -9 70 -33.5t60 -74.5l92 -154q15 -24 29.5 -31.5t57.5 -12.5v-31h-181l-154 264q-19 34 -42.5 46t-68.5 12h-23v-247q0 -20 16.5 -28t71.5 -15v-32h-292v32q53 7 69 15t16 28v538q0 19 -16 27t-69 16v32z
M249 650v-290h82q77 0 113 35.5t36 110.5q0 74 -35 109t-111 35h-85zM283 746l-105 154h37l103 -78l103 78h37l-105 -154h-70z" />
    <glyph glyph-name="rcaron" unicode="&#x159;" horiz-adv-x="468" 
d="M163 518h34l11 -106q71 111 157 111q36 0 56.5 -18t20.5 -50t-20.5 -50t-57.5 -18h-30v50q-9 9 -23 9q-39 0 -67 -35t-28 -84v-263q0 -17 12 -23t58 -11v-30h-248v30q43 5 54 11t11 23v329q0 25 -17 34.5t-62 10.5v30zM208 598l-105 154h37l103 -78l103 78h37l-105 -154
h-70z" />
    <glyph glyph-name="Sacute" unicode="&#x15a;" horiz-adv-x="560" 
d="M473 529h-39q-31 82 -58.5 106t-89.5 24q-64 0 -100 -30t-36 -83q0 -63 57 -98q21 -13 37.5 -20t88.5 -30q104 -34 146.5 -80.5t42.5 -126.5q0 -94 -66 -148.5t-179 -54.5q-87 0 -219 41v171h41q41 -110 74.5 -141.5t107.5 -31.5q72 0 109.5 30.5t37.5 88.5q0 74 -63 111
q-32 18 -115 46q-101 35 -144.5 81t-43.5 119q0 90 61.5 143t166.5 53q79 0 183 -30v-140zM246 727l70 136q13 26 24.5 35.5t29.5 9.5q20 0 33.5 -13.5t13.5 -33.5q0 -28 -37 -57l-97 -77h-37z" />
    <glyph glyph-name="sacute" unicode="&#x15b;" horiz-adv-x="486" 
d="M406 375h-41q-22 64 -46.5 86t-73.5 22q-46 0 -71 -19.5t-25 -55.5q0 -44 47 -68q28 -14 95 -35q82 -28 115.5 -62.5t33.5 -90.5q0 -75 -54.5 -119.5t-145.5 -44.5q-82 0 -172 37v130h42q26 -77 53 -102.5t81 -25.5q51 0 80 22t29 62q0 46 -47 71q-16 9 -90 35
q-82 29 -115.5 64t-33.5 93q0 70 50.5 109.5t138.5 39.5q73 0 150 -29v-119zM206 579l70 136q13 26 24.5 35.5t29.5 9.5q20 0 33.5 -13.5t13.5 -33.5q0 -28 -37 -57l-97 -77h-37z" />
    <glyph glyph-name="Scircumflex" unicode="&#x15c;" horiz-adv-x="560" 
d="M473 529h-39q-31 82 -58.5 106t-89.5 24q-64 0 -100 -30t-36 -83q0 -63 57 -98q21 -13 37.5 -20t88.5 -30q104 -34 146.5 -80.5t42.5 -126.5q0 -94 -66 -148.5t-179 -54.5q-87 0 -219 41v171h41q41 -110 74.5 -141.5t107.5 -31.5q72 0 109.5 30.5t37.5 88.5q0 74 -63 111
q-32 18 -115 46q-101 35 -144.5 81t-43.5 119q0 90 61.5 143t166.5 53q79 0 183 -30v-140zM158 739l105 154h70l105 -154h-37l-103 78l-103 -78h-37z" />
    <glyph glyph-name="scircumflex" unicode="&#x15d;" horiz-adv-x="486" 
d="M406 375h-41q-22 64 -46.5 86t-73.5 22q-46 0 -71 -19.5t-25 -55.5q0 -44 47 -68q28 -14 95 -35q82 -28 115.5 -62.5t33.5 -90.5q0 -75 -54.5 -119.5t-145.5 -44.5q-82 0 -172 37v130h42q26 -77 53 -102.5t81 -25.5q51 0 80 22t29 62q0 46 -47 71q-16 9 -90 35
q-82 29 -115.5 64t-33.5 93q0 70 50.5 109.5t138.5 39.5q73 0 150 -29v-119zM115 591l105 154h70l105 -154h-37l-103 78l-103 -78h-37z" />
    <glyph glyph-name="Scedilla" unicode="&#x15e;" horiz-adv-x="560" 
d="M297 -12l-22 -38q57 -4 83.5 -23t26.5 -56q0 -40 -33.5 -63.5t-89.5 -23.5q-69 0 -115 34l12 21q36 -16 80 -16q34 0 53 11t19 31q0 38 -73 39l-21 19l38 66q-79 4 -197 41v170h41q41 -110 74.5 -141.5t108.5 -31.5q71 0 108.5 30.5t37.5 89.5q0 73 -63 110
q-27 16 -114 46q-103 35 -146 81t-43 119q0 90 62 143t166 53q79 0 183 -30v-140h-39q-31 82 -58.5 106t-89.5 24q-64 0 -100 -30t-36 -83q0 -63 57 -98q21 -13 37.5 -20t88.5 -30q104 -34 146.5 -80.5t42.5 -126.5t-51 -134q-31 -32 -70.5 -48t-103.5 -21z" />
    <glyph glyph-name="scedilla" unicode="&#x15f;" horiz-adv-x="486" 
d="M260 -11l-23 -39q57 -4 83.5 -23t26.5 -56q0 -40 -33.5 -63.5t-89.5 -23.5q-67 0 -115 34l12 21q36 -16 80 -16q34 0 53 11t19 31q0 38 -73 39l-21 19l38 66q-75 4 -149 36v131h42q26 -77 53 -103t82 -26q52 0 81.5 22.5t29.5 61.5q0 34 -22.5 53.5t-87.5 42.5
q-73 24 -109 45q-70 41 -70 122q0 70 50.5 109.5t138.5 39.5q73 0 150 -29v-119h-41q-22 64 -46.5 86t-73.5 22q-47 0 -72.5 -19.5t-25.5 -54.5q0 -43 48 -69q24 -12 96 -35q82 -28 115.5 -62.5t33.5 -92.5q0 -61 -40 -104q-44 -47 -140 -57z" />
    <glyph glyph-name="Scaron" unicode="&#x160;" horiz-adv-x="560" 
d="M473 529h-39q-31 82 -58.5 106t-89.5 24q-64 0 -100 -30t-36 -83q0 -63 57 -98q21 -13 37.5 -20t88.5 -30q104 -34 146.5 -80.5t42.5 -126.5q0 -94 -66 -148.5t-179 -54.5q-87 0 -219 41v171h41q41 -110 74.5 -141.5t107.5 -31.5q72 0 109.5 30.5t37.5 88.5q0 74 -63 111
q-32 18 -115 46q-101 35 -144.5 81t-43.5 119q0 90 61.5 143t166.5 53q79 0 183 -30v-140zM263 746l-105 154h37l103 -78l103 78h37l-105 -154h-70z" />
    <glyph glyph-name="scaron" unicode="&#x161;" horiz-adv-x="486" 
d="M406 375h-41q-22 64 -46.5 86t-73.5 22q-46 0 -71 -19.5t-25 -55.5q0 -44 47 -68q28 -14 95 -35q82 -28 115.5 -62.5t33.5 -90.5q0 -75 -54.5 -119.5t-145.5 -44.5q-82 0 -172 37v130h42q26 -77 53 -102.5t81 -25.5q51 0 80 22t29 62q0 46 -47 71q-16 9 -90 35
q-82 29 -115.5 64t-33.5 93q0 70 50.5 109.5t138.5 39.5q73 0 150 -29v-119zM217 598l-105 154h37l103 -78l103 78h37l-105 -154h-70z" />
    <glyph glyph-name="Tcommaaccent" unicode="&#x162;" horiz-adv-x="674" 
d="M277 649h-85q-25 0 -36 -2t-24.5 -19t-23 -40.5t-30.5 -82.5h-42l9 183h584l9 -183h-42q-22 59 -31 82.5t-23 40.5t-24.5 19t-35.5 2h-85v-572q0 -20 18 -29t73 -16v-32h-302v32q55 7 73 16t18 29v572zM273 -268l-12 28q80 27 86 84q-12 -3 -24 -3q-23 0 -38 15.5
t-15 37.5q0 23 16 38t41 15q32 0 52.5 -24t20.5 -62q0 -100 -127 -129z" />
    <glyph glyph-name="tcommaaccent" unicode="&#x163;" horiz-adv-x="367" 
d="M326 100l29 -11q-38 -101 -136 -101q-61 0 -94.5 35t-33.5 97v345h-70v41l26 4q51 7 78 39.5t39 100.5h37v-139h129v-46h-129v-356q0 -69 55 -69q22 0 38 13.5t32 46.5zM142 -268l-12 28q80 27 86 84q-12 -3 -24 -3q-22 0 -37.5 15.5t-15.5 37.5q0 23 16 38t41 15
q32 0 52.5 -24t20.5 -62q0 -100 -127 -129z" />
    <glyph glyph-name="Tcaron" unicode="&#x164;" horiz-adv-x="674" 
d="M277 649h-85q-25 0 -36 -2t-24.5 -19t-23 -40.5t-30.5 -82.5h-42l9 183h584l9 -183h-42q-22 59 -31 82.5t-23 40.5t-24.5 19t-35.5 2h-85v-572q0 -20 18 -29t73 -16v-32h-302v32q55 7 73 16t18 29v572zM302 746l-105 154h37l103 -78l103 78h37l-105 -154h-70z" />
    <glyph glyph-name="tcaron" unicode="&#x165;" horiz-adv-x="435" 
d="M283 567l-13 28q82 27 86 83q-9 -3 -23 -3q-23 0 -38.5 15.5t-15.5 37.5q0 23 16 38.5t41 15.5q32 0 53 -24.5t21 -61.5q0 -102 -127 -129zM326 100l29 -11q-38 -101 -136 -101q-61 0 -94.5 35t-33.5 97v345h-70v41l26 4q51 7 78 39.5t39 100.5h37v-139h129v-46h-129
v-356q0 -69 55 -69q22 0 38 13.5t32 46.5z" />
    <glyph glyph-name="Umacron" unicode="&#x16a;" horiz-adv-x="770" 
d="M647 613v-373q0 -122 -63.5 -187t-183.5 -65q-138 0 -208.5 64t-70.5 189v372q0 19 -16 27t-69 16v32h288v-32q-54 -8 -69 -15.5t-15 -27.5v-366q0 -109 43 -158t140 -49q89 0 132.5 50t43.5 153v370q0 20 -16 28t-70 15v32h218v-32q-54 -8 -69 -15.5t-15 -27.5zM277 782
v63h270v-63h-270z" />
    <glyph glyph-name="umacron" unicode="&#x16b;" horiz-adv-x="623" 
d="M425 0l-10 92q-70 -104 -177 -104q-70 0 -110 39t-40 108v312q0 15 -10 21.5t-39 10.5l-16 2v30h177v-364q0 -46 23.5 -70.5t66.5 -24.5q49 0 82.5 31.5t33.5 78.5v285q0 15 -9.5 21.5t-36.5 10.5l-15 2v30h173v-408q0 -20 16.5 -27t62.5 -7v-29l-134 -40h-38zM162 634
v63h270v-63h-270z" />
    <glyph glyph-name="Ubreve" unicode="&#x16c;" horiz-adv-x="760" 
d="M642 613v-373q0 -122 -63.5 -187t-183.5 -65q-138 0 -208.5 64t-70.5 189v372q0 19 -16 27t-69 16v32h288v-32q-54 -8 -69 -15.5t-15 -27.5v-366q0 -109 43 -158t140 -49q89 0 132.5 50t43.5 153v370q0 20 -16 28t-70 15v32h218v-32q-54 -8 -69 -15.5t-15 -27.5zM503 879
h39q-12 -69 -51 -102q-33 -30 -79 -30t-79 30q-39 33 -51 102h39q24 -62 91 -62q68 0 91 62z" />
    <glyph glyph-name="ubreve" unicode="&#x16d;" horiz-adv-x="623" 
d="M425 0l-10 92q-70 -104 -177 -104q-70 0 -110 39t-40 108v312q0 15 -10 21.5t-39 10.5l-16 2v30h177v-364q0 -46 23.5 -70.5t66.5 -24.5q49 0 82.5 31.5t33.5 78.5v285q0 15 -9.5 21.5t-36.5 10.5l-15 2v30h173v-408q0 -20 16.5 -27t62.5 -7v-29l-134 -40h-38zM394 731
h39q-12 -69 -51 -102q-33 -30 -79 -30t-79 30q-39 33 -51 102h39q24 -62 91 -62q68 0 91 62z" />
    <glyph glyph-name="Uring" unicode="&#x16e;" horiz-adv-x="770" 
d="M647 613v-373q0 -122 -63.5 -187t-183.5 -65q-138 0 -208.5 64t-70.5 189v372q0 19 -16 27t-69 16v32h288v-32q-54 -8 -69 -15.5t-15 -27.5v-366q0 -109 43 -158t140 -49q89 0 132.5 50t43.5 153v370q0 20 -16 28t-70 15v32h218v-32q-54 -8 -69 -15.5t-15 -27.5zM426 922
q40 0 69 -28.5t29 -67.5q0 -41 -28.5 -68.5t-70.5 -27.5q-40 0 -68.5 28t-28.5 68q0 39 29 67.5t69 28.5zM426 887q-25 0 -40.5 -17t-15.5 -44t15.5 -44.5t40.5 -17.5t40.5 17.5t15.5 44.5q0 26 -15.5 43.5t-40.5 17.5z" />
    <glyph glyph-name="uring" unicode="&#x16f;" horiz-adv-x="623" 
d="M425 0l-10 92q-70 -104 -177 -104q-70 0 -110 39t-40 108v312q0 15 -10 21.5t-39 10.5l-16 2v30h177v-364q0 -46 23.5 -70.5t66.5 -24.5q49 0 82.5 31.5t33.5 78.5v285q0 15 -9.5 21.5t-36.5 10.5l-15 2v30h173v-408q0 -20 16.5 -27t62.5 -7v-29l-134 -40h-38zM306 774
q40 0 69 -28.5t29 -67.5q0 -41 -28.5 -68.5t-70.5 -27.5q-40 0 -68.5 28t-28.5 68q0 39 29 67.5t69 28.5zM306 739q-25 0 -40.5 -17t-15.5 -44t15.5 -44.5t40.5 -17.5t40.5 17.5t15.5 44.5q0 26 -15.5 43.5t-40.5 17.5z" />
    <glyph glyph-name="Uhungarumlaut" unicode="&#x170;" horiz-adv-x="770" 
d="M647 613v-373q0 -122 -63.5 -187t-183.5 -65q-138 0 -208.5 64t-70.5 189v372q0 19 -16 27t-69 16v32h288v-32q-54 -8 -69 -15.5t-15 -27.5v-366q0 -109 43 -158t140 -49q89 0 132.5 50t43.5 153v370q0 20 -16 28t-70 15v32h218v-32q-54 -8 -69 -15.5t-15 -27.5zM320 727
l57 136q11 25 21.5 35t26.5 10q19 0 31 -13t12 -34q0 -16 -6 -27t-25 -30l-80 -77h-37zM478 727l56 136q19 45 49 45q19 0 31 -13t12 -34q0 -17 -6 -27.5t-26 -29.5l-79 -77h-37z" />
    <glyph glyph-name="uhungarumlaut" unicode="&#x171;" horiz-adv-x="623" 
d="M425 0l-10 92q-70 -104 -177 -104q-70 0 -110 39t-40 108v312q0 15 -10 21.5t-39 10.5l-16 2v30h177v-364q0 -46 23.5 -70.5t66.5 -24.5q49 0 82.5 31.5t33.5 78.5v285q0 15 -9.5 21.5t-36.5 10.5l-15 2v30h173v-408q0 -20 16.5 -27t62.5 -7v-29l-134 -40h-38zM188 579
l57 136q11 25 21.5 35t26.5 10q19 0 31 -13t12 -34q0 -16 -6 -27t-25 -30l-80 -77h-37zM346 579l56 136q19 45 49 45q19 0 31 -13t12 -34q0 -17 -6 -27.5t-26 -29.5l-79 -77h-37z" />
    <glyph glyph-name="Uogonek" unicode="&#x172;" horiz-adv-x="770" 
d="M493 -134l21 -22q-43 -47 -104 -47q-45 0 -72.5 22.5t-27.5 59.5q0 63 84 109q-88 4 -138 23.5t-84 60.5q-51 63 -51 169v372q0 19 -16 27t-69 16v32h288v-32q-54 -8 -69 -15.5t-15 -27.5v-366q0 -109 43 -158t140 -49q89 0 132.5 50t43.5 153v370q0 20 -16 28t-70 15v32
h218v-32q-54 -8 -69 -15.5t-15 -27.5v-373q0 -92 -39.5 -154.5t-111.5 -84.5q-56 -17 -78 -47q-22 -28 -22 -63q0 -48 45 -48q24 0 52 23z" />
    <glyph glyph-name="uogonek" unicode="&#x173;" horiz-adv-x="623" 
d="M545 -134l21 -22q-43 -47 -104 -47q-44 0 -71.5 22.5t-27.5 58.5q0 77 109 122h-47l-10 93q-69 -105 -178 -105q-70 0 -109.5 39.5t-39.5 107.5v312q0 15 -10 21.5t-39 10.5l-16 2v30h177v-364q0 -46 23.5 -70.5t66.5 -24.5q49 0 82.5 31.5t33.5 78.5v285q0 15 -9.5 21.5
t-36.5 10.5l-15 2v30h173v-408q0 -20 16.5 -27t62.5 -7v-29q-149 -51 -149 -148q0 -49 45 -49q24 0 52 23z" />
    <glyph glyph-name="Wcircumflex" unicode="&#x174;" horiz-adv-x="1055" 
d="M301 -9l-189 623q-7 20 -22.5 28.5t-57.5 13.5v32h271v-32q-42 -5 -55.5 -12t-13.5 -21q0 -6 2 -16l127 -440h7l169 521h48l174 -519h7l122 438q3 9 3 17q1 11 -12 17.5t-43 11.5l-21 3v32h205v-32q-44 -5 -59 -13t-20 -27l-176 -625h-63l-171 515h-5l-166 -515h-61z
M411 739l105 154h70l105 -154h-37l-103 78l-103 -78h-37z" />
    <glyph glyph-name="Ycircumflex" unicode="&#x176;" horiz-adv-x="692" 
d="M297 298l-192 322q-11 20 -25.5 27t-52.5 12v29h271v-29q-42 -5 -56.5 -9.5t-14.5 -14.5q0 -9 6 -19l158 -271h2l138 263q7 14 7 20q0 13 -15 19.5t-54 11.5v29h196v-29q-40 -7 -53 -13t-23 -24l-172 -319v-226q0 -20 15 -29t56 -14l20 -2v-32h-302v32q59 8 75 15.5
t16 29.5v221zM253 739l105 154h70l105 -154h-37l-103 78l-103 -78h-37z" />
    <glyph glyph-name="ycircumflex" unicode="&#x177;" horiz-adv-x="579" 
d="M84 -218v32q126 62 188 191l-196 443q-10 24 -62 33v30h240v-30q-35 -4 -47.5 -9.5t-12.5 -16.5q0 -3 2 -9l131 -312l124 297q4 8 4 20q0 13 -12 19.5t-46 10.5v30h168v-30q-28 -5 -40.5 -13t-20.5 -25l-178 -413q-68 -159 -138 -248h-104zM182 591l105 154h70l105 -154
h-37l-103 78l-103 -78h-37z" />
    <glyph glyph-name="Ydieresis" unicode="&#x178;" horiz-adv-x="692" 
d="M297 298l-192 322q-11 20 -25.5 27t-52.5 12v29h271v-29q-42 -5 -56.5 -9.5t-14.5 -14.5q0 -9 6 -19l158 -271h2l138 263q7 14 7 20q0 13 -15 19.5t-54 11.5v29h196v-29q-40 -7 -53 -13t-23 -24l-172 -319v-226q0 -20 15 -29t56 -14l20 -2v-32h-302v32q59 8 75 15.5
t16 29.5v221zM493 881q25 0 44 -18.5t19 -44.5t-18.5 -44.5t-44.5 -18.5q-25 0 -44 18.5t-19 44.5t19 44.5t44 18.5zM293 881q25 0 44 -18.5t19 -44.5t-18.5 -44.5t-44.5 -18.5q-25 0 -44 18.5t-19 44.5t19 44.5t44 18.5z" />
    <glyph glyph-name="Zacute" unicode="&#x179;" horiz-adv-x="630" 
d="M47 0v43l408 606h-224q-41 0 -56.5 -18.5t-56.5 -116.5h-39l15 174h490v-42l-409 -608h228q48 0 70.5 28t62.5 137h40l-17 -203h-512zM310 727l70 136q14 26 25 35.5t29 9.5q20 0 33.5 -13.5t13.5 -33.5q0 -28 -37 -57l-97 -77h-37z" />
    <glyph glyph-name="zacute" unicode="&#x17a;" horiz-adv-x="542" 
d="M56 0v52l317 421h-172q-28 0 -39.5 -16t-48.5 -102h-41l11 156h405v-51l-318 -423h164q38 0 56 18.5t45 85.5l15 38h42l-17 -179h-419zM257 579l70 136q13 26 24.5 35.5t29.5 9.5q20 0 33.5 -13.5t13.5 -33.5q0 -28 -37 -57l-97 -77h-37z" />
    <glyph glyph-name="Zdotaccent" unicode="&#x17b;" horiz-adv-x="630" 
d="M47 0v43l408 606h-224q-41 0 -56.5 -18.5t-56.5 -116.5h-39l15 174h490v-42l-409 -608h228q48 0 70.5 28t62.5 137h40l-17 -203h-512zM354 885q28 0 47.5 -20t19.5 -48t-19.5 -47.5t-48.5 -19.5q-28 0 -47.5 19.5t-19.5 47.5q0 29 20 48.5t48 19.5z" />
    <glyph glyph-name="zdotaccent" unicode="&#x17c;" horiz-adv-x="542" 
d="M56 0v52l317 421h-172q-28 0 -39.5 -16t-48.5 -102h-41l11 156h405v-51l-318 -423h164q38 0 56 18.5t45 85.5l15 38h42l-17 -179h-419zM292 737q28 0 47.5 -20t19.5 -48t-19.5 -47.5t-48.5 -19.5q-28 0 -47.5 19.5t-19.5 47.5q0 29 20 48.5t48 19.5z" />
    <glyph glyph-name="Zcaron" unicode="&#x17d;" horiz-adv-x="630" 
d="M47 0v43l408 606h-224q-41 0 -56.5 -18.5t-56.5 -116.5h-39l15 174h490v-42l-409 -608h228q48 0 70.5 28t62.5 137h40l-17 -203h-512zM318 746l-105 154h37l103 -78l103 78h37l-105 -154h-70z" />
    <glyph glyph-name="zcaron" unicode="&#x17e;" horiz-adv-x="542" 
d="M56 0v52l317 421h-172q-28 0 -39.5 -16t-48.5 -102h-41l11 156h405v-51l-318 -423h164q38 0 56 18.5t45 85.5l15 38h42l-17 -179h-419zM260 598l-105 154h37l103 -78l103 78h37l-105 -154h-70z" />
    <glyph glyph-name="florin" unicode="&#x192;" horiz-adv-x="602" 
d="M133 368v46h106l5 70q15 206 203 206q61 0 98 -20.5t37 -54.5q0 -22 -17 -37.5t-42 -15.5h-42v77q-15 15 -39 15q-38 0 -56.5 -29.5t-24.5 -99.5l-10 -111h118v-46h-122l-32 -364q-18 -204 -183 -204q-52 0 -83 19t-31 50q0 22 16 36.5t40 14.5h40v-78q10 -6 27 -6
q30 0 45 25.5t19 85.5l30 421h-102z" />
    <glyph glyph-name="uni01CD" unicode="&#x1cd;" horiz-adv-x="756" 
d="M31 0v32q41 6 58 13.5t22 21.5l242 635h53l241 -631q8 -19 21.5 -26t55.5 -13v-32h-273v32q42 6 56 12t14 19q0 3 -2 11l-59 160h-239l-60 -164q-2 -6 -2 -9q-1 -11 15.5 -17t61.5 -12v-32h-205zM338 549l-102 -276h210l-100 276h-8zM343 746l-105 154h37l103 -78l103 78
h37l-105 -154h-70z" />
    <glyph glyph-name="uni01CE" unicode="&#x1ce;" horiz-adv-x="549" 
d="M508 88l32 -10q-26 -84 -105 -84q-82 0 -102 76q-56 -78 -145 -78q-64 0 -103.5 36t-39.5 94q0 90 105 133q65 26 181 31v72q0 67 -21 97t-67 30q-49 0 -69 -25v-81h-47q-60 0 -60 45q0 44 53.5 71.5t138.5 27.5q92 0 136 -38.5t44 -120.5v-281q0 -36 29 -36q14 0 21.5 8
t18.5 33zM331 142v110q-97 -4 -134 -29t-37 -84q0 -43 20.5 -66.5t57.5 -23.5q38 0 65.5 27.5t27.5 65.5zM240 598l-105 154h37l103 -78l103 78h37l-105 -154h-70z" />
    <glyph glyph-name="uni01D3" unicode="&#x1d3;" horiz-adv-x="770" 
d="M647 613v-373q0 -122 -63.5 -187t-183.5 -65q-138 0 -208.5 64t-70.5 189v372q0 19 -16 27t-69 16v32h288v-32q-54 -8 -69 -15.5t-15 -27.5v-366q0 -109 43 -158t140 -49q89 0 132.5 50t43.5 153v370q0 20 -16 28t-70 15v32h218v-32q-54 -8 -69 -15.5t-15 -27.5zM391 746
l-105 154h37l103 -78l103 78h37l-105 -154h-70z" />
    <glyph glyph-name="Gcaron" unicode="&#x1e6;" horiz-adv-x="717" 
d="M635 30h-49q-59 -25 -99 -33.5t-95 -8.5q-154 0 -246.5 96.5t-92.5 257.5t96.5 259.5t255.5 98.5q103 0 204 -37v-166h-39q-37 97 -60 123q-36 40 -104 40q-114 0 -169.5 -79t-55.5 -240q0 -314 214 -314q58 0 93 20.5t35 53.5v136q0 20 -13.5 28.5t-55.5 12.5l-8 1l-9 1
v32h259v-32q-2 0 -6.5 -1t-7.5 -2q-28 -5 -37.5 -13t-9.5 -27v-207zM359 746l-105 154h37l103 -78l103 78h37l-105 -154h-70z" />
    <glyph glyph-name="gcaron" unicode="&#x1e7;" horiz-adv-x="573" 
d="M540 433h-94q22 -40 22 -84q0 -76 -58 -124.5t-149 -48.5q-27 0 -55 6q-14 3 -17 3q-23 0 -40 -14.5t-17 -34.5t16 -29t53 -9h152q82 0 126.5 -35t44.5 -100q0 -84 -73.5 -136t-192.5 -52q-106 0 -172 35.5t-66 91.5q0 65 106 103q-71 21 -71 86q0 76 99 113
q-95 50 -95 142q0 75 59 126t146 51q88 0 153 -55l89 43h34v-78zM332 0h-133q-39 0 -62 -23.5t-23 -62.5q0 -101 147 -101q81 0 127.5 30t46.5 83q0 74 -103 74zM266 485q-94 0 -94 -136q0 -135 93 -135q94 0 94 134q0 137 -93 137zM240 598l-105 154h37l103 -78l103 78h37
l-105 -154h-70z" />
    <glyph glyph-name="Scommaaccent" unicode="&#x218;" horiz-adv-x="560" 
d="M472 529h-39q-31 82 -58.5 106t-89.5 24q-64 0 -100 -30t-36 -83q0 -63 57 -98q21 -13 37.5 -20t88.5 -30q104 -34 146.5 -80.5t42.5 -126.5q0 -94 -66 -148.5t-179 -54.5q-87 0 -219 41v171h41q41 -110 74.5 -141.5t107.5 -31.5q72 0 109.5 30.5t37.5 88.5q0 74 -63 111
q-32 18 -115 46q-101 35 -144.5 81t-43.5 119q0 90 61.5 143t166.5 53q79 0 183 -30v-140zM220 -268l-12 28q80 27 86 84q-12 -3 -24 -3q-22 0 -37.5 15.5t-15.5 37.5q0 23 16 38t41 15q32 0 52.5 -24t20.5 -62q0 -100 -127 -129z" />
    <glyph glyph-name="scommaaccent" unicode="&#x219;" horiz-adv-x="486" 
d="M413 375h-41q-22 64 -46.5 86t-73.5 22q-46 0 -71 -19.5t-25 -55.5q0 -44 47 -68q28 -14 95 -35q82 -28 115.5 -62.5t33.5 -90.5q0 -75 -54.5 -119.5t-145.5 -44.5q-82 0 -172 37v130h42q26 -77 53 -102.5t81 -25.5q51 0 80 22t29 62q0 46 -47 71q-16 9 -90 35
q-82 29 -115.5 64t-33.5 93q0 70 50.5 109.5t138.5 39.5q73 0 150 -29v-119zM179 -268l-12 28q80 27 86 84q-12 -3 -24 -3q-23 0 -38 15.5t-15 37.5q0 23 16 38t41 15q32 0 52.5 -24t20.5 -62q0 -100 -127 -129z" />
    <glyph glyph-name="circumflex" unicode="&#x2c6;" 
d="M110 591l105 154h70l105 -154h-37l-103 78l-103 -78h-37z" />
    <glyph glyph-name="caron" unicode="&#x2c7;" 
d="M215 598l-105 154h37l103 -78l103 78h37l-105 -154h-70z" />
    <glyph glyph-name="uni02C9" unicode="&#x2c9;" 
d="M115 634v63h270v-63h-270z" />
    <glyph glyph-name="breve" unicode="&#x2d8;" 
d="M341 731h39q-12 -69 -51 -102q-33 -30 -79 -30t-79 30q-39 33 -51 102h39q24 -62 91 -62q68 0 91 62z" />
    <glyph glyph-name="dotaccent" unicode="&#x2d9;" 
d="M250 737q28 0 47.5 -20t19.5 -48t-19.5 -47.5t-48.5 -19.5q-28 0 -47.5 19.5t-19.5 47.5q0 29 20 48.5t48 19.5z" />
    <glyph glyph-name="ring" unicode="&#x2da;" 
d="M250 774q40 0 69 -28.5t29 -67.5q0 -41 -28.5 -68.5t-70.5 -27.5q-40 0 -68.5 28t-28.5 68q0 39 29 67.5t69 28.5zM250 739q-25 0 -40.5 -17t-15.5 -44t15.5 -44.5t40.5 -17.5t40.5 17.5t15.5 44.5q0 26 -15.5 43.5t-40.5 17.5z" />
    <glyph glyph-name="ogonek" unicode="&#x2db;" 
d="M320 -134l21 -22q-43 -47 -104 -47q-44 0 -72 22.5t-28 59.5q0 74 111 121h39q-64 -52 -64 -109q0 -48 45 -48q24 0 52 23z" />
    <glyph glyph-name="tilde" unicode="&#x2dc;" 
d="M112 607l-32 14q25 56 49.5 79t60.5 23q30 0 79 -19q38 -15 59 -15q20 0 33 8.5t27 31.5l32 -13q-26 -57 -50 -79.5t-60 -22.5q-29 0 -79 18q-38 15 -60 15q-35 0 -59 -40z" />
    <glyph glyph-name="hungarumlaut" unicode="&#x2dd;" 
d="M141 579l57 136q11 25 21.5 35t26.5 10q19 0 31 -13t12 -34q0 -16 -6 -27t-25 -30l-80 -77h-37zM299 579l56 136q19 45 49 45q19 0 31 -13t12 -34q0 -17 -6 -27.5t-26 -29.5l-79 -77h-37z" />
    <glyph glyph-name="tonos" unicode="&#x384;" 
d="M200 579l70 135q14 28 25.5 37.5t30.5 9.5q20 0 33.5 -13.5t13.5 -33.5q0 -29 -39 -59l-99 -76h-35z" />
    <glyph glyph-name="dieresistonos" unicode="&#x385;" horiz-adv-x="492" 
d="M378 732q25 0 43 -18t18 -43t-18 -43t-44 -18q-24 0 -42 18t-18 43t18 43t43 18zM112 732q25 0 43 -18t18 -43t-18 -43t-43 -18t-43 18t-18 43t18 43t43 18zM202 573l6 151q1 38 10 50q15 21 41 21q21 0 34 -14t13 -36q0 -17 -15 -47l-64 -125h-25z" />
    <glyph glyph-name="Alphatonos" unicode="&#x386;" horiz-adv-x="670" 
d="M682 0h-273v32q41 6 55.5 12.5t14.5 18.5q0 4 -4 15l-45 125h-262l-48 -129q-3 -8 -3 -13q0 -20 77 -29v-32h-205v32q40 6 57 13.5t23 21.5l242 635h52l242 -631q8 -19 22 -26t55 -13v-32zM416 242l-113 308h-7l-114 -308h234zM70 484l21 151q5 36 17 50.5t36 14.5
q21 0 34.5 -13.5t13.5 -33.5t-21 -53l-76 -116h-25z" />
    <glyph glyph-name="anoteleia" unicode="&#x387;" horiz-adv-x="280" 
d="M139 367q29 0 49.5 -20.5t20.5 -49.5t-21 -49.5t-50 -20.5q-28 0 -48.5 21t-20.5 49q0 29 20.5 49.5t49.5 20.5z" />
    <glyph glyph-name="Epsilontonos" unicode="&#x388;" horiz-adv-x="813" 
d="M29 484l21 151q5 36 17 50.5t36 14.5q21 0 34.5 -13.5t13.5 -33.5t-21 -53l-76 -116h-25zM721 688l12 -166h-38q-32 87 -50 107t-63 20h-164v-277h108q21 0 30 17t20 79h37v-233h-37q-10 60 -20 79.5t-30 19.5h-108v-259q0 -22 17.5 -29.5t67.5 -7.5h111q41 0 60 26
t59 137h40l-15 -201h-544v32q53 7 69 15t16 28v538q0 20 -15.5 27.5t-69.5 15.5v32h507z" />
    <glyph glyph-name="Etatonos" unicode="&#x389;" horiz-adv-x="978" 
d="M29 484l21 151q5 36 17 50.5t36 14.5q21 0 34.5 -13.5t13.5 -33.5t-21 -53l-76 -116h-25zM418 379h311v234q0 19 -15.5 27t-68.5 16v32h288v-32q-54 -7 -69.5 -15t-15.5 -28v-538q0 -20 16 -28t69 -15v-32h-288v32q53 7 68.5 15t15.5 28v266h-311v-266q0 -20 15.5 -28
t68.5 -15v-32h-288v32q53 7 69 15t16 28v538q0 20 -15.5 27.5t-69.5 15.5v32h288v-32q-54 -8 -69 -15.5t-15 -27.5v-234z" />
    <glyph glyph-name="Iotatonos" unicode="&#x38a;" horiz-adv-x="561" 
d="M29 484l21 151q5 36 17 50.5t36 14.5q21 0 34.5 -13.5t13.5 -33.5t-21 -53l-76 -116h-25zM305 75v538q0 20 -16.5 28t-72.5 15v32h297v-32q-57 -7 -73 -15t-16 -28v-538q0 -20 16.5 -28t72.5 -15v-32h-297v32q56 7 72.5 15t16.5 28z" />
    <glyph glyph-name="Omicrontonos" unicode="&#x38c;" horiz-adv-x="869" 
d="M29 484l21 151q5 36 17 50.5t36 14.5q21 0 34.5 -13.5t13.5 -33.5t-21 -53l-76 -116h-25zM489 700q129 0 225 -94q101 -101 101 -263q0 -153 -93.5 -254t-235.5 -101q-60 0 -119 25.5t-104 70.5q-99 99 -99 259t102 264q44 44 103 68.5t120 24.5zM491 660
q-199 0 -199 -310q0 -323 197 -323q100 0 149 77.5t49 236.5q0 319 -196 319z" />
    <glyph glyph-name="Upsilontonos" unicode="&#x38e;" horiz-adv-x="819" 
d="M16 484l21 151q5 36 17 50.5t36 14.5q21 0 34.5 -13.5t13.5 -33.5t-21 -53l-76 -116h-25zM457 297l-193 324q-11 19 -25 26t-52 13v28h271v-28q-43 -5 -57.5 -10t-14.5 -15q0 -9 6 -19l158 -271h3l138 264q6 12 6 20q0 22 -69 31v28h197v-28q-40 -7 -53 -13.5t-23 -23.5
l-173 -320v-226q0 -20 15 -29t56 -14l20 -2v-32h-301v32q58 7 74.5 15t16.5 30v220z" />
    <glyph glyph-name="Omegatonos" unicode="&#x38f;" horiz-adv-x="929" 
d="M29 484l21 151q5 36 17 50.5t36 14.5q21 0 34.5 -13.5t13.5 -33.5t-21 -53l-76 -116h-25zM195 0l-38 147h31q16 -45 43 -60.5t92 -16.5l95 -3v6q-54 21 -87 42t-63 53q-82 90 -82 206q0 137 95 232q94 94 245 94q150 0 244 -94q95 -95 95 -232q0 -135 -104 -228
q-48 -42 -128 -73v-6l95 3q65 1 92 16.5t43 60.5h31l-38 -147h-289v69q46 26 69.5 47t44.5 54q57 90 57 207q0 129 -58 206t-154 77q-97 0 -155 -77t-58 -206q0 -138 75 -233q30 -38 96 -75v-69h-289z" />
    <glyph glyph-name="iotadieresistonos" unicode="&#x390;" horiz-adv-x="315" 
d="M216 513v-449q0 -17 10.5 -23t50.5 -11v-30h-238v30q43 5 54 11t11 23v380q0 20 -10 26.5t-52 12.5v30h174zM297 732q25 0 43 -18t18 -43t-18 -43t-44 -18q-24 0 -42 18t-18 43t18 43t43 18zM31 732q25 0 43 -18t18 -43t-18 -43t-43 -18t-43 18t-18 43t18 43t43 18z
M121 573l6 151q1 38 10 50q15 21 41 21q21 0 34 -14t13 -36q0 -17 -15 -47l-64 -125h-25z" />
    <glyph glyph-name="Alpha" unicode="&#x391;" horiz-adv-x="670" 
d="M682 0h-273v32q41 6 55.5 12.5t14.5 18.5q0 4 -4 15l-45 125h-262l-48 -129q-3 -8 -3 -13q0 -20 77 -29v-32h-205v32q40 6 57 13.5t23 21.5l242 635h52l242 -631q8 -19 22 -26t55 -13v-32zM416 242l-113 308h-7l-114 -308h234z" />
    <glyph glyph-name="Beta" unicode="&#x392;" horiz-adv-x="653" 
d="M403 374v-3q215 -26 215 -181q0 -91 -77.5 -140.5t-220.5 -49.5h-275v32q53 7 69 15t16 28v538q0 20 -15.5 27.5t-69.5 15.5v32h262q126 0 193 -42t67 -121q0 -58 -39 -93.5t-125 -57.5zM249 346v-273q0 -20 15.5 -28t56.5 -8q172 0 172 157q0 152 -175 152h-69zM249 384
h48q81 0 116.5 30.5t35.5 100.5t-35.5 102.5t-111.5 32.5h-53v-266z" />
    <glyph glyph-name="Gamma" unicode="&#x393;" horiz-adv-x="599" 
d="M574 688l9 -181h-40q-21 58 -30.5 81t-23 40t-24.5 19t-36 2h-177v-574q0 -20 18 -28t77 -15v-32h-299v32q53 7 69 15t16 28v538q0 20 -15.5 27.5t-69.5 15.5v32h526z" />
    <glyph glyph-name="Epsilon" unicode="&#x395;" horiz-adv-x="645" 
d="M552 688l12 -166h-38q-32 87 -50 107t-63 20h-164v-277h108q21 0 30 17t20 79h37v-233h-37q-10 60 -20 79.5t-30 19.5h-108v-259q0 -22 17.5 -29.5t67.5 -7.5h111q41 0 60 26t59 137h40l-15 -201h-544v32q53 7 69 15t16 28v538q0 20 -15.5 27.5t-69.5 15.5v32h507z" />
    <glyph glyph-name="Zeta" unicode="&#x396;" horiz-adv-x="631" 
d="M47 0v43l408 606h-224q-24 0 -34 -2t-23.5 -17.5t-23.5 -38.5t-32 -77h-39l15 174h489v-42l-409 -608h228q49 0 71.5 28t61.5 137h40l-17 -203h-511z" />
    <glyph glyph-name="Eta" unicode="&#x397;" horiz-adv-x="810" 
d="M249 379h311v234q0 19 -15.5 27t-68.5 16v32h288v-32q-54 -7 -69.5 -15t-15.5 -28v-538q0 -20 16 -28t69 -15v-32h-288v32q53 7 68.5 15t15.5 28v266h-311v-266q0 -20 15.5 -28t68.5 -15v-32h-288v32q53 7 69 15t16 28v538q0 20 -15.5 27.5t-69.5 15.5v32h288v-32
q-54 -8 -69 -15.5t-15 -27.5v-234z" />
    <glyph glyph-name="Theta" unicode="&#x398;" horiz-adv-x="764" 
d="M263 243v217h35q11 -57 20.5 -72.5t31.5 -15.5h64q22 0 31.5 16t20.5 72h35v-217h-35q-11 54 -21.5 72t-31.5 18h-63q-20 0 -30.5 -17.5t-21.5 -72.5h-35zM381 700q130 0 227 -94q102 -100 102 -263q0 -153 -94.5 -254t-237.5 -101q-61 0 -120.5 25.5t-104.5 70.5
q-100 100 -100 259q0 161 103 264q44 44 104 68.5t121 24.5zM383 660q-100 0 -151 -78.5t-51 -231.5q0 -323 199 -323q103 0 152.5 77t49.5 237q0 319 -199 319z" />
    <glyph glyph-name="Iota" unicode="&#x399;" horiz-adv-x="393" 
d="M137 75v538q0 20 -16.5 28t-72.5 15v32h297v-32q-57 -7 -73 -15t-16 -28v-538q0 -20 16.5 -28t72.5 -15v-32h-297v32q56 7 72.5 15t16.5 28z" />
    <glyph glyph-name="Kappa" unicode="&#x39a;" horiz-adv-x="737" 
d="M249 301l272 301q19 20 19 30q0 17 -68 24v32h209v-32q-35 -5 -51 -12t-35 -26l-187 -201l233 -333q19 -27 36 -37t53 -15v-32h-274v32q35 5 47.5 9.5t12.5 14.5q0 6 -9 20l-179 256l-79 -87v-170q0 -20 15.5 -28t67.5 -15v-32h-287v32q53 7 69 15t16 28v538
q0 20 -15.5 27.5t-69.5 15.5v32h288v-32q-54 -8 -69 -15.5t-15 -27.5v-312z" />
    <glyph glyph-name="Lambda" unicode="&#x39b;" horiz-adv-x="685" 
d="M202 32v-32h-206v32q42 6 58.5 14t22.5 24l241 632h52l241 -631q8 -19 22 -26t55 -13v-32h-273v32q40 6 55 12.5t15 17.5q0 7 -5 21l-171 465h-6l-175 -473q-3 -10 -3 -14q0 -11 16 -17t61 -12z" />
    <glyph glyph-name="Mu" unicode="&#x39c;" horiz-adv-x="950" 
d="M460 -3h-44l-238 610v-532q0 -22 14.5 -29t71.5 -14v-32h-219v32q37 4 47 6q21 4 30 12.5t9 24.5v533q0 30 -28 39q-12 3 -58 9v32h225l203 -533l209 533h222v-32q-42 -5 -60 -10q-25 -8 -25 -33v-538q0 -22 14 -28.5t71 -14.5v-32h-288v32q51 7 54 8q30 7 30 35v532z
" />
    <glyph glyph-name="Nu" unicode="&#x39d;" horiz-adv-x="757" 
d="M648 -7h-48l-418 589h-4v-507q0 -22 14 -29t72 -14v-32h-219v32q45 5 55 8q31 6 31 35v537q0 21 -13.5 29t-54.5 13l-9 1l-9 1v32h202l349 -490h4v415q0 20 -16 28t-70 15v32h210v-32q-48 -7 -62 -15t-14 -28v-620z" />
    <glyph glyph-name="Xi" unicode="&#x39e;" horiz-adv-x="670" 
d="M191 235v233h33q10 -51 20 -68t30 -17h122q20 0 30 17t20 68h33v-233h-33q-10 52 -20 69t-30 17h-122q-20 0 -30 -17t-20 -69h-33zM74 511l9 177h504l9 -177h-32q-33 65 -50 79.5t-60 14.5h-238q-43 0 -60 -14.5t-50 -79.5h-32zM53 0l-15 204h36q40 -79 59.5 -98.5
t59.5 -19.5h284q40 0 59 19t59 99h37l-15 -204h-564z" />
    <glyph glyph-name="Omicron" unicode="&#x39f;" horiz-adv-x="758" 
d="M378 700q129 0 225 -94q101 -101 101 -263q0 -153 -93.5 -254t-235.5 -101q-60 0 -119.5 25.5t-103.5 70.5q-99 99 -99 259t102 264q44 44 103 68.5t120 24.5zM380 660q-199 0 -199 -310q0 -323 197 -323q100 0 149 77.5t49 236.5q0 319 -196 319z" />
    <glyph glyph-name="Pi" unicode="&#x3a0;" horiz-adv-x="777" 
d="M527 650h-278v-575q0 -20 15.5 -28t68.5 -15v-32h-288v32q53 7 69 15t16 28v538q0 20 -15.5 27.5t-69.5 15.5v32h686v-32q-53 -7 -69 -15t-16 -28v-538q0 -20 16 -28t69 -15v-32h-288v32q53 7 68.5 15t15.5 28v575z" />
    <glyph glyph-name="Rho" unicode="&#x3a1;" horiz-adv-x="636" 
d="M249 299v-224q0 -20 17.5 -28t78.5 -15v-32h-300v32q53 7 69 15t16 28v538q0 20 -15.5 27.5t-69.5 15.5v32h299q266 0 266 -190q0 -93 -70 -146t-193 -53h-98zM249 337h90q149 0 149 158q0 79 -36 116.5t-111 37.5h-92v-312z" />
    <glyph glyph-name="Sigma" unicode="&#x3a3;" horiz-adv-x="621" 
d="M25 0v32l251 279l-239 346v31h498l12 -166h-38q-33 88 -50.5 107.5t-63.5 19.5h-209l192 -286l-257 -286h308q40 0 59.5 20.5t59.5 106.5h39l-15 -204h-547z" />
    <glyph glyph-name="Tau" unicode="&#x3a4;" horiz-adv-x="674" 
d="M278 649h-85q-46 0 -61.5 -19.5t-53.5 -124.5h-42l9 183h584l9 -183h-42q-21 59 -30.5 82.5t-23 40.5t-24.5 19t-36 2h-85v-572q0 -20 17.5 -28.5t73.5 -16.5v-32h-301v32q55 7 73 16t18 29v572z" />
    <glyph glyph-name="Upsilon" unicode="&#x3a5;" horiz-adv-x="621" 
d="M259 297l-192 324q-12 19 -26.5 26t-51.5 13v28h271v-28q-43 -5 -57.5 -10t-14.5 -15q0 -7 6 -19l158 -271h3l138 264q6 12 6 20q0 22 -69 31v28h197v-28q-40 -7 -53 -13.5t-23 -23.5l-173 -320v-226q0 -22 16.5 -30t74.5 -15v-32h-301v32q58 7 74.5 15t16.5 30v220z" />
    <glyph glyph-name="Phi" unicode="&#x3a6;" horiz-adv-x="916" 
d="M314 -65v32q56 7 72.5 15t16.5 28v50q-158 11 -254 89t-96 195q0 80 47.5 144t133.5 102q71 30 169 38v50q0 20 -16.5 28t-72.5 15v32h289v-32q-56 -7 -72.5 -15t-16.5 -28v-50q117 -10 196 -51q74 -39 114 -99.5t40 -133.5q0 -117 -96 -195t-254 -89v-50q0 -20 16.5 -28
t72.5 -15v-32h-289zM514 589v-490q114 15 168 74.5t54 170.5q0 221 -222 245zM403 99v490q-222 -24 -222 -245q0 -111 54 -170.5t168 -74.5z" />
    <glyph glyph-name="Chi" unicode="&#x3a7;" horiz-adv-x="661" 
d="M5 0v32q48 7 65.5 16t33.5 35l168 260l-187 281q-10 16 -21.5 21t-47.5 11v32h268v-32q-38 -4 -52.5 -9t-14.5 -15q0 -6 7 -17l132 -202h4l118 198q6 10 6 17q0 19 -67 28v32h202v-32q-38 -4 -55 -11.5t-29 -25.5l-152 -245l204 -305q13 -19 26.5 -25.5t51.5 -11.5v-32
h-270v32q37 4 50 9t13 15q0 8 -8 19l-150 231h-3l-141 -228q-7 -12 -7 -19q0 -11 16.5 -17t57.5 -10v-32h-218z" />
    <glyph glyph-name="Psi" unicode="&#x3a8;" horiz-adv-x="973" 
d="M428 75v126q-166 2 -241 64q-47 42 -61 89t-12 158v33q0 66 -12.5 89t-48.5 23q-17 0 -38 -2v33q52 7 78 7q85 0 114 -38q14 -18 18.5 -40t4.5 -79v-58q0 -82 10.5 -122t39.5 -68q45 -45 148 -51v374q0 20 -16.5 28t-72.5 15v32h295v-32q-56 -7 -72.5 -15t-16.5 -28v-374
q64 4 101 19t61 47q22 28 29.5 65t7.5 110v55q0 56 4.5 78t18.5 40q29 38 114 38q24 0 78 -6v-35q-28 4 -39 4q-35 0 -47.5 -23.5t-12.5 -88.5v-30q0 -86 -3 -114.5t-14 -57.5q-55 -136 -298 -139v-126q0 -20 16.5 -28t72.5 -15v-32h-295v32q56 7 72.5 15t16.5 28z" />
    <glyph glyph-name="Iotadieresis" unicode="&#x3aa;" horiz-adv-x="393" 
d="M137 75v538q0 20 -16.5 28t-72.5 15v32h297v-32q-57 -7 -73 -15t-16 -28v-538q0 -20 16.5 -28t72.5 -15v-32h-297v32q56 7 72.5 15t16.5 28zM296 884q26 0 45 -19t19 -45t-19 -45t-46 -19q-26 0 -44.5 19t-18.5 45t19 45t45 19zM96 884q26 0 45 -19t19 -45t-19 -45
t-45 -19t-45 19t-19 45t19 45t45 19z" />
    <glyph glyph-name="Upsilondieresis" unicode="&#x3ab;" horiz-adv-x="621" 
d="M259 297l-192 324q-12 19 -26.5 26t-51.5 13v28h271v-28q-43 -5 -57.5 -10t-14.5 -15q0 -7 6 -19l158 -271h3l138 264q6 12 6 20q0 22 -69 31v28h197v-28q-40 -7 -53 -13.5t-23 -23.5l-173 -320v-226q0 -22 16.5 -30t74.5 -15v-32h-301v32q58 7 74.5 15t16.5 30v220z
M440 882q26 0 44.5 -19t18.5 -44q0 -26 -18.5 -44.5t-44.5 -18.5t-44.5 19t-18.5 44t18.5 44t44.5 19zM240 882q26 0 44.5 -19t18.5 -44q0 -26 -18.5 -44.5t-44.5 -18.5t-44.5 19t-18.5 44t18.5 44t44.5 19z" />
    <glyph glyph-name="alphatonos" unicode="&#x3ac;" horiz-adv-x="647" 
d="M510 223l17 -72q19 -79 59 -79q15 0 38 11l14 -29l-120 -69q-43 22 -67 101q-40 -53 -79 -75.5t-93 -22.5q-101 0 -165 74t-64 191q0 119 65 194.5t168 75.5q66 0 108.5 -29.5t70.5 -93.5l20 111h103zM417 237q-18 108 -31 150q-31 98 -102 98q-118 0 -118 -228
q0 -110 29.5 -170.5t82.5 -60.5q61 0 98 76q21 41 41 135zM269 579l70 135q14 28 25.5 37.5t30.5 9.5q20 0 33.5 -13.5t13.5 -33.5q0 -29 -39 -59l-99 -76h-35z" />
    <glyph glyph-name="epsilontonos" unicode="&#x3ad;" horiz-adv-x="480" 
d="M434 120l30 -15q-59 -117 -212 -117q-95 0 -150 40.5t-55 110.5q0 85 78 120q-71 36 -71 111q0 70 55 111.5t149 41.5q88 0 140 -27q42 -21 42 -61q0 -49 -59 -49h-47v82q-35 17 -67 17q-48 0 -74.5 -28.5t-26.5 -80.5q0 -50 26 -73.5t81 -23.5h60v-37h-60
q-57 0 -83.5 -24t-26.5 -75q0 -104 124 -104q50 0 84.5 19t62.5 62zM214 579l70 135q14 28 25.5 37.5t30.5 9.5q20 0 33.5 -13.5t13.5 -33.5q0 -29 -39 -59l-99 -76h-35z" />
    <glyph glyph-name="etatonos" unicode="&#x3ae;" horiz-adv-x="617" 
d="M214 513l2 -84q72 94 171 94q76 0 112 -42t36 -130v-546l-76 -35h-34v569q0 63 -20.5 91t-66.5 28q-48 0 -85 -34t-37 -79v-281q0 -17 10.5 -23t50.5 -11v-30h-238v30q43 5 54 11t11 23v380q0 20 -9.5 26.5t-49.5 12.5v30h169zM259 579l70 135q14 28 25.5 37.5t30.5 9.5
q20 0 33.5 -13.5t13.5 -33.5q0 -29 -39 -59l-99 -76h-35z" />
    <glyph glyph-name="iotatonos" unicode="&#x3af;" horiz-adv-x="315" 
d="M216 513v-449q0 -17 10.5 -23t50.5 -11v-30h-238v30q43 5 54 11t11 23v380q0 20 -10 26.5t-52 12.5v30h174zM90 579l70 135q14 28 25.5 37.5t30.5 9.5q20 0 33.5 -13.5t13.5 -33.5q0 -29 -39 -59l-99 -76h-35z" />
    <glyph glyph-name="upsilondieresistonos" unicode="&#x3b0;" horiz-adv-x="568" 
d="M202 511v-374q0 -115 83 -115q64 0 106 76t42 191q0 73 -17 107l-78 58q7 38 20.5 53.5t39.5 15.5q54 0 87.5 -57t33.5 -149q0 -79 -26.5 -150t-73.5 -119q-62 -64 -161 -64q-80 0 -124 41.5t-44 117.5v302q0 18 -11 24t-54 12v30h177zM427 732q25 0 43 -18t18 -43
t-18 -43t-44 -18q-24 0 -42 18t-18 43t18 43t43 18zM161 732q25 0 43 -18t18 -43t-18 -43t-43 -18t-43 18t-18 43t18 43t43 18zM251 573l6 151q1 38 10 50q15 21 41 21q21 0 34 -14t13 -36q0 -17 -15 -47l-64 -125h-25z" />
    <glyph glyph-name="alpha" unicode="&#x3b1;" horiz-adv-x="647" 
d="M510 223l17 -72q19 -79 59 -79q15 0 38 11l14 -29l-120 -69q-43 22 -67 101q-40 -53 -79 -75.5t-93 -22.5q-101 0 -165 74t-64 191q0 119 65 194.5t168 75.5q66 0 108.5 -29.5t70.5 -93.5l20 111h103zM417 237q-18 108 -31 150q-31 98 -102 98q-118 0 -118 -228
q0 -110 29.5 -170.5t82.5 -60.5q61 0 98 76q21 41 41 135z" />
    <glyph glyph-name="beta" unicode="&#x3b2;" horiz-adv-x="634" 
d="M202 49v-244l-76 -35h-34v756q0 123 50 185q65 77 187 77q92 0 144.5 -44.5t52.5 -121.5q0 -73 -49 -122q-26 -26 -78 -48q73 -15 114 -48q68 -57 68 -169t-64 -183.5t-164 -71.5q-46 0 -78 14.5t-73 54.5zM202 544v-444q34 -40 60.5 -56t59.5 -16q64 0 103.5 57.5
t39.5 151.5t-41 137t-130 43q-22 0 -37 -2v38q76 4 108 27q54 37 54 137q0 135 -97 135q-120 0 -120 -208z" />
    <glyph glyph-name="gamma" unicode="&#x3b3;" horiz-adv-x="541" 
d="M255 -230h-35v278l-163 398q-10 26 -63 35v30h240v-30q-60 -8 -60 -25q0 -3 5 -18l130 -337l123 329q5 17 5 22q0 21 -58 29v30h168v-30q-49 -9 -62 -40l-155 -395v-241z" />
    <glyph glyph-name="delta" unicode="&#x3b4;" horiz-adv-x="594" 
d="M372 657v77q-29 16 -68 16q-41 0 -66 -23t-25 -61q0 -29 22.5 -50.5t112.5 -79.5q69 -44 98.5 -67.5t48.5 -49.5q50 -64 50 -163q0 -135 -97 -214q-70 -54 -151 -54q-93 0 -166 67q-83 77 -83 200q0 182 177 252q-37 24 -56 39q-52 41 -52 98q0 66 51.5 104.5t140.5 38.5
q81 0 129 -24q39 -19 39 -57q0 -22 -14 -35.5t-36 -13.5h-55zM288 468l-23 14q-101 -41 -101 -229q0 -106 35.5 -166.5t97.5 -60.5t97.5 59t35.5 163q0 79 -28.5 123.5t-113.5 96.5z" />
    <glyph glyph-name="epsilon" unicode="&#x3b5;" horiz-adv-x="480" 
d="M434 120l30 -15q-59 -117 -212 -117q-95 0 -150 40.5t-55 110.5q0 85 78 120q-71 36 -71 111q0 70 55 111.5t149 41.5q88 0 140 -27q42 -21 42 -61q0 -49 -59 -49h-47v82q-35 17 -67 17q-48 0 -74.5 -28.5t-26.5 -80.5q0 -50 26 -73.5t81 -23.5h60v-37h-60
q-57 0 -83.5 -24t-26.5 -75q0 -104 124 -104q50 0 84.5 19t62.5 62z" />
    <glyph glyph-name="zeta" unicode="&#x3b6;" horiz-adv-x="416" 
d="M128 690l-37 108l27 9q15 -24 23 -29.5t27 -5.5h215l-8 -81q-95 -77 -153.5 -199.5t-58.5 -242.5q0 -81 33 -118q21 -24 90 -47q55 -20 70 -33q36 -29 36 -94q0 -107 -95 -157q-55 -29 -111 -29q-46 0 -74 16.5t-28 44.5q0 23 16 37t42 14h28l28 -74q55 3 95.5 36.5
t40.5 76.5q0 27 -17 43t-60 28q-71 20 -98.5 32.5t-48.5 33.5q-60 58 -60 171q0 115 69.5 239.5t188.5 220.5h-180z" />
    <glyph glyph-name="eta" unicode="&#x3b7;" horiz-adv-x="617" 
d="M214 513l2 -84q72 94 171 94q76 0 112 -42t36 -130v-546l-76 -35h-34v569q0 63 -20.5 91t-66.5 28q-48 0 -85 -34t-37 -79v-281q0 -17 10.5 -23t50.5 -11v-30h-238v30q43 5 54 11t11 23v380q0 20 -9.5 26.5t-49.5 12.5v30h169z" />
    <glyph glyph-name="theta" unicode="&#x3b8;" horiz-adv-x="590" 
d="M295 787q58 0 108.5 -37.5t86.5 -105.5q53 -103 53 -262q0 -170 -70.5 -282t-177.5 -112q-58 0 -109.5 37t-84.5 102q-54 105 -54 259q0 173 70.5 287t177.5 114zM427 389h-264q0 -174 22 -252q32 -112 110 -112q41 0 71 33.5t44 95.5q17 77 17 235zM164 430h262
q-1 140 -26 221q-13 45 -41.5 71.5t-63.5 26.5q-34 0 -62.5 -26.5t-42.5 -71.5q-25 -81 -26 -221z" />
    <glyph glyph-name="iota" unicode="&#x3b9;" horiz-adv-x="315" 
d="M216 513v-449q0 -17 10.5 -23t50.5 -11v-30h-238v30q43 5 54 11t11 23v380q0 20 -10 26.5t-52 12.5v30h174z" />
    <glyph glyph-name="kappa" unicode="&#x3ba;" horiz-adv-x="605" 
d="M216 516v-278l181 185q23 24 23 36q0 15 -50 22v30h191v-30q-53 -8 -78 -32l-127 -126l177 -257q13 -19 24.5 -25.5t42.5 -10.5v-30h-236v30q47 7 47 19q0 9 -8 20l-122 182l-65 -65v-122q0 -17 10 -23t48 -11v-30h-239v30q48 5 58.5 10.5t10.5 23.5v388q0 18 -10.5 23.5
t-58.5 10.5v30h181z" />
    <glyph glyph-name="lambda" unicode="&#x3bb;" horiz-adv-x="555" 
d="M-6 0v30q49 9 61 38l168 414l-59 159q-14 36 -24.5 47.5t-30.5 11.5q-12 0 -29 -4l-9 29l117 51h36l265 -704q7 -20 19 -28t45 -14v-30h-237v30q35 4 48 9.5t13 15.5q0 3 -5 19l-128 351l-134 -343q-6 -15 -6 -24q0 -11 12 -17t46 -11v-30h-168z" />
    <glyph glyph-name="nu" unicode="&#x3bd;" horiz-adv-x="565" 
d="M263 -8l-197 456q-11 25 -62 33v30h240v-30q-60 -8 -60 -25q0 -4 5 -16l130 -320l122 311q5 15 5 21q0 21 -58 29v30h167v-30q-49 -9 -61 -38l-183 -451h-48z" />
    <glyph glyph-name="xi" unicode="&#x3be;" horiz-adv-x="473" 
d="M119 699l-34 99l27 9q17 -26 23.5 -30.5t25.5 -4.5h275l-8 -82h-56q-90 0 -138 -37t-48 -107q0 -58 41 -85t127 -27q24 0 54 3l-7 -58q-37 5 -70 5q-97 0 -134 -44q-35 -40 -35 -110q0 -84 55 -115q16 -9 32 -13t84 -18q109 -22 109 -128q0 -49 -24 -89t-68 -65
q-55 -31 -113 -31q-46 0 -73.5 16.5t-27.5 44.5q0 23 15.5 37t41.5 14h29l27 -74q55 3 93.5 36t38.5 76q0 32 -20 50t-66 26q-82 15 -114.5 25t-60.5 30q-71 51 -71 148q0 106 80 164q40 27 111 41q-154 33 -154 138q0 56 37 93t117 63h-121z" />
    <glyph glyph-name="omicron" unicode="&#x3bf;" horiz-adv-x="604" 
d="M301 523q108 0 181 -77t73 -191q0 -113 -73 -190t-181 -77q-93 0 -162 60q-91 77 -91 211q0 111 73.5 187.5t179.5 76.5zM304 485q-67 0 -103.5 -60t-36.5 -169q0 -108 36.5 -169t100.5 -61q66 0 102 59.5t36 168.5q0 108 -36 169.5t-99 61.5z" />
    <glyph glyph-name="pi" unicode="&#x3c0;" horiz-adv-x="663" 
d="M166 430h-32q-27 0 -45 -11t-52 -49l-26 16l23 34q26 41 38 55.5t28 24.5q13 7 27 9t59 2h260q78 0 105 3.5t40 14.5t24 43h31l-38 -142h-86v-260q0 -102 16 -119q14 -14 51 -14h5v-37l-139 -20h-27q-16 44 -16 162v288h-164v-308q0 -69 -15 -96q-24 -44 -75 -44
q-34 0 -63 22t-63 73l21 20q41 -40 70 -40q20 0 31.5 19t11.5 52v302z" />
    <glyph glyph-name="rho" unicode="&#x3c1;" horiz-adv-x="615" 
d="M198 51v-246l-76 -35h-34v476q0 126 53 195q64 82 186 82q110 0 174.5 -72t64.5 -195q0 -118 -62 -193t-160 -75q-83 0 -146 63zM198 252v-48q0 -168 120 -168q132 0 132 218q0 228 -129 228q-123 0 -123 -230z" />
    <glyph glyph-name="sigma1" unicode="&#x3c2;" horiz-adv-x="486" 
d="M222 -117l28 -74q58 3 100 40t42 84q0 29 -23 45q-15 11 -74 22q-122 20 -168 55q-80 62 -80 197q0 123 66.5 197t176.5 74q73 0 118.5 -28t45.5 -73q0 -25 -16 -39.5t-43 -14.5h-55v94q-22 23 -57 23q-59 0 -89 -58q-31 -59 -31 -155q0 -117 62 -154q23 -13 101 -29
q58 -13 81 -30q41 -30 41 -99q0 -108 -96 -160q-53 -29 -112 -29q-47 0 -75.5 16.5t-28.5 44.5q0 23 16 37t42 14h28z" />
    <glyph glyph-name="sigma" unicode="&#x3c3;" horiz-adv-x="620" 
d="M601 525l26 -12q-13 -63 -43 -91t-85 -30q41 -64 41 -141q0 -110 -71.5 -186.5t-174.5 -76.5q-104 0 -175 77.5t-71 189.5q0 115 72.5 191t181.5 76q57 0 148 -30q47 -16 78 -16q29 0 44 10t29 39zM296 485q-63 0 -97.5 -60t-34.5 -170q0 -109 34 -169t96 -60t96 58.5
t34 166.5q0 113 -33 173.5t-95 60.5z" />
    <glyph glyph-name="tau" unicode="&#x3c4;" horiz-adv-x="523" 
d="M320 430v-366q0 -17 12 -23.5t54 -10.5v-30h-247v30q48 5 58.5 10.5t10.5 23.5v366h-90q-27 0 -45 -11t-52 -49l-26 16l22 34q27 42 39 56t28 24q14 8 27 9.5t58 1.5h148q78 0 105 3.5t40 14.5t24 43h31l-38 -142h-159z" />
    <glyph glyph-name="upsilon" unicode="&#x3c5;" horiz-adv-x="568" 
d="M202 511v-374q0 -115 83 -115q64 0 106 76t42 191q0 73 -17 107l-78 58q7 38 20.5 53.5t39.5 15.5q54 0 87.5 -57t33.5 -149q0 -79 -26.5 -150t-73.5 -119q-62 -64 -161 -64q-80 0 -124 41.5t-44 117.5v302q0 18 -11 24t-54 12v30h177z" />
    <glyph glyph-name="phi" unicode="&#x3c6;" horiz-adv-x="730" 
d="M313 -230l7 220q-72 9 -132 41q-140 74 -140 223q0 159 148 231q63 31 142 37l8 254h38l9 -254q127 -10 207.5 -84.5t80.5 -182.5q0 -103 -74.5 -176t-196.5 -88l6 -186l-69 -35h-34zM321 30l16 453q-83 -10 -128 -69t-45 -158q0 -94 41 -153t116 -73zM394 483l15 -453
q76 15 116 73t40 153q0 99 -44.5 158t-126.5 69z" />
    <glyph glyph-name="chi" unicode="&#x3c7;" horiz-adv-x="513" 
d="M-29 -218v30q45 7 60.5 16.5t30.5 37.5l147 269l-142 303q-11 23 -21 29.5t-44 13.5v30h151l127 -277l107 199q9 17 9 23q0 15 -60 25v30h181v-30q-39 -8 -53.5 -17.5t-29.5 -38.5l-135 -233l156 -339q9 -19 23.5 -28t44.5 -13v-30h-149l-145 310l-118 -230
q-10 -18 -10 -26q0 -15 61 -24v-30h-191z" />
    <glyph glyph-name="psi" unicode="&#x3c8;" horiz-adv-x="788" 
d="M364 -230v216q-142 1 -193 34q-81 51 -81 181v244q0 18 -11.5 24.5t-53.5 11.5v30h172v-315q0 -59 10 -91.5t35 -54.5q19 -17 43.5 -22.5t78.5 -5.5v423q0 18 -9.5 24.5t-44.5 11.5v30h156v-489q56 2 83 13t49 39q56 68 56 213q0 74 -18 109l-77 58q7 38 20.5 53.5
t39.5 15.5q55 0 88 -57t33 -151q0 -100 -32.5 -176t-91.5 -114q-53 -34 -150 -39v-181l-68 -35h-34z" />
    <glyph glyph-name="omega" unicode="&#x3c9;" horiz-adv-x="745" 
d="M411 354v-150q0 -172 74 -172q45 0 71 61t26 166q0 161 -94 232l14 28q69 -26 106 -59q89 -80 89 -215q0 -112 -56.5 -184.5t-144.5 -72.5q-47 0 -75.5 22t-47.5 73v-1l-1 1q-20 -52 -48 -73.5t-75 -21.5q-88 0 -144.5 72.5t-56.5 184.5q0 149 106 229q33 23 89 45
l15 -28q-95 -70 -95 -232q0 -105 26 -166t71 -61q74 0 74 172v150h77z" />
    <glyph glyph-name="iotadieresis" unicode="&#x3ca;" horiz-adv-x="315" 
d="M216 513v-449q0 -17 10.5 -23t50.5 -11v-30h-238v30q43 5 54 11t11 23v380q0 20 -10 26.5t-52 12.5v30h174zM257 735q26 0 45 -19t19 -45t-19 -45t-46 -19q-26 0 -44.5 19t-18.5 45t19 45t45 19zM57 735q26 0 45 -19t19 -45t-19 -45t-45 -19t-45 19t-19 45t19 45t45 19z
" />
    <glyph glyph-name="upsilondieresis" unicode="&#x3cb;" horiz-adv-x="568" 
d="M202 511v-374q0 -115 83 -115q64 0 106 76t42 191q0 73 -17 107l-78 58q7 38 20.5 53.5t39.5 15.5q54 0 87.5 -57t33.5 -149q0 -79 -26.5 -150t-73.5 -119q-62 -64 -161 -64q-80 0 -124 41.5t-44 117.5v302q0 18 -11 24t-54 12v30h177zM383 735q26 0 45 -19t19 -45
t-19 -45t-46 -19q-26 0 -44.5 19t-18.5 45t19 45t45 19zM183 735q26 0 45 -19t19 -45t-19 -45t-45 -19t-45 19t-19 45t19 45t45 19z" />
    <glyph glyph-name="omicrontonos" unicode="&#x3cc;" horiz-adv-x="604" 
d="M301 523q108 0 181 -77t73 -191q0 -113 -73 -190t-181 -77q-93 0 -162 60q-91 77 -91 211q0 111 73.5 187.5t179.5 76.5zM304 485q-67 0 -103.5 -60t-36.5 -169q0 -108 36.5 -169t100.5 -61q66 0 102 59.5t36 168.5q0 108 -36 169.5t-99 61.5zM252 579l70 135
q14 28 25.5 37.5t30.5 9.5q20 0 33.5 -13.5t13.5 -33.5q0 -29 -39 -59l-99 -76h-35z" />
    <glyph glyph-name="upsilontonos" unicode="&#x3cd;" horiz-adv-x="568" 
d="M202 511v-374q0 -115 83 -115q64 0 106 76t42 191q0 73 -17 107l-78 58q7 38 20.5 53.5t39.5 15.5q54 0 87.5 -57t33.5 -149q0 -79 -26.5 -150t-73.5 -119q-62 -64 -161 -64q-80 0 -124 41.5t-44 117.5v302q0 18 -11 24t-54 12v30h177zM238 579l70 135q14 28 25.5 37.5
t30.5 9.5q20 0 33.5 -13.5t13.5 -33.5q0 -29 -39 -59l-99 -76h-35z" />
    <glyph glyph-name="omegatonos" unicode="&#x3ce;" horiz-adv-x="745" 
d="M411 354v-150q0 -172 74 -172q45 0 71 61t26 166q0 161 -94 232l14 28q69 -26 106 -59q89 -80 89 -215q0 -112 -56.5 -184.5t-144.5 -72.5q-47 0 -75.5 22t-47.5 73v-1l-1 1q-20 -52 -48 -73.5t-75 -21.5q-88 0 -144.5 72.5t-56.5 184.5q0 149 106 229q33 23 89 45
l15 -28q-95 -70 -95 -232q0 -105 26 -166t71 -61q74 0 74 172v150h77zM331 579l70 135q14 28 25.5 37.5t30.5 9.5q20 0 33.5 -13.5t13.5 -33.5q0 -29 -39 -59l-99 -76h-35z" />
    <glyph glyph-name="afii10023" unicode="&#x401;" horiz-adv-x="645" 
d="M552 688l12 -166h-38q-32 87 -50 107t-63 20h-164v-277h108q21 0 30 17t20 79h37v-233h-37q-10 60 -20 79.5t-30 19.5h-108v-259q0 -22 17.5 -29.5t67.5 -7.5h111q41 0 60 26t59 137h40l-15 -201h-544v32q53 7 69 15t16 28v538q0 20 -15.5 27.5t-69.5 15.5v32h507z
M428 882q26 0 44.5 -19t18.5 -44q0 -26 -18.5 -44.5t-44.5 -18.5t-44.5 19t-18.5 44t18.5 44t44.5 19zM228 882q26 0 44.5 -19t18.5 -44q0 -26 -18.5 -44.5t-44.5 -18.5t-44.5 19t-18.5 44t18.5 44t44.5 19z" />
    <glyph glyph-name="afii10051" unicode="&#x402;" horiz-adv-x="794" 
d="M243 649h-85q-46 0 -61.5 -19.5t-53.5 -124.5h-42l9 183h592l9 -183h-42q-21 59 -30.5 82.5t-23 40.5t-24.5 19t-36 2h-93v-247q49 1 98 1q144 0 222 -42q43 -24 67 -69t24 -102q0 -83 -51.5 -140t-125.5 -57q-46 0 -78 21t-32 51q0 44 52 44h36l9 -74q11 -7 20 -7
q22 0 37.5 42t15.5 102q0 106 -49.5 150t-168.5 44l-58 -1h-18v-288q0 -20 14 -29t56 -16v-32h-269v32q48 7 64 16t16 29v572z" />
    <glyph glyph-name="afii10052" unicode="&#x403;" horiz-adv-x="599" 
d="M574 688l9 -181h-40q-21 58 -30.5 81t-23 40t-24.5 19t-36 2h-177v-574q0 -20 18 -28t77 -15v-32h-299v32q53 7 69 15t16 28v538q0 20 -15.5 27.5t-69.5 15.5v32h526zM289 728l70 136q13 26 24.5 35.5t29.5 9.5q20 0 33.5 -13.5t13.5 -33.5q0 -28 -37 -57l-97 -77h-37z
" />
    <glyph glyph-name="afii10053" unicode="&#x404;" horiz-adv-x="714" 
d="M475 413l27 -8q-9 -53 -35 -82.5t-64 -29.5q-34 0 -88 27q-59 28 -82 28q-26 0 -49 -20q3 -103 26 -163q24 -65 68.5 -100.5t102.5 -35.5q51 0 99 23t73 59q44 65 57 148h32v-244h-32q-7 42 -27 71q-87 -98 -225 -98q-139 0 -223.5 95t-84.5 251q0 164 87 265t228 101
q130 0 209 -98q16 44 20 84h32l6 -259h-32q-16 90 -48 139q-28 43 -72.5 67.5t-95.5 24.5q-188 0 -199 -291q37 46 84 46q33 0 85 -26q50 -25 70 -25q38 0 51 51z" />
    <glyph glyph-name="afii10054" unicode="&#x405;" horiz-adv-x="561" 
d="M474 529h-39q-31 82 -59 107t-90 25q-64 0 -99.5 -30t-35.5 -85q0 -61 56 -98q31 -19 144 -56q90 -30 131 -77.5t41 -121.5q0 -95 -65.5 -150t-179.5 -55q-87 0 -219 42v170h41q42 -110 75 -141.5t106 -31.5q148 0 148 121q0 68 -57 106q-29 17 -121 49q-91 34 -126 63
q-62 53 -62 137q0 90 62 143.5t166 53.5q79 0 183 -31v-140z" />
    <glyph glyph-name="afii10055" unicode="&#x406;" horiz-adv-x="393" 
d="M137 75v538q0 20 -16.5 28t-72.5 15v32h297v-32q-57 -7 -73 -15t-16 -28v-538q0 -20 16.5 -28t72.5 -15v-32h-297v32q56 7 72.5 15t16.5 28z" />
    <glyph glyph-name="afii10056" unicode="&#x407;" horiz-adv-x="393" 
d="M137 75v538q0 20 -16.5 28t-72.5 15v32h297v-32q-57 -7 -73 -15t-16 -28v-538q0 -20 16.5 -28t72.5 -15v-32h-297v32q56 7 72.5 15t16.5 28zM296 884q26 0 45 -19t19 -45t-19 -45t-46 -19q-26 0 -44.5 19t-18.5 45t19 45t45 19zM96 884q26 0 45 -19t19 -45t-19 -45
t-45 -19t-45 19t-19 45t19 45t45 19z" />
    <glyph glyph-name="afii10057" unicode="&#x408;" horiz-adv-x="393" 
d="M19 -50l34 -97q50 4 69.5 36.5t19.5 110.5v613q0 20 -16.5 28t-72.5 15v32h293v-32q-54 -7 -69.5 -15t-15.5 -28v-578q0 -99 -57.5 -159t-153.5 -60q-55 0 -89.5 21.5t-34.5 56.5q0 25 18 40.5t47 15.5h28z" />
    <glyph glyph-name="afii10058" unicode="&#x409;" horiz-adv-x="983" 
d="M578 411h79q130 0 194 -32q50 -25 77 -70t27 -103q0 -101 -75 -153.5t-219 -52.5h-287v32q53 7 69 15t16 28v522q0 32 -18 42.5t-73 10.5q-52 0 -72 -22t-38 -100l-54 -240q-38 -178 -101 -288h-110v33q72 46 108.5 110t66.5 198l43 189q15 60 15 87q0 21 -18 30t-59 9
h-7v32h525v-32q-55 -7 -72 -15t-17 -28v-202zM578 373v-298q0 -22 16.5 -30t63.5 -8q88 0 130 42t42 128q0 166 -171 166h-81z" />
    <glyph glyph-name="afii10059" unicode="&#x40a;" horiz-adv-x="1056" 
d="M249 393h291v220q0 20 -15.5 27.5t-69.5 15.5v32h288v-32q-52 -7 -68 -15t-16 -28v-220h79q130 0 194 -30q49 -23 76.5 -66t27.5 -98q0 -97 -75.5 -148t-218.5 -51h-287v32q53 7 69 15t16 28v280h-291v-280q0 -20 15.5 -28t68.5 -15v-32h-288v32q53 7 69 15t16 28v538
q0 20 -15.5 27.5t-69.5 15.5v32h288v-32q-54 -8 -69 -15.5t-15 -27.5v-220zM659 355v-280q0 -22 16.5 -30t62.5 -8q173 0 173 162q0 156 -171 156h-81z" />
    <glyph glyph-name="afii10060" unicode="&#x40b;" horiz-adv-x="804" 
d="M241 649h-83q-46 0 -61.5 -19.5t-53.5 -124.5h-42l9 183h592l9 -183h-42q-21 59 -30.5 82.5t-23 40.5t-24.5 19t-36 2h-95v-247q87 3 106 3q158 0 228.5 -50t70.5 -163v-117q0 -20 16 -28t70 -15v-32h-293v32q55 7 71.5 15t16.5 28v117q0 98 -49 137t-172 39
q-2 0 -10 -0.5t-23.5 -1t-31.5 -0.5v-289q0 -20 17 -29t68 -16v-32h-295v32q55 7 73 16t18 29v572z" />
    <glyph glyph-name="afii10061" unicode="&#x40c;" horiz-adv-x="737" 
d="M249 301l272 301q19 20 19 30q0 17 -68 24v32h209v-32q-35 -5 -51 -12t-35 -26l-187 -201l233 -333q19 -27 36 -37t53 -15v-32h-274v32q35 5 47.5 9.5t12.5 14.5q0 6 -9 20l-179 256l-79 -87v-170q0 -20 15.5 -28t67.5 -15v-32h-287v32q53 7 69 15t16 28v538
q0 20 -15.5 27.5t-69.5 15.5v32h288v-32q-54 -8 -69 -15.5t-15 -27.5v-312zM365 728l70 136q13 26 24.5 35.5t29.5 9.5q20 0 33.5 -13.5t13.5 -33.5q0 -28 -37 -57l-97 -77h-37z" />
    <glyph glyph-name="afii10062" unicode="&#x40e;" horiz-adv-x="680" 
d="M316 168l-199 391q-33 63 -51 79.5t-56 17.5v32h285v-32q-41 -2 -58 -8.5t-17 -21.5q0 -11 19 -51l141 -291l149 262q26 47 26 73q0 17 -18 25.5t-62 11.5v32h221v-32q-37 -3 -58 -22t-60 -87l-305 -547h-127v33q102 47 170 135zM475 883h39q-12 -69 -51 -102
q-33 -30 -79 -30t-79 30q-39 33 -51 102h39q24 -62 91 -62q68 0 91 62z" />
    <glyph glyph-name="afii10145" unicode="&#x40f;" horiz-adv-x="791" 
d="M45 0v32q53 7 69 15t16 28v538q0 20 -16 28t-69 15v32h287v-32q-52 -7 -67.5 -15t-15.5 -28v-529q0 -26 22 -36t81 -10h86q59 0 81 10t22 36v529q0 20 -15.5 28t-67.5 15v32h287v-32q-53 -7 -69 -15t-16 -28v-538q0 -20 16 -28t69 -15v-32h-178q-75 0 -108 -50
q-35 -55 -46 -129h-32q-12 78 -47 129q-32 50 -107 50h-182z" />
    <glyph glyph-name="afii10017" unicode="&#x410;" horiz-adv-x="670" 
d="M682 0h-273v32q41 6 55.5 12.5t14.5 18.5q0 4 -4 15l-45 125h-262l-48 -129q-3 -8 -3 -13q0 -20 77 -29v-32h-205v32q40 6 57 13.5t23 21.5l242 635h52l242 -631q8 -19 22 -26t55 -13v-32zM416 242l-113 308h-7l-114 -308h234z" />
    <glyph glyph-name="afii10018" unicode="&#x411;" horiz-adv-x="666" 
d="M559 688l8 -181h-40q-21 57 -30 80.5t-23 40.5t-25 19t-36 2h-164v-252h67q131 0 196 -31q50 -24 77 -67.5t27 -99.5q0 -97 -76.5 -148t-219.5 -51h-275v32q53 7 69 15t16 28v538q0 20 -15.5 27.5t-69.5 15.5v32h514zM249 359v-284q0 -22 15.5 -30t56.5 -8q170 0 170 163
q0 159 -173 159h-69z" />
    <glyph glyph-name="afii10019" unicode="&#x412;" horiz-adv-x="653" 
d="M403 374v-3q215 -26 215 -181q0 -91 -77.5 -140.5t-220.5 -49.5h-275v32q53 7 69 15t16 28v538q0 20 -15.5 27.5t-69.5 15.5v32h262q126 0 193 -42t67 -121q0 -58 -39 -93.5t-125 -57.5zM249 346v-273q0 -20 15.5 -28t56.5 -8q172 0 172 157q0 152 -175 152h-69zM249 384
h48q81 0 116.5 30.5t35.5 100.5t-35.5 102.5t-111.5 32.5h-53v-266z" />
    <glyph glyph-name="afii10020" unicode="&#x413;" horiz-adv-x="599" 
d="M574 688l9 -181h-40q-21 58 -30.5 81t-23 40t-24.5 19t-36 2h-177v-574q0 -20 18 -28t77 -15v-32h-299v32q53 7 69 15t16 28v538q0 20 -15.5 27.5t-69.5 15.5v32h526z" />
    <glyph glyph-name="afii10021" unicode="&#x414;" horiz-adv-x="730" 
d="M697 32l5 -211h-32q-21 83 -58 129q-22 28 -52 39t-83 11h-258q-85 0 -124.5 -36.5t-69.5 -142.5h-31l5 211h8q68 0 102 57t59 211l36 231q10 67 10 81q0 30 -32 38q-23 4 -55 6v32h561v-32q-55 -6 -72 -14.5t-17 -28.5v-538q0 -39 98 -43zM123 38h251q60 0 83 10.5
t23 36.5v512q0 31 -17 40q-21 13 -75 13h-24q-61 0 -79 -20t-31 -103l-36 -227q-19 -123 -39.5 -178t-55.5 -84z" />
    <glyph glyph-name="afii10022" unicode="&#x415;" horiz-adv-x="645" 
d="M552 688l12 -166h-38q-32 87 -50 107t-63 20h-164v-277h108q21 0 30 17t20 79h37v-233h-37q-10 60 -20 79.5t-30 19.5h-108v-259q0 -22 17.5 -29.5t67.5 -7.5h111q41 0 60 26t59 137h40l-15 -201h-544v32q53 7 69 15t16 28v538q0 20 -15.5 27.5t-69.5 15.5v32h507z" />
    <glyph glyph-name="afii10024" unicode="&#x416;" horiz-adv-x="1077" 
d="M483 335h-20q-47 0 -69.5 -13t-45.5 -53l-152 -269h-179v31q41 4 56.5 12.5t29.5 32.5l93 159q35 62 76.5 91.5t106.5 40.5q-29 15 -70 61l-163 181q-24 26 -40 34t-53 13v32h214v-32q-67 -7 -67 -23q0 -10 15 -28l123 -143q40 -47 72 -66.5t73 -22.5v240q0 20 -15 27.5
t-69 15.5v32h280v-32q-54 -8 -69 -15.5t-15 -27.5v-240q40 2 72.5 22t71.5 67l123 143q15 18 15 28q0 16 -67 23v32h214v-32q-37 -5 -53 -13t-40 -34l-162 -181q-42 -46 -70 -61q64 -11 105.5 -41t76.5 -91l93 -159q14 -24 30 -32.5t57 -12.5v-31h-180l-152 269
q-22 40 -44.5 53t-69.5 13h-20v-260q0 -20 15.5 -28t67.5 -15v-32h-278v32q52 7 67.5 15t15.5 28v260z" />
    <glyph glyph-name="afii10025" unicode="&#x417;" horiz-adv-x="660" 
d="M88 686h32q5 -45 20 -84q81 98 213 98q115 0 182.5 -52t67.5 -141q0 -50 -23 -85t-73 -60q37 -20 55 -41q44 -49 44 -126q0 -94 -69 -150.5t-185 -56.5q-135 0 -221 98q-20 -31 -27 -71h-32v244h32q14 -103 73.5 -167t141.5 -64q70 0 114.5 46.5t44.5 117.5
q0 149 -155 149h-63v38h65q82 0 116 37q34 36 34 97q0 65 -39.5 105t-104.5 40q-50 0 -94 -23.5t-73 -65.5q-36 -52 -50 -142h-32z" />
    <glyph glyph-name="afii10026" unicode="&#x418;" horiz-adv-x="812" 
d="M249 170l313 423v20q0 19 -15.5 27t-68.5 16v32h288v-32q-54 -7 -69.5 -15t-15.5 -28v-538q0 -20 16 -28t69 -15v-32h-288v32q53 7 68.5 15t15.5 28v449l-313 -423v-26q0 -20 15.5 -28t68.5 -15v-32h-288v32q53 7 69 15t16 28v538q0 20 -15.5 27.5t-69.5 15.5v32h288v-32
q-54 -8 -69 -15.5t-15 -27.5v-443z" />
    <glyph glyph-name="afii10027" unicode="&#x419;" horiz-adv-x="812" 
d="M249 170l313 423v20q0 19 -15.5 27t-68.5 16v32h288v-32q-54 -7 -69.5 -15t-15.5 -28v-538q0 -20 16 -28t69 -15v-32h-288v32q53 7 68.5 15t15.5 28v449l-313 -423v-26q0 -20 15.5 -28t68.5 -15v-32h-288v32q53 7 69 15t16 28v538q0 20 -15.5 27.5t-69.5 15.5v32h288v-32
q-54 -8 -69 -15.5t-15 -27.5v-443zM499 883h39q-12 -69 -51 -102q-33 -30 -79 -30t-79 30q-39 33 -51 102h39q24 -62 91 -62q68 0 91 62z" />
    <glyph glyph-name="afii10028" unicode="&#x41a;" horiz-adv-x="737" 
d="M249 301l272 301q19 20 19 30q0 17 -68 24v32h209v-32q-35 -5 -51 -12t-35 -26l-187 -201l233 -333q19 -27 36 -37t53 -15v-32h-274v32q35 5 47.5 9.5t12.5 14.5q0 6 -9 20l-179 256l-79 -87v-170q0 -20 15.5 -28t67.5 -15v-32h-287v32q53 7 69 15t16 28v538
q0 20 -15.5 27.5t-69.5 15.5v32h288v-32q-54 -8 -69 -15.5t-15 -27.5v-312z" />
    <glyph glyph-name="afii10029" unicode="&#x41b;" horiz-adv-x="709" 
d="M103 0h-110v33q72 45 108.5 109t66.5 199l43 189q15 64 15 85q0 22 -17.5 31.5t-59.5 9.5h-7v32h525v-32q-55 -7 -72 -15t-17 -28v-538q0 -20 16.5 -28t72.5 -15v-32h-296v32q55 7 71.5 15t16.5 28v522q0 32 -18 42.5t-73 10.5q-52 0 -72 -22t-38 -100l-54 -240
q-38 -176 -101 -288z" />
    <glyph glyph-name="afii10030" unicode="&#x41c;" horiz-adv-x="950" 
d="M270 688l203 -533l209 533h222v-32l-7 -1l-6 -1q-44 -4 -58 -12.5t-14 -28.5v-538q0 -20 14 -28.5t54 -12.5l8 -1l9 -1v-32h-288v32q3 0 8 0.5t9 1.5q40 4 53.5 12.5t13.5 28.5v532l-240 -610h-44l-238 610v-532q0 -22 14.5 -29t71.5 -14v-32h-219v32q54 7 61 9
q25 8 25 34v533q0 24 -14.5 32.5t-64.5 14.5l-7 1v32h225z" />
    <glyph glyph-name="afii10031" unicode="&#x41d;" horiz-adv-x="810" 
d="M249 379h311v234q0 19 -15.5 27t-68.5 16v32h288v-32q-54 -7 -69.5 -15t-15.5 -28v-538q0 -20 16 -28t69 -15v-32h-288v32q53 7 68.5 15t15.5 28v266h-311v-266q0 -20 15.5 -28t68.5 -15v-32h-288v32q53 7 69 15t16 28v538q0 20 -15.5 27.5t-69.5 15.5v32h288v-32
q-54 -8 -69 -15.5t-15 -27.5v-234z" />
    <glyph glyph-name="afii10032" unicode="&#x41e;" horiz-adv-x="758" 
d="M378 700q129 0 225 -94q101 -101 101 -263q0 -153 -93.5 -254t-235.5 -101q-60 0 -119.5 25.5t-103.5 70.5q-99 99 -99 259t102 264q44 44 103 68.5t120 24.5zM380 660q-199 0 -199 -310q0 -323 197 -323q100 0 149 77.5t49 236.5q0 319 -196 319z" />
    <glyph glyph-name="afii10033" unicode="&#x41f;" horiz-adv-x="777" 
d="M527 650h-278v-575q0 -20 15.5 -28t68.5 -15v-32h-288v32q53 7 69 15t16 28v538q0 20 -15.5 27.5t-69.5 15.5v32h686v-32q-53 -7 -69 -15t-16 -28v-538q0 -20 16 -28t69 -15v-32h-288v32q53 7 68.5 15t15.5 28v575z" />
    <glyph glyph-name="afii10034" unicode="&#x420;" horiz-adv-x="636" 
d="M249 299v-224q0 -20 17.5 -28t78.5 -15v-32h-300v32q53 7 69 15t16 28v538q0 20 -15.5 27.5t-69.5 15.5v32h299q266 0 266 -190q0 -93 -70 -146t-193 -53h-98zM249 337h90q149 0 149 158q0 79 -36 116.5t-111 37.5h-92v-312z" />
    <glyph glyph-name="afii10035" unicode="&#x421;" horiz-adv-x="677" 
d="M610 199v-167q-102 -44 -211 -44q-160 0 -252.5 95t-92.5 259t96 261t258 97q91 0 188 -34v-159h-40q-35 96 -64 125t-89 29q-123 0 -176 -92q-45 -80 -45 -223q0 -164 54 -242t168 -78q72 0 103 32t62 141h41z" />
    <glyph glyph-name="afii10036" unicode="&#x422;" horiz-adv-x="674" 
d="M278 649h-85q-46 0 -61.5 -19.5t-53.5 -124.5h-42l9 183h584l9 -183h-42q-21 59 -30.5 82.5t-23 40.5t-24.5 19t-36 2h-85v-572q0 -20 17.5 -28.5t73.5 -16.5v-32h-301v32q55 7 73 16t18 29v572z" />
    <glyph glyph-name="afii10037" unicode="&#x423;" horiz-adv-x="680" 
d="M316 168l-199 391q-33 63 -51 79.5t-56 17.5v32h285v-32q-41 -2 -58 -8.5t-17 -21.5q0 -11 19 -51l141 -291l149 262q26 47 26 73q0 17 -18 25.5t-62 11.5v32h221v-32q-37 -3 -58 -22t-60 -87l-305 -547h-127v33q102 47 170 135z" />
    <glyph glyph-name="afii10038" unicode="&#x424;" horiz-adv-x="916" 
d="M314 -65v32q56 7 72.5 15t16.5 28v50q-158 11 -254 89t-96 195q0 80 47.5 144t133.5 102q71 30 169 38v50q0 20 -16.5 28t-72.5 15v32h289v-32q-56 -7 -72.5 -15t-16.5 -28v-50q117 -10 196 -51q74 -39 114 -99.5t40 -133.5q0 -117 -96 -195t-254 -89v-50q0 -20 16.5 -28
t72.5 -15v-32h-289zM514 589v-490q114 15 168 74.5t54 170.5q0 221 -222 245zM403 99v490q-222 -24 -222 -245q0 -111 54 -170.5t168 -74.5z" />
    <glyph glyph-name="afii10039" unicode="&#x425;" horiz-adv-x="661" 
d="M5 0v32q48 7 65.5 16t33.5 35l168 260l-187 281q-10 16 -21.5 21t-47.5 11v32h268v-32q-67 -7 -67 -23q0 -7 7 -18l132 -202h4l118 198q6 9 6 17q0 20 -67 28v32h202v-32q-39 -4 -56 -12t-28 -25l-152 -245l204 -305q13 -19 26.5 -25.5t51.5 -11.5v-32h-270v32q37 4 50 9
t13 15q0 8 -8 19l-150 231h-3l-141 -228q-7 -12 -7 -19q0 -11 16.5 -17t57.5 -10v-32h-218z" />
    <glyph glyph-name="afii10040" unicode="&#x426;" horiz-adv-x="791" 
d="M45 0v32q53 7 69 15t16 28v538q0 20 -16 28t-69 15v32h287v-32q-52 -7 -67.5 -15t-15.5 -28v-529q0 -26 22 -36t81 -10h86q59 0 81 10t22 36v529q0 20 -15.5 28t-67.5 15v32h287v-32q-53 -7 -69 -15t-16 -28v-538q0 -20 17 -28.5t70 -14.5l5 -211h-32
q-29 104 -68.5 141.5t-120.5 37.5h-486z" />
    <glyph glyph-name="afii10041" unicode="&#x427;" horiz-adv-x="732" 
d="M483 75v147q-69 -12 -121 -12q-172 0 -240 94q-21 29 -29 66t-8 107v136q0 19 -12.5 26.5t-59.5 16.5v32h274v-32q-53 -8 -68 -15.5t-15 -27.5v-141q0 -72 11 -112t37 -65q52 -47 154 -47q34 0 77 8v357q0 20 -16 28t-68 15v32h288v-32q-54 -8 -69.5 -15.5t-15.5 -27.5
v-538q0 -20 16 -28t69 -15v-32h-290v32q54 7 70 15t16 28z" />
    <glyph glyph-name="afii10042" unicode="&#x428;" horiz-adv-x="1150" 
d="M130 75v538q0 20 -16 28t-69 15v32h287v-32q-52 -7 -67.5 -15t-15.5 -28v-529q0 -26 22 -36t81 -10h60q59 0 81 10t22 36v529q0 20 -15.5 28t-67.5 15v32h285v-32q-51 -7 -67 -15t-16 -28v-530q0 -25 22.5 -35t80.5 -10h60q59 0 81 10t22 36v529q0 20 -15.5 28t-67.5 15
v32h287v-32q-53 -7 -69 -15t-16 -28v-538q0 -20 16 -28t69 -15v-32h-1059v32q53 7 69 15t16 28z" />
    <glyph glyph-name="afii10043" unicode="&#x429;" horiz-adv-x="1150" 
d="M45 0v32q53 7 69 15t16 28v538q0 20 -16 28t-69 15v32h287v-32q-52 -7 -67.5 -15t-15.5 -28v-529q0 -26 22 -36t81 -10h60q59 0 81 10t22 36v529q0 20 -15.5 28t-67.5 15v32h285v-32q-51 -7 -67 -15t-16 -28v-530q0 -25 22.5 -35t80.5 -10h60q59 0 81 10t22 36v529
q0 20 -15.5 28t-67.5 15v32h287v-32q-53 -7 -69 -15t-16 -28v-538q0 -20 17 -28.5t70 -14.5l5 -211h-32q-28 103 -68 141t-119 38h-847z" />
    <glyph glyph-name="afii10044" unicode="&#x42a;" horiz-adv-x="776" 
d="M265 649h-82q-25 0 -36 -2t-25 -19t-23 -40.5t-30 -80.5h-40l8 181h434v-32q-54 -7 -70.5 -15t-16.5 -28v-202h67q130 0 194 -32q50 -25 77 -69.5t27 -102.5q0 -100 -75.5 -153.5t-218.5 -53.5h-275v32q53 7 69 15t16 28v574zM384 373v-298q0 -22 15.5 -30t55.5 -8
q169 0 169 170q0 166 -171 166h-69z" />
    <glyph glyph-name="afii10045" unicode="&#x42b;" horiz-adv-x="1005" 
d="M252 411h67q131 0 195 -32q50 -25 77 -69.5t27 -102.5q0 -101 -76 -154t-219 -53h-275v32q53 7 69 15t16 28v538q0 20 -16 28t-69 15v32h291v-32q-53 -7 -70 -15t-17 -28v-202zM252 373v-298q0 -21 15.5 -29.5t55.5 -8.5q170 0 170 170q0 166 -172 166h-69zM749 75v538
q0 20 -16.5 28t-72.5 15v32h297v-32q-57 -7 -73 -15t-16 -28v-538q0 -20 16.5 -28t72.5 -15v-32h-297v32q56 7 72.5 15t16.5 28z" />
    <glyph glyph-name="afii10046" unicode="&#x42c;" horiz-adv-x="647" 
d="M252 411h67q131 0 195 -32q50 -25 77 -69.5t27 -102.5q0 -101 -76 -154t-219 -53h-275v32q53 7 69 15t16 28v538q0 20 -16 28t-69 15v32h291v-32q-53 -7 -70 -15t-17 -28v-202zM252 373v-298q0 -21 15.5 -29.5t55.5 -8.5q170 0 170 170q0 166 -172 166h-69z" />
    <glyph glyph-name="afii10047" unicode="&#x42d;" horiz-adv-x="714" 
d="M72 259h32q13 -83 57 -147q25 -37 73 -60t100 -23q63 0 112 45t68 121q15 54 16 148q-39 -45 -84 -45q-31 0 -90 26q-51 25 -74 25q-21 0 -33 -13.5t-20 -44.5l-26 7q18 120 101 120q35 0 92 -27q63 -28 87 -28q25 0 46 20q-16 275 -196 275q-51 0 -96.5 -25t-73.5 -68
q-35 -50 -49 -138h-32l6 259h32q4 -40 20 -84q80 98 213 98q130 0 209 -84q49 -51 75.5 -124.5t26.5 -155.5q0 -155 -85.5 -251.5t-223.5 -96.5q-135 0 -224 98q-20 -29 -27 -71h-32v244z" />
    <glyph glyph-name="afii10048" unicode="&#x42e;" horiz-adv-x="1110" 
d="M249 379h157q12 124 81 206q46 54 110.5 84.5t132.5 30.5q139 0 232.5 -102.5t93.5 -254.5q0 -160 -99 -259q-45 -46 -105 -71t-122 -25q-77 0 -147 37t-115 102q-62 88 -63 214h-156v-266q0 -20 15.5 -28t68.5 -15v-32h-288v32q53 7 69 15t16 28v538q0 20 -15.5 27.5
t-69.5 15.5v32h288v-32q-54 -8 -69 -15.5t-15 -27.5v-234zM732 660q-199 0 -199 -310q0 -323 197 -323q100 0 149 77.5t49 236.5q0 319 -196 319z" />
    <glyph glyph-name="afii10049" unicode="&#x42f;" horiz-adv-x="702" 
d="M453 75v247q-60 1 -84.5 -10t-48.5 -50l-154 -262h-164v31q34 5 46.5 12.5t26.5 31.5l92 154q32 50 60 74t68 34q-208 29 -208 174q0 177 275 177h295v-32q-54 -8 -69.5 -15.5t-15.5 -27.5v-538q0 -20 16 -28t69 -15v-32h-291v32q55 7 71 15t16 28zM453 360v290h-85
q-83 0 -121 -34.5t-38 -109.5t39.5 -110.5t122.5 -35.5h82z" />
    <glyph glyph-name="afii10065" unicode="&#x430;" horiz-adv-x="550" 
d="M508 88l32 -10q-14 -44 -39.5 -64t-66.5 -20q-80 0 -102 76q-53 -78 -144 -78q-63 0 -103 36t-40 94q0 105 140 145q55 15 146 19v72q0 67 -21 97t-67 30q-49 0 -69 -25v-81h-47q-60 0 -60 45q0 44 53 71.5t139 27.5q92 0 136 -38.5t44 -120.5v-281q0 -36 29 -36
q13 0 21 8.5t19 32.5zM331 142v110q-99 -6 -135.5 -30t-36.5 -84q0 -42 20.5 -65.5t57.5 -23.5q38 0 66 28t28 65z" />
    <glyph glyph-name="afii10066" unicode="&#x431;" horiz-adv-x="590" 
d="M479 783l24 -7q-9 -68 -28 -102q-25 -35 -55 -45.5t-133 -19.5q-82 -8 -110.5 -41t-36.5 -126q67 81 163 81q100 0 169.5 -78t69.5 -190t-71.5 -189.5t-174.5 -77.5q-56 0 -109.5 28t-88.5 75q-50 68 -50 190q0 70 17.5 150t45.5 135q40 84 110 113q32 14 120 25
q62 8 92 25t46 54zM301 485q-65 0 -101 -61t-36 -172q0 -106 35 -166t97 -60t96 59.5t34 169.5q0 107 -33.5 168.5t-91.5 61.5z" />
    <glyph glyph-name="afii10067" unicode="&#x432;" horiz-adv-x="569" 
d="M364 275v-3q161 -18 161 -129q0 -143 -237 -143h-249v32q41 5 53 11.5t12 23.5v377q0 16 -12 22.5t-53 12.5v32h244q216 0 216 -122q0 -44 -32 -71t-103 -43zM216 248v-184q0 -17 15 -23.5t57 -6.5q62 0 91.5 27.5t29.5 84.5q0 102 -119 102h-74zM216 284h61
q59 0 85.5 23t26.5 74q0 95 -111 95h-62v-192z" />
    <glyph glyph-name="afii10068" unicode="&#x433;" horiz-adv-x="466" 
d="M446 511l8 -166h-32q-34 92 -49 110t-54 18h-105v-409q0 -17 9.5 -22.5t45.5 -10.5l12 -1v-30h-246v30q48 5 58.5 10.5t10.5 23.5v382q0 19 -10.5 24.5t-58.5 10.5v30h411z" />
    <glyph glyph-name="afii10069" unicode="&#x434;" horiz-adv-x="588" 
d="M9 -158l4 194h26q38 0 62 43q12 22 19 52t22 124l24 153q4 32 4 37q0 19 -15 27t-57 11v28h454v-30q-47 -6 -57 -11t-10 -23v-380q0 -19 14 -26.5t55 -10.5l4 -188h-30q-21 89 -51.5 123.5t-89.5 34.5h-207q-59 0 -89.5 -34t-50.5 -124h-31zM125 38h177q41 0 57 8t16 29
v366q0 20 -14 27t-52 7h-22q-38 0 -54 -14t-23 -53l-24 -153q-17 -110 -27.5 -148.5t-33.5 -68.5z" />
    <glyph glyph-name="afii10070" unicode="&#x435;" horiz-adv-x="559" 
d="M163 276v-21q0 -106 43 -161t125 -55q49 0 82 19t64 65l29 -16q-63 -119 -202 -119q-113 0 -184.5 74.5t-71.5 193.5q0 117 69 192t178 75q101 0 160 -71q27 -33 39 -72t14 -104h-345zM387 314v22q0 73 -25.5 111t-73.5 38q-66 0 -98 -67q-16 -32 -24 -104h221z" />
    <glyph glyph-name="afii10072" unicode="&#x436;" horiz-adv-x="879" 
d="M388 64v188q-37 1 -53.5 -8.5t-37.5 -42.5l-125 -201h-162v28q36 4 48.5 9.5t25.5 24.5l80 124q29 44 61.5 65t83.5 28q-21 10 -33.5 20.5t-45.5 43.5l-97 95q-22 22 -37 29.5t-51 13.5v30h192v-30q-50 -7 -50 -23q0 -11 23 -35l55 -59q35 -39 63 -56t60 -20v159
q0 18 -11 23.5t-56 10.5v30h237v-30q-45 -5 -56 -10.5t-11 -23.5v-159q59 5 124 76l55 59q23 26 23 36q0 15 -50 22v30h191v-30q-35 -5 -50.5 -12.5t-35.5 -28.5l-98 -97q-33 -33 -46.5 -43.5t-33.5 -20.5q52 -7 84 -28t61 -65l80 -124q13 -19 25.5 -24.5t48.5 -9.5v-28
h-161l-126 201q-21 33 -37.5 42.5t-53.5 8.5v-188q0 -18 10.5 -23.5t56.5 -10.5v-30h-237v30q46 5 56.5 10.5t10.5 23.5z" />
    <glyph glyph-name="afii10073" unicode="&#x437;" horiz-adv-x="507" 
d="M156 377h-49q-59 0 -59 44q0 46 50.5 74t133.5 28q98 0 157.5 -41t59.5 -108q0 -82 -85 -118q95 -32 95 -122q0 -68 -57.5 -107t-159.5 -39q-90 0 -143.5 32t-78.5 102l33 14q24 -46 45 -63q46 -38 118 -38q61 0 94 26t33 74q0 101 -129 101h-49v38h49q63 0 92.5 24.5
t29.5 76.5q0 51 -29 81.5t-78 30.5q-44 0 -73 -23v-87z" />
    <glyph glyph-name="afii10074" unicode="&#x438;" horiz-adv-x="647" 
d="M214 151l220 277v19q0 17 -11 23t-56 11v30h246v-30q-47 -5 -58 -10.5t-11 -23.5v-383q0 -18 10.5 -23.5t58.5 -10.5v-30h-246v30q46 5 56.5 10.5t10.5 23.5v302l-220 -277v-25q0 -18 10.5 -23.5t56.5 -10.5v-30h-246v30q48 5 58.5 10.5t10.5 23.5v383q0 18 -11 23.5
t-58 10.5v30h246v-30q-45 -5 -56 -10.5t-11 -23.5v-296z" />
    <glyph glyph-name="afii10075" unicode="&#x439;" horiz-adv-x="647" 
d="M214 151l220 277v19q0 17 -11 23t-56 11v30h246v-30q-47 -5 -58 -10.5t-11 -23.5v-383q0 -18 10.5 -23.5t58.5 -10.5v-30h-246v30q46 5 56.5 10.5t10.5 23.5v302l-220 -277v-25q0 -18 10.5 -23.5t56.5 -10.5v-30h-246v30q48 5 58.5 10.5t10.5 23.5v383q0 18 -11 23.5
t-58 10.5v30h246v-30q-45 -5 -56 -10.5t-11 -23.5v-296zM415 734h39q-12 -69 -51 -102q-33 -30 -79 -30t-79 30q-39 33 -51 102h39q24 -62 91 -62q68 0 91 62z" />
    <glyph glyph-name="afii10076" unicode="&#x43a;" horiz-adv-x="605" 
d="M214 235l183 188q23 24 23 36q0 15 -50 22v30h191v-30q-53 -8 -78 -32l-127 -126l177 -257q13 -19 24.5 -25.5t42.5 -10.5v-30h-236v30q28 5 37.5 9t9.5 11q0 8 -8 19l-122 182l-67 -68v-119q0 -18 10.5 -23.5t56.5 -10.5v-30h-246v30q48 5 58.5 10.5t10.5 23.5v383
q0 18 -10.5 23.5t-58.5 10.5v30h246v-30q-47 -6 -57 -11t-10 -23v-212z" />
    <glyph glyph-name="afii10077" unicode="&#x43b;" horiz-adv-x="587" 
d="M108 0h-108v30q64 43 99.5 102.5t60.5 168.5l18 71q13 50 13 77q0 18 -12.5 24.5t-53.5 9.5v28h427v-30q-47 -6 -57 -11t-10 -23v-383q0 -18 10.5 -23.5t56.5 -10.5v-30h-246v30q47 5 58 10.5t11 23.5v377q0 20 -13.5 27t-50.5 7q-41 0 -55 -13.5t-27 -64.5l-21 -87
q-46 -204 -100 -310z" />
    <glyph glyph-name="afii10078" unicode="&#x43c;" horiz-adv-x="759" 
d="M229 511l153 -373l153 373h190v-30q-47 -5 -58 -10.5t-11 -23.5v-383q0 -18 10.5 -23.5t58.5 -10.5v-30h-246v30q46 5 56.5 10.5t10.5 23.5v364l-175 -428h-46l-175 419v-355q0 -18 11 -24t56 -10v-30h-182v30q47 5 58 10.5t11 23.5v383q0 18 -11 23.5t-58 10.5v30h194z
" />
    <glyph glyph-name="afii10079" unicode="&#x43d;" horiz-adv-x="643" 
d="M214 285h216v162q0 17 -11 23t-56 11v30h246v-30q-47 -5 -58 -10.5t-11 -23.5v-383q0 -18 10.5 -23.5t58.5 -10.5v-30h-246v30q46 5 56.5 10.5t10.5 23.5v184h-216v-184q0 -18 10.5 -23.5t56.5 -10.5v-30h-246v30q48 5 58.5 10.5t10.5 23.5v383q0 18 -11 23.5t-58 10.5
v30h246v-30q-45 -5 -56 -10.5t-11 -23.5v-162z" />
    <glyph glyph-name="afii10080" unicode="&#x43e;" horiz-adv-x="604" 
d="M301 523q108 0 181 -77t73 -191q0 -113 -73 -190t-181 -77q-93 0 -162 60q-91 77 -91 211q0 111 73.5 187.5t179.5 76.5zM304 485q-67 0 -103.5 -60t-36.5 -169q0 -108 36.5 -169t100.5 -61q66 0 102 59.5t36 168.5q0 108 -36 169.5t-99 61.5z" />
    <glyph glyph-name="afii10081" unicode="&#x43f;" horiz-adv-x="632" 
d="M104 64v383q0 18 -11 23.5t-58 10.5v30h563v-30q-47 -5 -58 -10.5t-11 -23.5v-383q0 -18 10.5 -23.5t58.5 -10.5v-30h-246v30q46 5 56.5 10.5t10.5 23.5v374q0 22 -16.5 29t-64.5 7h-43q-48 0 -64.5 -7t-16.5 -29v-374q0 -18 10.5 -23.5t56.5 -10.5v-30h-246v30
q48 5 58.5 10.5t10.5 23.5z" />
    <glyph glyph-name="afii10082" unicode="&#x440;" horiz-adv-x="629" 
d="M161 518h33l10 -99q72 104 173 104q91 0 147.5 -73.5t56.5 -191.5q0 -121 -62 -195.5t-162 -74.5q-81 0 -144 63v-205q0 -19 11 -24t60 -10v-30h-245v30q43 5 54 11t11 23v547q0 25 -17 34.5t-62 10.5v30zM213 324v-128q0 -160 123 -160q129 0 129 216q0 123 -48 174
q-34 37 -79 37q-53 0 -89 -40t-36 -99z" />
    <glyph glyph-name="afii10083" unicode="&#x441;" horiz-adv-x="528" 
d="M461 136l34 -14q-58 -134 -201 -134q-110 0 -178 74t-68 192q0 120 71.5 194.5t187.5 74.5q80 0 129.5 -28t49.5 -74q0 -24 -16 -38.5t-43 -14.5h-55v94q-29 23 -74 23q-133 0 -133 -225q0 -128 52 -180q41 -41 98 -41q52 0 85.5 22.5t60.5 74.5z" />
    <glyph glyph-name="afii10084" unicode="&#x442;" horiz-adv-x="512" 
d="M201 473h-54q-39 0 -53.5 -18t-48.5 -110h-32l7 166h472l7 -166h-32q-34 92 -48.5 110t-53.5 18h-54v-409q0 -18 10.5 -23.5t56.5 -10.5v-30h-246v30q48 5 58.5 10.5t10.5 23.5v409z" />
    <glyph glyph-name="afii10085" unicode="&#x443;" horiz-adv-x="580" 
d="M85 -218v32q128 62 188 192l-195 441q-10 25 -63 34v30h240v-30q-60 -8 -60 -25q0 -5 5 -17l128 -305l123 295q6 13 6 23q0 21 -58 29v30h167v-30q-29 -6 -41.5 -14.5t-21.5 -29.5l-175 -407q-69 -159 -138 -248h-105z" />
    <glyph glyph-name="afii10086" unicode="&#x444;" horiz-adv-x="837" 
d="M372 -151v203q-57 -64 -132 -64q-86 0 -139 74t-53 195q0 117 52 191.5t134 74.5q80 0 138 -88v215q0 24 -17 34t-63 12v31l134 49h39v-341q58 88 138 88q82 0 134 -74.5t52 -191.5q0 -121 -53 -195t-139 -74q-75 0 -132 64v-206q0 -18 10 -23t52 -9l18 -2v-30h-247v30
q52 6 63 11.5t11 25.5zM372 196v134q0 55 -30 94t-72 39q-109 0 -109 -212q0 -215 103 -215q108 0 108 160zM465 330v-134q0 -160 108 -160q103 0 103 215q0 212 -109 212q-42 0 -72 -39t-30 -94z" />
    <glyph glyph-name="afii10087" unicode="&#x445;" horiz-adv-x="615" 
d="M37 0v30q37 6 53.5 13t27.5 22l133 187l-148 204q-13 16 -57 25v30h243v-30q-35 -5 -47 -9t-12 -12q0 -6 9 -18l100 -139l88 133q8 11 8 20t-12 14t-48 11v30h181v-30q-32 -7 -47 -15t-27 -25l-120 -169l152 -208q12 -16 24.5 -23t39.5 -11v-30h-241v30q37 6 47.5 9.5
t10.5 10.5q0 6 -7 16l-114 156l-98 -147q-9 -12 -9 -21t12.5 -14t48.5 -10v-30h-191z" />
    <glyph glyph-name="afii10088" unicode="&#x446;" horiz-adv-x="626" 
d="M35 0v30q48 5 58.5 10.5t10.5 23.5v383q0 18 -11 23.5t-58 10.5v30h246v-30q-45 -5 -56 -10.5t-11 -23.5v-374q0 -22 16.5 -29t64.5 -7h37q48 0 64.5 7t16.5 29v374q0 18 -11 23.5t-56 10.5v30h246v-30q-47 -5 -58 -10.5t-11 -23.5v-383q0 -18 13 -24.5t56 -9.5l4 -188
h-30q-21 89 -51.5 123.5t-88.5 34.5h-391z" />
    <glyph glyph-name="afii10089" unicode="&#x447;" horiz-adv-x="609" 
d="M396 64v105q-53 -15 -112 -15q-131 0 -179 63q-28 37 -28 119v111q0 18 -10 23.5t-51 10.5v30h238v-30q-46 -5 -56.5 -10.5t-10.5 -23.5v-120q0 -76 34 -106q33 -30 99 -30q43 0 76 11v245q0 18 -10 23t-56 11v30h245v-30q-47 -5 -58 -10.5t-11 -23.5v-383
q0 -18 10.5 -23.5t58.5 -10.5v-30h-249v30q48 5 59 10.5t11 23.5z" />
    <glyph glyph-name="afii10090" unicode="&#x448;" horiz-adv-x="909" 
d="M104 64v383q0 18 -11 23.5t-58 10.5v30h238v-30q-41 -6 -50 -11t-9 -23v-374q0 -21 16.5 -28.5t63.5 -7.5h26q47 0 63.5 7.5t16.5 28.5v374q0 18 -9.5 23.5t-49.5 10.5v30h228v-30q-40 -5 -49.5 -10.5t-9.5 -23.5v-374q0 -21 16.5 -28.5t63.5 -7.5h26q47 0 63.5 7.5
t16.5 28.5v374q0 18 -9 23t-50 11v30h238v-30q-47 -5 -58 -10.5t-11 -23.5v-383q0 -18 11 -23.5t58 -10.5v-30h-840v30q48 5 58.5 10.5t10.5 23.5z" />
    <glyph glyph-name="afii10091" unicode="&#x449;" horiz-adv-x="909" 
d="M879 -158h-30q-21 89 -51.5 123.5t-88.5 34.5h-674v30q48 5 58.5 10.5t10.5 23.5v383q0 18 -11 23.5t-58 10.5v30h238v-30q-41 -6 -50 -11t-9 -23v-374q0 -21 16.5 -28.5t63.5 -7.5h26q47 0 63.5 7.5t16.5 28.5v374q0 18 -9.5 23.5t-49.5 10.5v30h228v-30
q-40 -5 -49.5 -10.5t-9.5 -23.5v-374q0 -21 16.5 -28.5t63.5 -7.5h26q47 0 63.5 7.5t16.5 28.5v374q0 18 -9 23t-50 11v30h238v-30q-47 -5 -58 -10.5t-11 -23.5v-383q0 -18 12.5 -24t56.5 -10z" />
    <glyph glyph-name="afii10092" unicode="&#x44a;" horiz-adv-x="610" 
d="M40 345h-32l9 166h374v-30q-55 -5 -68 -10.5t-13 -23.5v-128h51q125 0 180 -41q57 -42 57 -119t-58 -118t-168 -41h-236v30q45 6 54.5 11t9.5 23v383q0 15 -9.5 21t-32.5 6h-26q-38 0 -51 -18t-41 -111zM310 283v-219q0 -17 14 -23.5t52 -6.5q106 0 106 127
q0 59 -28 90.5t-80 31.5h-64z" />
    <glyph glyph-name="afii10093" unicode="&#x44b;" horiz-adv-x="805" 
d="M214 319h51q123 0 180 -41q56 -42 56 -119t-58 -118t-167 -41h-236v30q45 6 54.5 11t9.5 23v383q0 18 -11 23.5t-58 10.5v30h260v-30q-55 -5 -68 -10.5t-13 -23.5v-128zM214 283v-219q0 -17 14 -23.5t52 -6.5q105 0 105 127q0 122 -107 122h-64zM593 64v383
q0 18 -11 23.5t-58 10.5v30h246v-30q-45 -5 -56 -10.5t-11 -23.5v-383q0 -18 10.5 -23.5t56.5 -10.5v-30h-246v30q48 5 58.5 10.5t10.5 23.5z" />
    <glyph glyph-name="afii10094" unicode="&#x44c;" horiz-adv-x="522" 
d="M214 319h51q123 0 180 -41q56 -42 56 -119t-58 -118t-167 -41h-236v30q45 6 54.5 11t9.5 23v383q0 18 -11 23.5t-58 10.5v30h260v-30q-55 -5 -68 -10.5t-13 -23.5v-128zM214 283v-219q0 -17 14 -23.5t52 -6.5q105 0 105 127q0 122 -107 122h-64z" />
    <glyph glyph-name="afii10095" unicode="&#x44d;" horiz-adv-x="528" 
d="M362 235h-235v39h235q-3 211 -133 211q-44 0 -73 -23v-92h-55q-26 0 -42 14t-16 37q0 45 50.5 73.5t129.5 28.5q115 0 186 -74.5t71 -193.5t-69 -193t-179 -74q-144 0 -202 134l33 14q29 -53 62.5 -75t85.5 -22q86 0 124 75q24 45 27 121z" />
    <glyph glyph-name="afii10096" unicode="&#x44e;" horiz-adv-x="889" 
d="M214 285h122q10 99 73 163q73 75 178 75q107 0 180.5 -77.5t73.5 -190.5t-73 -190t-181 -77q-106 0 -177 73.5t-76 186.5h-120v-184q0 -18 10.5 -23.5t56.5 -10.5v-30h-246v30q48 5 58.5 10.5t10.5 23.5v383q0 18 -11 23.5t-58 10.5v30h246v-30q-45 -5 -56 -10.5
t-11 -23.5v-162zM590 485q-67 0 -103.5 -60t-36.5 -169q0 -107 36.5 -168.5t100.5 -61.5q66 0 102 59.5t36 168.5q0 108 -36 169.5t-99 61.5z" />
    <glyph glyph-name="afii10097" unicode="&#x44f;" horiz-adv-x="582" 
d="M369 232h-27q-32 0 -53.5 -15t-43.5 -52l-40 -67q-41 -73 -71 -98h-140v30q28 0 46 13t41 49l45 71q20 31 40.5 48t50.5 28q-70 12 -101 38q-47 37 -47 98q0 81 79 114q57 22 201 22h199v-30q-47 -5 -58 -10.5t-11 -23.5v-383q0 -18 10.5 -23.5t58.5 -10.5v-30h-246v30
q46 5 56.5 10.5t10.5 23.5v168zM369 266v208h-57q-67 0 -97 -24.5t-30 -79.5q0 -56 34 -80t114 -24h36z" />
    <glyph glyph-name="afii10071" unicode="&#x451;" horiz-adv-x="559" 
d="M163 276v-21q0 -106 43 -161t125 -55q49 0 82 19t64 65l29 -16q-63 -119 -202 -119q-113 0 -184.5 74.5t-71.5 193.5q0 117 69 192t178 75q101 0 160 -71q27 -33 39 -72t14 -104h-345zM387 314v22q0 73 -25.5 111t-73.5 38q-66 0 -98 -67q-16 -32 -24 -104h221zM387 733
q25 0 44 -18.5t19 -44.5t-18.5 -44.5t-44.5 -18.5q-25 0 -44 18.5t-19 44.5t19 44.5t44 18.5zM187 733q25 0 44 -18.5t19 -44.5t-18.5 -44.5t-44.5 -18.5q-25 0 -44 18.5t-19 44.5t19 44.5t44 18.5z" />
    <glyph glyph-name="afii10099" unicode="&#x452;" horiz-adv-x="625" 
d="M42 0v30q42 5 52.5 10.5t10.5 23.5v528h-82v39h82v21q0 24 -16.5 33.5t-63.5 11.5v29l146 50h39v-145h125v-39h-125v-163q75 94 177 94q69 0 108.5 -38.5t39.5 -106.5v-382q0 -100 -50.5 -160.5t-133.5 -60.5q-47 0 -76 17.5t-29 46.5q0 21 15.5 33.5t41.5 12.5h29
l27 -73q38 5 53.5 39.5t15.5 110.5v405q0 42 -24.5 67t-65.5 25q-51 0 -89.5 -33t-38.5 -77v-285q0 -17 11 -23t51 -11v-30h-230z" />
    <glyph glyph-name="afii10100" unicode="&#x453;" horiz-adv-x="466" 
d="M446 511l8 -166h-32q-34 92 -49 110t-54 18h-105v-409q0 -17 9.5 -22.5t45.5 -10.5l12 -1v-30h-246v30q48 5 58.5 10.5t10.5 23.5v382q0 19 -10.5 24.5t-58.5 10.5v30h411zM197 579l70 136q13 26 24.5 35.5t29.5 9.5q20 0 33.5 -13.5t13.5 -33.5q0 -28 -37 -57l-97 -77
h-37z" />
    <glyph glyph-name="afii10101" unicode="&#x454;" horiz-adv-x="486" 
d="M434 120l30 -15q-61 -117 -211 -117q-94 0 -149 40.5t-55 110.5q0 85 78 120q-72 36 -72 111q0 70 55 111.5t148 41.5q88 0 140 -27q42 -21 42 -61q0 -49 -59 -49h-47v82q-30 17 -65 17q-49 0 -75.5 -28.5t-26.5 -80.5q0 -50 26 -73.5t82 -23.5h46v-37h-47
q-58 0 -84.5 -24t-26.5 -75q0 -104 124 -104q50 0 83 18.5t64 62.5z" />
    <glyph glyph-name="afii10102" unicode="&#x455;" horiz-adv-x="486" 
d="M405 375h-41q-23 65 -47 87t-72 22q-46 0 -71.5 -20t-25.5 -55q0 -45 45 -67q26 -13 88 -34q76 -26 105 -48q53 -40 53 -108q0 -75 -54.5 -119.5t-146.5 -44.5q-78 0 -170 37v131h42q26 -77 53 -103t81 -26q51 0 80 22t29 61q0 47 -47 73q-24 12 -90 34q-82 29 -115.5 64
t-33.5 93q0 70 50.5 109.5t138.5 39.5q74 0 149 -29v-119z" />
    <glyph glyph-name="afii10103" unicode="&#x456;" horiz-adv-x="315" 
d="M183 518h38v-454q0 -17 12.5 -23.5t54.5 -10.5v-30h-248v30q48 5 58.5 10.5t10.5 23.5v329q0 25 -17.5 34.5t-65.5 10.5v30zM162 738q28 0 48 -20t20 -48t-20 -47.5t-48 -19.5t-47.5 20t-19.5 48t19.5 47.5t47.5 19.5z" />
    <glyph glyph-name="afii10104" unicode="&#x457;" horiz-adv-x="315" 
d="M182 518h39v-454q0 -15 10 -21.5t40 -10.5l16 -2v-30h-247v30q48 5 58.5 10.5t10.5 23.5v329q0 25 -17.5 34.5t-65.5 10.5v30zM257 735q26 0 45 -19t19 -45t-19 -45t-46 -19q-26 0 -44.5 19t-18.5 45t19 45t45 19zM57 735q26 0 45 -19t19 -45t-19 -45t-45 -19t-45 19
t-19 45t19 45t45 19z" />
    <glyph glyph-name="afii10105" unicode="&#x458;" horiz-adv-x="310" 
d="M221 518v-521q0 -101 -51 -161.5t-136 -60.5q-49 0 -78 18t-29 47q0 21 16 34t42 13h29l28 -75q37 4 52 38.5t15 111.5v431q0 25 -17.5 34.5t-65.5 10.5v30l156 50h39zM162 738q28 0 48 -20t20 -48t-20 -47.5t-48 -19.5t-47.5 20t-19.5 48t19.5 47.5t47.5 19.5z" />
    <glyph glyph-name="afii10106" unicode="&#x459;" horiz-adv-x="792" 
d="M485 319h51q123 0 180 -41q56 -42 56 -119t-58 -118t-167 -41h-236v30q45 6 54.5 11t9.5 23v378q0 19 -13.5 26t-49.5 7q-42 0 -56 -13.5t-27 -64.5l-21 -87q-46 -204 -100 -310h-108v30q64 43 99 102t61 169l18 71q14 51 14 77q0 18 -12.5 24t-54.5 10v28h436v-30
q-53 -6 -64.5 -11t-11.5 -23v-128zM485 283v-219q0 -17 14 -23.5t52 -6.5q105 0 105 127q0 122 -107 122h-64z" />
    <glyph glyph-name="afii10107" unicode="&#x45a;" horiz-adv-x="840" 
d="M430 260h-216v-196q0 -18 10.5 -23.5t56.5 -10.5v-30h-246v30q48 5 58.5 10.5t10.5 23.5v383q0 18 -11 23.5t-58 10.5v30h246v-30q-45 -5 -56 -10.5t-11 -23.5v-151h216v151q0 18 -11 23.5t-58 10.5v30h260v-30q-55 -5 -68 -10.5t-13 -23.5v-151h51q124 0 180 -38
q56 -39 56 -110q0 -72 -58 -110t-167 -38h-236v30q45 6 54.5 11t9.5 23v196zM540 260v-196q0 -17 14.5 -23.5t52.5 -6.5q104 0 104 116q0 110 -107 110h-64z" />
    <glyph glyph-name="afii10108" unicode="&#x45b;" horiz-adv-x="626" 
d="M105 592h-82v39h82v21q0 24 -16.5 33.5t-63.5 11.5v29l146 50h39v-145h125v-39h-125v-163q75 94 177 94q69 0 109 -39t40 -106v-314q0 -16 12 -22.5t53 -11.5v-30h-234v30q40 5 50.5 11t10.5 23v303q0 42 -24.5 67t-65.5 25q-52 0 -90 -33t-38 -77v-285q0 -17 10.5 -23
t50.5 -11v-30h-231v30q44 5 54.5 10.5t10.5 23.5v528z" />
    <glyph glyph-name="afii10109" unicode="&#x45c;" horiz-adv-x="605" 
d="M214 235l183 188q23 24 23 36q0 15 -50 22v30h191v-30q-53 -8 -78 -32l-127 -126l177 -257q13 -19 24.5 -25.5t42.5 -10.5v-30h-236v30q28 5 37.5 9t9.5 11q0 8 -8 19l-122 182l-67 -68v-119q0 -18 10.5 -23.5t56.5 -10.5v-30h-246v30q48 5 58.5 10.5t10.5 23.5v383
q0 18 -10.5 23.5t-58.5 10.5v30h246v-30q-47 -6 -57 -11t-10 -23v-212zM285 579l70 136q13 26 24.5 35.5t29.5 9.5q20 0 33.5 -13.5t13.5 -33.5q0 -28 -37 -57l-97 -77h-37z" />
    <glyph glyph-name="afii10110" unicode="&#x45e;" horiz-adv-x="580" 
d="M85 -218v32q128 62 188 192l-195 441q-10 25 -63 34v30h240v-30q-60 -8 -60 -25q0 -5 5 -17l128 -305l123 295q6 13 6 23q0 21 -58 29v30h167v-30q-29 -6 -41.5 -14.5t-21.5 -29.5l-175 -407q-69 -159 -138 -248h-105zM410 734h39q-12 -69 -51 -102q-33 -30 -79 -30
t-79 30q-39 33 -51 102h39q24 -62 91 -62q68 0 91 62z" />
    <glyph glyph-name="afii10193" unicode="&#x45f;" horiz-adv-x="626" 
d="M35 0v30q48 5 58.5 10.5t10.5 23.5v383q0 18 -11 23.5t-58 10.5v30h246v-30q-45 -5 -56 -10.5t-11 -23.5v-374q0 -22 16.5 -29t64.5 -7h37q48 0 64.5 7t16.5 29v374q0 18 -11 23.5t-56 10.5v30h246v-30q-47 -5 -58 -10.5t-11 -23.5v-383q0 -18 10.5 -23.5t57.5 -10.5v-30
h-126q-37 0 -58 -9t-36 -32q-29 -45 -44 -117h-26q-15 74 -43 117q-27 41 -95 41h-128z" />
    <glyph glyph-name="afii10050" unicode="&#x490;" horiz-adv-x="602" 
d="M74 656v32h362q25 0 36 2t25 19t23 40.5t30 80.5h40l-8 -181h-304v-574q0 -20 18 -28t77 -15v-32h-299v32q53 7 69 15t16 28v538q0 20 -15.5 27.5t-69.5 15.5z" />
    <glyph glyph-name="afii10098" unicode="&#x491;" horiz-adv-x="442" 
d="M35 481v30h260q39 0 54 18t49 110h32l-8 -166h-208v-409q0 -18 10.5 -23.5t56.5 -10.5v-30h-246v30q48 5 58.5 10.5t10.5 23.5v382q0 19 -10.5 24.5t-58.5 10.5z" />
    <glyph glyph-name="uni04BB" unicode="&#x4bb;" horiz-adv-x="395" 
d="M198 463q62 0 105 -44t43 -108t-43.5 -108t-106.5 -44q-61 0 -104 44.5t-43 107.5q0 64 43.5 108t105.5 44z" />
    <glyph glyph-name="uni04C0" unicode="&#x4c0;" horiz-adv-x="393" 
d="M137 75v538q0 20 -16.5 28t-72.5 15v32h297v-32q-57 -7 -73 -15t-16 -28v-538q0 -20 16.5 -28t72.5 -15v-32h-297v32q56 7 72.5 15t16.5 28z" />
    <glyph glyph-name="Wdieresis" unicode="&#x1e84;" horiz-adv-x="1055" 
d="M301 -9l-189 623q-7 20 -22.5 28.5t-57.5 13.5v32h271v-32q-42 -5 -55.5 -12t-13.5 -21q0 -6 2 -16l127 -440h7l169 521h48l174 -519h7l122 438q3 9 3 17q1 11 -12 17.5t-43 11.5l-21 3v32h205v-32q-44 -5 -59 -13t-20 -27l-176 -625h-63l-171 515h-5l-166 -515h-61z
M657 881q25 0 44 -18.5t19 -44.5t-18.5 -44.5t-44.5 -18.5q-25 0 -44 18.5t-19 44.5t19 44.5t44 18.5zM457 881q25 0 44 -18.5t19 -44.5t-18.5 -44.5t-44.5 -18.5q-25 0 -44 18.5t-19 44.5t19 44.5t44 18.5z" />
    <glyph glyph-name="uni2011" unicode="&#x2011;" horiz-adv-x="401" 
d="M77 235v74h248v-74h-248z" />
    <glyph glyph-name="figuredash" unicode="&#x2012;" horiz-adv-x="401" 
d="M14 245v54h374v-54h-374z" />
    <glyph glyph-name="endash" unicode="&#x2013;" horiz-adv-x="401" 
d="M14 245v54h374v-54h-374z" />
    <glyph glyph-name="emdash" unicode="&#x2014;" horiz-adv-x="602" 
d="M-36 245v54h674v-54h-674z" />
    <glyph glyph-name="afii00208" unicode="&#x2015;" horiz-adv-x="602" 
d="M-36 245v54h674v-54h-674z" />
    <glyph glyph-name="underscoredbl" unicode="&#x2017;" horiz-adv-x="401" 
d="M-16 -218v50h434v-50h-434zM-16 -128v50h434v-50h-434z" />
    <glyph glyph-name="quoteleft" unicode="&#x2018;" horiz-adv-x="272" 
d="M212 787l13 -28q-59 -30 -84.5 -63.5t-25.5 -79.5q15 7 33 7q28 0 47 -17.5t19 -43.5q0 -27 -20 -44.5t-49 -17.5q-40 0 -65.5 30t-25.5 77q0 59 41 105.5t117 74.5z" />
    <glyph glyph-name="quoteright" unicode="&#x2019;" horiz-adv-x="272" 
d="M58 490l-13 28q59 29 84.5 62.5t24.5 79.5q-15 -6 -28 -6h-4q-28 0 -47 17.5t-19 43.5q0 27 20 44.5t49 17.5q40 0 66 -30t26 -77q0 -59 -41.5 -105.5t-117.5 -74.5z" />
    <glyph glyph-name="quotesinglbase" unicode="&#x201a;" horiz-adv-x="272" 
d="M58 -145l-13 27q58 29 84 62.5t25 80.5q-15 -6 -28 -6h-4q-28 0 -47 17.5t-19 43.5q0 27 20 44.5t49 17.5q40 0 66 -30.5t26 -77.5q0 -120 -159 -179z" />
    <glyph glyph-name="quotedblleft" unicode="&#x201c;" horiz-adv-x="492" 
d="M433 787l13 -28q-58 -29 -84 -62.5t-26 -80.5q15 7 33 7q28 0 47 -17.5t19 -43.5q0 -27 -20 -44.5t-49 -17.5q-41 0 -66.5 30t-25.5 77q0 59 41.5 105.5t117.5 74.5zM212 787l13 -28q-59 -30 -84.5 -63.5t-25.5 -79.5q15 7 33 7q28 0 47 -17.5t19 -43.5q0 -27 -20 -44.5
t-49 -17.5q-40 0 -65.5 30t-25.5 77q0 59 41 105.5t117 74.5z" />
    <glyph glyph-name="quotedblright" unicode="&#x201d;" horiz-adv-x="492" 
d="M58 490l-13 28q59 29 84.5 62.5t24.5 79.5q-15 -6 -28 -6h-4q-28 0 -47 17.5t-19 43.5q0 27 20 44.5t49 17.5q40 0 66 -30t26 -77q0 -59 -41.5 -105.5t-117.5 -74.5zM279 490l-13 28q58 29 84 62.5t25 79.5q-15 -6 -28 -6h-4q-28 0 -47 17.5t-19 43.5q0 27 20 44.5
t49 17.5q40 0 65.5 -30t25.5 -77q0 -59 -41 -105.5t-117 -74.5z" />
    <glyph glyph-name="quotedblbase" unicode="&#x201e;" horiz-adv-x="492" 
d="M58 -145l-13 27q58 29 84 62.5t25 80.5q-15 -6 -28 -6h-4q-28 0 -47 17.5t-19 43.5q0 27 20 44.5t49 17.5q40 0 66 -30.5t26 -77.5q0 -120 -159 -179zM279 -145l-13 27q58 30 84 63.5t25 79.5q-15 -6 -28 -6h-4q-28 0 -47 17.5t-19 43.5q0 27 20 44.5t49 17.5
q40 0 65.5 -30.5t25.5 -77.5q0 -120 -158 -179z" />
    <glyph glyph-name="dagger" unicode="&#x2020;" horiz-adv-x="456" 
d="M105 416h-23q-26 0 -40.5 13.5t-14.5 36.5t15 36t40 13h23l108 -37l-39 142v25q0 25 15 40.5t38 15.5t38.5 -15.5t15.5 -40.5v-25l-40 -142l108 37h23q25 0 40 -13t15 -36t-14.5 -36.5t-40.5 -13.5h-23l-108 36l43 -130l-39 -401h-36l-38 401l42 130z" />
    <glyph glyph-name="daggerdbl" unicode="&#x2021;" horiz-adv-x="456" 
d="M105 416h-24q-25 0 -39.5 13.5t-14.5 36.5q0 22 14.5 35.5t39.5 13.5h24l108 -37l-39 142v26q0 24 15 39.5t38 15.5q24 0 39 -15.5t15 -39.5v-26l-40 -142l108 37h24q25 0 39.5 -13.5t14.5 -35.5q0 -23 -14.5 -36.5t-39.5 -13.5h-24l-109 37l49 -142l-49 -142l109 37h24
q25 0 39.5 -13.5t14.5 -36.5q0 -22 -14.5 -35.5t-39.5 -13.5h-24l-108 36l39 -141v-26q0 -24 -15 -39.5t-38 -15.5q-24 0 -39 15.5t-15 39.5v26l39 141l-107 -36h-24q-25 0 -39.5 13.5t-14.5 35.5q0 23 14.5 36.5t39.5 13.5h24l108 -37l-48 142l48 142z" />
    <glyph glyph-name="bullet" unicode="&#x2022;" horiz-adv-x="395" 
d="M198 463q62 0 105 -44t43 -108t-43.5 -108t-106.5 -44q-61 0 -104 44.5t-43 107.5q0 64 43.5 108t105.5 44z" />
    <glyph glyph-name="ellipsis" unicode="&#x2026;" horiz-adv-x="800" 
d="M140 128q28 0 49 -21t21 -49q0 -29 -21 -49.5t-50 -20.5q-28 0 -48.5 21t-20.5 49t21 49t49 21zM658 127q29 0 49.5 -20t20.5 -49t-20.5 -49.5t-49.5 -20.5q-28 0 -48.5 21t-20.5 49t20.5 48.5t48.5 20.5zM399 127q29 0 49.5 -20t20.5 -49t-20.5 -49.5t-49.5 -20.5
q-28 0 -48.5 21t-20.5 49t20.5 48.5t48.5 20.5z" />
    <glyph glyph-name="perthousand" unicode="&#x2030;" horiz-adv-x="1221" 
d="M624 349q71 0 120 -52.5t49 -128.5t-49 -128t-122 -52q-69 0 -118 52.5t-49 127.5q0 76 49 128.5t120 52.5zM625 315q-75 0 -75 -149q0 -69 19.5 -106.5t54.5 -37.5q74 0 74 146q0 147 -73 147zM1010 349q70 0 120 -53t50 -128q0 -76 -49.5 -128t-122.5 -52
q-69 0 -117.5 52.5t-48.5 127.5q0 76 49 128.5t119 52.5zM1011 315q-75 0 -75 -149q0 -69 19.5 -106.5t54.5 -37.5q74 0 74 146q0 147 -73 147zM209 700q71 0 120.5 -52.5t49.5 -127.5q0 -76 -50 -128.5t-121 -52.5q-70 0 -118.5 53t-48.5 128t49 127.5t119 52.5zM210 666
q-75 0 -75 -146q0 -147 74 -147t74 147q0 146 -73 146zM164 0l441 688h64l-441 -688h-64z" />
    <glyph glyph-name="guilsinglleft" unicode="&#x2039;" horiz-adv-x="277" 
d="M207 50l-177 193l177 193l33 -21l-100 -172l100 -172z" />
    <glyph glyph-name="guilsinglright" unicode="&#x203a;" horiz-adv-x="277" 
d="M70 50l-33 21l100 172l-100 172l33 21l177 -193z" />
    <glyph glyph-name="uni203E" unicode="&#x203e;" horiz-adv-x="401" 
d="M-16 783v50h434v-50h-434z" />
    <glyph glyph-name="fraction" unicode="&#x2044;" horiz-adv-x="297" 
d="M-100 0l434 678h63l-434 -678h-63z" />
    <glyph glyph-name="Euro" unicode="&#x20ac;" horiz-adv-x="602" 
d="M24 386v42h78q14 78 37.5 125t65.5 84q73 63 180 63q82 0 133.5 -31t51.5 -79q0 -26 -17 -41.5t-46 -15.5h-56v99q-30 31 -74 31q-83 0 -122 -85q-24 -50 -33 -150h186v-42h-188q-1 -14 -1 -42v-35h189v-42h-187q12 -123 50 -176.5t113 -53.5q59 0 95 31t61 104l35 -6
q-44 -178 -212 -178q-95 0 -163 60q-42 38 -64.5 87.5t-35.5 131.5h-76v42h73q-1 8 -1 22v13v10q0 20 1 32h-73z" />
    <glyph glyph-name="afii61352" unicode="&#x2116;" horiz-adv-x="1119" 
d="M918 522q74 0 121 -48.5t47 -124.5t-47.5 -124t-122.5 -48t-122.5 48t-47.5 124q0 77 48 125t124 48zM917 490q-35 0 -50.5 -34t-15.5 -109q0 -139 65 -139t65 141t-64 141zM1086 113v-43h-340v43h340zM648 -7h-48l-418 589h-4v-507q0 -22 14.5 -29t71.5 -14v-32h-219v32
q54 7 61 9q25 8 25 34v537q0 21 -13.5 29t-54.5 13l-9 1l-9 1v32h202l349 -490h4v415q0 20 -16 28t-70 15v32h210v-32q-48 -7 -62 -15t-14 -28v-620z" />
    <glyph glyph-name="trademark" unicode="&#x2122;" horiz-adv-x="863" 
d="M557 367l-105 278v-234q0 -9 6 -13t25 -5h5l5 -1v-24h-110v24l9 1q19 1 24.5 4.5t5.5 13.5v226q0 15 -7 20t-32 8v23h131l85 -228l86 228h130v-23q-24 -3 -31.5 -6.5t-7.5 -13.5v-234q0 -9 7 -12.5t32 -6.5v-24h-153v24q24 3 30.5 6.5t6.5 12.5v227l-104 -271h-38z
M109 368v24q26 3 35 7t9 12v251h-19q-30 0 -40 -10.5t-27 -57.5h-25l4 94h292l5 -94h-25q-16 45 -27.5 56.5t-41.5 11.5h-18v-251q0 -8 9 -12t35 -7v-24h-166z" />
    <glyph glyph-name="uni2126" unicode="&#x2126;" horiz-adv-x="830" 
d="M84 0l-38 138h31q15 -44 42 -59.5t91 -16.5l97 -4v6q-88 34 -142 88q-91 94 -91 222q0 72 30.5 138t84.5 112q90 76 225 76q167 0 264 -115q76 -92 76 -211q0 -128 -90 -221q-52 -53 -142 -89v-6l101 5q61 0 87 15.5t41 59.5h32l-39 -138h-288v60q43 25 65 44.5t43 49.5
q63 93 63 222t-58 206.5t-155 77.5q-96 0 -154.5 -77.5t-58.5 -205.5q0 -148 79 -244q28 -36 93 -73v-60h-289z" />
    <glyph glyph-name="partialdiff" unicode="&#x2202;" horiz-adv-x="602" 
d="M173 736l18 26q179 -86 271.5 -208.5t92.5 -274.5q0 -96 -39 -164q-34 -57 -92.5 -92t-122.5 -35q-51 0 -102.5 24.5t-88.5 65.5q-62 71 -62 178q0 132 92 209q71 58 153 58q60 0 110 -46q-63 141 -230 259zM302 485q-66 0 -102 -59t-36 -168q0 -110 35.5 -171t100.5 -61
q68 0 104 59t36 171q0 109 -36 169t-102 60z" />
    <glyph glyph-name="uni2206" unicode="&#x2206;" horiz-adv-x="602" 
d="M326 703l317 -703h-683l316 703h50zM279 589l-199 -446q-16 -35 -16 -51q0 -26 51 -26h393z" />
    <glyph glyph-name="product" unicode="&#x220f;" horiz-adv-x="765" 
d="M43 688h679v-32h-16q-53 0 -68 -17.5t-15 -81.5v-666q0 -56 9 -75q12 -25 74 -25h16v-32h-305v32h16q50 0 65 20q13 14 13 80v675q0 57 -10 68t-61 11h-112q-54 0 -64 -11.5t-10 -73.5v-669q0 -56 9 -74q12 -26 69 -26h16v-32h-305v32h16q53 0 69 18q14 16 14 82v666
q0 64 -14.5 81.5t-68.5 17.5h-16v32z" />
    <glyph glyph-name="summation" unicode="&#x2211;" horiz-adv-x="688" 
d="M59 688h547v-179h-32q-9 80 -43.5 108t-125.5 28h-194l196 -366l-244 -432h243q100 0 145 33.5t66 122.5h31l-34 -244h-555l253 454z" />
    <glyph glyph-name="minus" unicode="&#x2212;" horiz-adv-x="560" 
d="M63 276v52h434v-52h-434z" />
    <glyph glyph-name="radical" unicode="&#x221a;" horiz-adv-x="531" 
d="M650 850v-32h-120l-191 -818h-104l-88 368h-151v32h237l80 -344l186 794h151z" />
    <glyph glyph-name="infinity" unicode="&#x221e;" horiz-adv-x="772" 
d="M361 291q-38 -64 -74.5 -92t-82.5 -28q-64 0 -108 49t-44 120q0 77 49 131.5t119 54.5q50 0 87.5 -27.5t83.5 -97.5q40 69 79 98.5t88 29.5q68 0 115.5 -52t47.5 -128q0 -77 -51.5 -131.5t-125.5 -54.5q-52 0 -92.5 28.5t-90.5 99.5zM406 378q46 -74 89.5 -108t91.5 -34
q44 0 74 31.5t30 78.5q0 51 -37 80t-102 29q-51 0 -83.5 -17t-62.5 -60zM346 316q-47 71 -86 102t-84 31q-40 0 -67 -30t-27 -74q0 -46 34 -73.5t92 -27.5q41 0 67 11.5t52 40.5q11 14 19 20z" />
    <glyph glyph-name="integral" unicode="&#x222b;" horiz-adv-x="560" 
d="M234 20v579q0 73 4.5 106t17.5 62q43 93 142 93q53 0 88 -30t35 -75q0 -26 -15 -42.5t-39 -16.5q-21 0 -35 13t-14 33q0 12 7 29q8 19 8 27q0 10 -10.5 17.5t-24.5 7.5q-34 0 -53 -41.5t-19 -116.5v-576q0 -73 -4.5 -106t-17.5 -62q-43 -93 -142 -93q-53 0 -88 30t-35 75
q0 26 15 42.5t39 16.5q21 0 35 -13t14 -33q0 -12 -7 -29q-8 -19 -8 -27q0 -10 10.5 -17.5t24.5 -7.5q34 0 53 41t19 114z" />
    <glyph glyph-name="approxequal" unicode="&#x2248;" horiz-adv-x="560" 
d="M122 163l-32 14q26 61 53 87.5t61 26.5q39 0 97 -24q50 -21 80 -21q27 0 57 50l32 -14q-27 -61 -53.5 -87t-60.5 -26q-40 0 -98 24q-48 21 -79 21q-16 0 -28 -11t-29 -40zM122 328l-32 14q26 61 53 87.5t61 26.5q39 0 97 -24q50 -21 80 -21q16 0 28 11t29 40l32 -14
q-27 -62 -53.5 -88t-60.5 -26q-40 0 -98 24q-48 21 -79 21q-16 0 -28.5 -11t-28.5 -40z" />
    <glyph glyph-name="notequal" unicode="&#x2260;" horiz-adv-x="560" 
d="M172 165h-124v51h160l84 120h-244v51h280l79 113l40 -28l-59 -85h124v-51h-160l-84 -120h244v-51h-280l-79 -113l-40 28z" />
    <glyph glyph-name="lessequal" unicode="&#x2264;" horiz-adv-x="560" 
d="M73 0v52h404v-52h-404zM477 98l-404 173v42l404 177v-54l-330 -144l330 -139v-55z" />
    <glyph glyph-name="greaterequal" unicode="&#x2265;" horiz-adv-x="560" 
d="M487 0h-404v52h404v-52zM83 98v55l330 139l-330 144v54l404 -177v-42z" />
    <glyph glyph-name="dotmath" unicode="&#x22c5;" horiz-adv-x="280" 
d="M139 367q29 0 49.5 -20.5t20.5 -49.5t-21 -49.5t-50 -20.5q-28 0 -48.5 21t-20.5 49q0 29 20.5 49.5t49.5 20.5z" />
    <glyph glyph-name="lozenge" unicode="&#x25ca;" horiz-adv-x="560" 
d="M280 715l268 -371l-268 -371l-268 371zM280 595l-184 -251l184 -251l184 251z" />
    <glyph glyph-name="uniEA4F" unicode="&#xea4f;" horiz-adv-x="563" 
d="M337 795l11 -24q-44 -21 -64 -45t-21 -58q11 4 24 4q21 0 36 -14.5t15 -35.5q0 -22 -15.5 -36t-39.5 -14q-32 0 -52 23.5t-20 61.5q0 95 126 138z" />
    <glyph glyph-name="dotlessj" unicode="&#xf6be;" horiz-adv-x="310" 
d="M221 518v-522q0 -100 -51.5 -161t-135.5 -61q-48 0 -77.5 17.5t-29.5 46.5q0 22 15.5 35t42.5 13h29l27 -74q37 4 52.5 38t15.5 112v431q0 25 -17.5 34.5t-65.5 10.5v30l156 50h39z" />
    <glyph glyph-name="commaaccent" unicode="&#xf6c3;" 
d="M181 -266l-12 28q80 27 86 84q-12 -3 -24 -3q-23 0 -38 15.5t-15 37.5q0 23 16 38t41 15q32 0 52.5 -24t20.5 -62q0 -100 -127 -129z" />
    <glyph glyph-name="Acute" unicode="&#xf6c9;" 
d="M198 727l70 136q13 26 24.5 35.5t29.5 9.5q20 0 33.5 -13.5t13.5 -33.5q0 -28 -37 -57l-97 -77h-37z" />
    <glyph glyph-name="Caron" unicode="&#xf6ca;" 
d="M215 746l-105 154h37l103 -78l103 78h37l-105 -154h-70z" />
    <glyph glyph-name="Dieresis" unicode="&#xf6cb;" 
d="M350 881q26 0 44.5 -18.5t18.5 -44.5t-18.5 -44.5t-44.5 -18.5t-44.5 18.5t-18.5 44.5t18.5 44.5t44.5 18.5zM150 881q26 0 44.5 -18.5t18.5 -44.5t-18.5 -44.5t-44.5 -18.5t-44.5 18.5t-18.5 44.5t18.5 44.5t44.5 18.5z" />
    <glyph glyph-name="Grave" unicode="&#xf6ce;" 
d="M312 727h-37l-97 77q-37 29 -37 57q0 20 13.5 33.5t33.5 13.5q18 0 29.5 -9.5t24.5 -35.5z" />
    <glyph glyph-name="Hungarumlaut" unicode="&#xf6cf;" 
d="M141 727l57 136q11 25 21.5 35t26.5 10q19 0 31 -13t12 -34q0 -16 -6 -27t-25 -30l-80 -77h-37zM299 727l56 136q19 45 49 45q19 0 31 -13t12 -34q0 -17 -6 -27.5t-26 -29.5l-79 -77h-37z" />
    <glyph glyph-name="Macron" unicode="&#xf6d0;" 
d="M115 782v63h270v-63h-270z" />
    <glyph glyph-name="Brevesmall" unicode="&#xf6f4;" 
d="M368 784h39q-12 -69 -51 -102q-33 -30 -79 -30t-79 30q-39 33 -51 102h39q24 -62 91 -62q68 0 91 62z" />
    <glyph glyph-name="Caronsmall" unicode="&#xf6f5;" 
d="M214 643l-105 154h37l103 -78l103 78h37l-105 -154h-70z" />
    <glyph glyph-name="Circumflexsmall" unicode="&#xf6f6;" 
d="M109 636l105 154h70l105 -154h-37l-103 78l-103 -78h-37z" />
    <glyph glyph-name="Dotaccentsmall" unicode="&#xf6f7;" 
d="M250 777q28 0 47.5 -20t19.5 -47q0 -28 -19.5 -47.5t-47.5 -19.5t-47.5 19.5t-19.5 47.5t19.5 47.5t47.5 19.5z" />
    <glyph glyph-name="Hungarumlautsmall" unicode="&#xf6f8;" 
d="M302 636l56 156q16 25 43 25q19 0 32 -11.5t13 -28.5t-15 -44l-93 -97h-36zM142 636l56 156q16 25 43 25q19 0 32 -11.5t13 -28.5t-15 -44l-93 -97h-36z" />
    <glyph glyph-name="Lslashsmall" unicode="&#xf6f9;" horiz-adv-x="566" 
d="M48 186v45l74 29v252q0 15 -12 22.5t-44 11.5l-15 2v32h261v-32q-47 -6 -60 -12.5t-13 -23.5v-206l154 60v-44l-154 -61v-193q0 -18 15 -24.5t56 -6.5h71q35 0 51.5 21.5t53.5 117.5h36l-14 -176h-457v32q45 6 58 12.5t13 23.5v147z" />
    <glyph glyph-name="OEsmall" unicode="&#xf6fa;" horiz-adv-x="865" 
d="M811 0h-458q-136 0 -216.5 79t-80.5 212q0 132 80.5 210.5t216.5 78.5h426l10 -140h-35q-29 71 -44.5 86.5t-58.5 15.5h-122v-227h75q21 0 30.5 16t18.5 64h36v-197h-36q-9 48 -19 64t-30 16h-75v-210q0 -18 15 -24.5t57 -6.5h78q37 0 55 22t52 110h37zM416 38v475
q0 30 -54 30q-96 0 -138.5 -58.5t-42.5 -189.5q0 -137 42 -197t138 -60h55z" />
    <glyph glyph-name="Ogoneksmall" unicode="&#xf6fb;" 
d="M320 -134l21 -22q-43 -47 -104 -47q-44 0 -72 22.5t-28 59.5q0 74 111 121h39q-64 -52 -64 -109q0 -48 45 -48q24 0 52 23z" />
    <glyph glyph-name="Ringsmall" unicode="&#xf6fc;" 
d="M249 840q40 0 69 -28.5t29 -67.5q0 -41 -28.5 -68.5t-70.5 -27.5q-40 0 -68.5 28t-28.5 68q0 39 29 67.5t69 28.5zM249 805q-25 0 -40.5 -17t-15.5 -44t15.5 -44.5t40.5 -17.5t40.5 17.5t15.5 44.5q0 26 -15.5 43.5t-40.5 17.5z" />
    <glyph glyph-name="Scaronsmall" unicode="&#xf6fd;" horiz-adv-x="506" 
d="M421 446h-38q-25 64 -48.5 83.5t-76.5 19.5q-52 0 -80.5 -23t-28.5 -64q0 -52 47 -80q26 -15 107 -41q87 -29 123 -69t36 -108q0 -80 -57.5 -127t-156.5 -47q-74 0 -189 34v144h39q32 -87 61 -113t91 -26q58 0 89 24.5t31 70.5t-29.5 71.5t-118.5 56.5q-74 25 -108 53
q-51 43 -51 116q0 78 54 123t147 45q76 0 157 -24v-119zM229 643l-105 154h37l103 -78l103 78h37l-105 -154h-70z" />
    <glyph glyph-name="Tildesmall" unicode="&#xf6fe;" 
d="M111 645l-32 14q25 56 49.5 79t60.5 23q30 0 79 -19q38 -15 59 -15q20 0 33 8.5t27 31.5l32 -13q-26 -57 -50 -79.5t-60 -22.5q-29 0 -79 18q-38 15 -59 15q-20 0 -33.5 -8.5t-26.5 -31.5z" />
    <glyph glyph-name="Zcaronsmall" unicode="&#xf6ff;" horiz-adv-x="569" 
d="M51 0v41l337 501h-179q-34 0 -48 -16.5t-48 -96.5h-35l12 151h427v-40l-340 -503h184q40 0 59 23t54 115h37l-16 -175h-444zM278 643l-105 154h37l103 -78l103 78h37l-105 -154h-70z" />
    <glyph glyph-name="dollaroldstyle" unicode="&#xf724;" horiz-adv-x="520" 
d="M242 -116v104q-88 5 -139 31q-69 34 -69 90q0 23 16.5 37.5t42.5 14.5h51v-97q40 -34 98 -37v220q-103 35 -144 74.5t-41 103.5q0 77 61 124q47 34 124 42v79h44v-79q86 -6 134 -32.5t48 -67.5q0 -23 -15.5 -36.5t-41.5 -13.5h-51v85q-28 22 -74 26v-205q92 -29 126 -51
q72 -46 72 -128q0 -81 -64 -131q-48 -37 -134 -48v-105h-44zM286 233v-205q109 15 109 97q0 38 -24 61.5t-85 46.5zM242 362v190q-102 -10 -102 -90q0 -34 22.5 -56t79.5 -44z" />
    <glyph glyph-name="zerooldstyle" unicode="&#xf730;" horiz-adv-x="646" 
d="M323 592q50 0 99.5 -22t87.5 -61q88 -88 88 -220q0 -125 -81.5 -213t-196.5 -88q-48 0 -98 22.5t-88 60.5q-86 88 -86 218q0 132 88 220q37 39 87 61t100 22zM324 553q-76 0 -115.5 -68t-39.5 -196t39.5 -195.5t113.5 -67.5q156 0 156 263q0 129 -39.5 196.5t-114.5 67.5
z" />
    <glyph glyph-name="oneoldstyle" unicode="&#xf731;" horiz-adv-x="415" 
d="M155 467l-113 -8v32q121 35 187 97h39v-512q0 -21 20.5 -30t82.5 -14v-32h-324v32q69 5 88.5 13t19.5 31v391z" />
    <glyph glyph-name="twooldstyle" unicode="&#xf732;" horiz-adv-x="540" 
d="M33 0v59q176 93 246 170.5t70 179.5q0 145 -109 145q-48 0 -78 -24v-96h-57q-28 0 -45 15t-17 39q0 45 56 74.5t141 29.5q104 0 166 -47.5t62 -126.5q0 -111 -137 -219q-57 -45 -183 -114h240q25 0 38 12t33 56h39l-15 -153h-450z" />
    <glyph glyph-name="threeoldstyle" unicode="&#xf733;" horiz-adv-x="531" 
d="M279 283v-1q84 -4 133 -32q82 -48 82 -148q0 -96 -76.5 -161.5t-188.5 -65.5q-90 0 -149.5 32t-59.5 80q0 53 69 53h49v-93q37 -34 92 -34q145 0 145 171q0 154 -134 154q-42 0 -100 -23l-15 35q121 46 163.5 86t42.5 106q0 55 -24.5 83.5t-71.5 28.5q-41 0 -73 -25v-90
h-57q-25 0 -41 14.5t-16 36.5q0 44 56 73t139 29q91 0 146.5 -39.5t55.5 -104.5q0 -54 -40 -92.5t-127 -70.5v-1v-1z" />
    <glyph glyph-name="fouroldstyle" unicode="&#xf734;" horiz-adv-x="590" 
d="M341 -115v181h-317v53l360 469h68v-462h107v-60h-107v-181h-111zM88 130v-4h253v326h-4z" />
    <glyph glyph-name="fiveoldstyle" unicode="&#xf735;" horiz-adv-x="521" 
d="M121 495v-209q53 52 138 52q99 0 161 -60t62 -156q0 -106 -75 -176.5t-187 -70.5q-84 0 -139 31.5t-55 79.5q0 53 69 53h49v-98q35 -28 80 -28q140 0 140 195q0 187 -126 187q-76 0 -115 -62h-45v347h371l-14 -85h-314z" />
    <glyph glyph-name="sixoldstyle" unicode="&#xf736;" horiz-adv-x="596" 
d="M418 538v91q-26 22 -65 22q-104 0 -152 -112q-27 -64 -34 -187q57 79 157 79q96 0 159.5 -62.5t63.5 -156.5q0 -95 -68 -159.5t-168 -64.5q-119 0 -190.5 90.5t-71.5 240.5q0 167 86.5 269t228.5 102q76 0 122.5 -27.5t46.5 -71.5q0 -23 -16.5 -38t-42.5 -15h-56z
M303 389q-63 0 -96 -45.5t-33 -132.5t35.5 -136t98.5 -49q121 0 121 182q0 181 -126 181z" />
    <glyph glyph-name="sevenoldstyle" unicode="&#xf737;" horiz-adv-x="527" 
d="M121 -115v28l320 583h-289q-27 0 -40 -13t-30 -57h-39l15 154h436v-61l-278 -634h-95z" />
    <glyph glyph-name="eightoldstyle" unicode="&#xf738;" horiz-adv-x="577" 
d="M365 367q172 -44 172 -181q0 -85 -71.5 -141.5t-179.5 -56.5q-107 0 -177 55.5t-70 141.5q0 138 171 182q-138 39 -138 149q0 72 63 122t152 50q90 0 153.5 -50.5t63.5 -121.5q0 -110 -139 -149zM288 346q-67 0 -98.5 -39t-31.5 -122q0 -82 31.5 -120.5t97.5 -38.5
q68 0 99.5 38t31.5 121t-31.5 122t-98.5 39zM288 649q-52 0 -77 -32t-25 -100q0 -132 101 -132q53 0 78 32t25 100t-25 100t-77 32z" />
    <glyph glyph-name="nineoldstyle" unicode="&#xf739;" horiz-adv-x="596" 
d="M185 27v-92q27 -21 65 -21q103 0 145 107q28 69 33 206q-56 -78 -155 -78q-97 0 -160.5 62t-63.5 156q0 95 69 160t171 65q122 0 190 -87t68 -243q0 -179 -82.5 -283t-224.5 -104q-77 0 -123.5 27t-46.5 72q0 23 16.5 38t42.5 15h56zM286 554q-119 0 -119 -181
q0 -182 124 -182q131 0 131 178q0 88 -35.5 136.5t-100.5 48.5z" />
    <glyph glyph-name="Gravesmall" unicode="&#xf760;" 
d="M243 636l-122 94q-15 26 -15 42q0 19 13 32t31 13q24 0 45 -24l85 -157h-37z" />
    <glyph glyph-name="Asmall" unicode="&#xf761;" horiz-adv-x="665" 
d="M31 0v32q58 9 66 29l206 531h56l208 -528q7 -16 18 -21.5t46 -10.5v-32h-247v32q36 5 47.5 10.5t10.5 15.5q0 3 -2 9l-45 120h-203l-46 -123q-2 -6 -2 -8q-2 -16 49 -22l15 -2v-32h-177zM291 449l-85 -225h175l-84 225h-6z" />
    <glyph glyph-name="Bsmall" unicode="&#xf762;" horiz-adv-x="608" 
d="M51 548v32h233q229 0 229 -136q0 -50 -34.5 -80.5t-110.5 -47.5v-3q188 -21 188 -152q0 -77 -69.5 -119t-197.5 -42h-238v32q45 6 58 12.5t13 23.5v444q0 15 -12 22.5t-44 11.5zM238 289v-223q0 -17 13 -23.5t47 -6.5q132 0 132 127q0 126 -138 126h-54zM238 326h41
q61 0 89 26t28 82t-28 82.5t-88 26.5h-42v-217z" />
    <glyph glyph-name="Csmall" unicode="&#xf763;" horiz-adv-x="608" 
d="M538 169v-142q-84 -37 -187 -37q-136 0 -215.5 80.5t-79.5 217.5q0 139 82.5 220.5t222.5 81.5q84 0 165 -29v-136h-36q-31 79 -55.5 103t-74.5 24q-92 0 -135.5 -64.5t-43.5 -199.5q0 -134 43.5 -197t137.5 -63q60 0 85.5 26t53.5 115h37z" />
    <glyph glyph-name="Dsmall" unicode="&#xf764;" horiz-adv-x="665" 
d="M51 548v32h262q137 0 216.5 -78.5t79.5 -212.5q0 -132 -80 -210.5t-216 -78.5h-262v31q45 6 58 13t13 24v444q0 15 -12 22.5t-44 11.5zM239 542v-476q0 -16 14 -23t48 -7q98 0 141 59t43 194q0 134 -42.5 193.5t-139.5 59.5h-64z" />
    <glyph glyph-name="Esmall" unicode="&#xf765;" horiz-adv-x="589" 
d="M51 548v32h450l10 -140h-36q-29 72 -44 87t-58 15h-134v-226h86q22 0 31.5 15.5t18.5 63.5h36v-197h-36q-9 49 -19 65t-31 16h-86v-211q0 -18 15 -24.5t56 -6.5h91q38 0 55.5 21.5t51.5 110.5h37l-12 -169h-482v32q45 6 58 12.5t13 23.5v444q0 15 -12 22.5t-44 11.5z" />
    <glyph glyph-name="Fsmall" unicode="&#xf766;" horiz-adv-x="583" 
d="M413 181h-37q-10 54 -19 70t-29 16h-89v-199q0 -17 14.5 -23.5t66.5 -12.5v-32h-269v32q45 6 58 12.5t13 23.5v444q0 15 -12 22.5t-44 11.5l-15 2v32h465l7 -150h-36q-31 82 -46 97t-65 15h-137v-238h89q20 0 29 15.5t19 69.5h37v-208z" />
    <glyph glyph-name="Gsmall" unicode="&#xf767;" horiz-adv-x="643" 
d="M557 25h-46q-83 -35 -164 -35q-132 0 -211.5 81t-79.5 217q0 137 83.5 219.5t222.5 82.5q90 0 174 -30v-141h-36q-34 83 -59.5 107.5t-78.5 24.5q-93 0 -137 -64t-44 -199q0 -134 42.5 -197t131.5 -63q46 0 71.5 16.5t25.5 46.5v104q0 17 -11.5 24t-45.5 11
q-3 1 -7.5 1.5t-7.5 0.5v32h229v-32q-3 -1 -12 -2q-23 -4 -31.5 -11.5t-8.5 -23.5v-170z" />
    <glyph glyph-name="Hsmall" unicode="&#xf768;" horiz-adv-x="726" 
d="M51 548v32h257v-32q-44 -7 -56.5 -13.5t-12.5 -22.5v-191h248v191q0 15 -11.5 22t-42.5 12l-15 2v32h257v-32q-47 -6 -59.5 -12.5t-12.5 -23.5v-444q0 -17 13.5 -23.5t58.5 -12.5v-32h-257v32q44 6 56.5 12.5t12.5 23.5v216h-248v-216q0 -17 13 -23.5t56 -12.5v-32h-257
v32q45 6 58 12.5t13 23.5v444q0 15 -12 22.5t-44 11.5z" />
    <glyph glyph-name="Ismall" unicode="&#xf769;" horiz-adv-x="371" 
d="M54 548v32h264v-32q-48 -6 -61 -12.5t-13 -23.5v-444q0 -17 13.5 -23.5t60.5 -12.5v-32h-264v32q46 6 59.5 12.5t13.5 23.5v444q0 15 -12 22.5t-45 11.5z" />
    <glyph glyph-name="Jsmall" unicode="&#xf76a;" horiz-adv-x="373" 
d="M319 580v-32q-45 -7 -57.5 -13.5t-12.5 -22.5v-494q0 -87 -52.5 -139.5t-138.5 -52.5q-50 0 -81 20t-31 52q0 22 16.5 36t42.5 14h27l27 -85q40 4 55.5 31t15.5 90v528q0 17 -13 23.5t-58 12.5v32h260z" />
    <glyph glyph-name="Ksmall" unicode="&#xf76b;" horiz-adv-x="674" 
d="M51 548v32h257v-32q-45 -7 -57.5 -13.5t-12.5 -22.5v-248l228 242q15 16 15 22q0 8 -11.5 12t-43.5 8v32h177v-32q-45 -6 -73 -34l-150 -156l189 -281q16 -24 29.5 -32.5t46.5 -12.5v-32h-245v32q46 6 46 19q0 4 -9 19l-137 205l-62 -65v-142q0 -17 12.5 -23.5
t54.5 -12.5v-32h-254v32q45 6 58 12.5t13 23.5v444q0 15 -12 22.5t-44 11.5z" />
    <glyph glyph-name="Lsmall" unicode="&#xf76c;" horiz-adv-x="566" 
d="M51 548v32h261v-32q-47 -6 -60 -12.5t-13 -23.5v-444q0 -18 15 -24.5t56 -6.5h71q35 0 51.5 21.5t53.5 117.5h36l-14 -176h-457v32q45 6 58 12.5t13 23.5v444q0 15 -12 22.5t-44 11.5z" />
    <glyph glyph-name="Msmall" unicode="&#xf76d;" horiz-adv-x="842" 
d="M360 -3l-191 507v-436q0 -17 11 -23.5t46 -10.5l16 -2v-32h-191v32q49 6 60.5 11.5t11.5 24.5v435q0 21 -11.5 29.5t-44.5 13.5l-16 2v32h211l159 -430l163 430h207v-32l-15 -2q-34 -5 -45 -11.5t-11 -22.5v-444q0 -16 11.5 -23t44.5 -11l15 -2v-32h-257v32l15 2
q33 5 43.5 11.5t10.5 22.5v436l-194 -507h-49z" />
    <glyph glyph-name="Nsmall" unicode="&#xf76e;" horiz-adv-x="681" 
d="M523 -6l-352 485h-3v-411q0 -17 11 -23.5t46 -10.5q2 0 4 -0.5t5.5 -1t6.5 -0.5v-32h-190v32q48 6 59.5 11.5t11.5 24.5v441q0 18 -11.5 25t-44.5 12l-15 2v32h187l288 -396h4v328q0 17 -13.5 23.5t-59.5 12.5v32h183v-32q-41 -7 -52.5 -13.5t-11.5 -22.5v-518h-53z" />
    </font>
</defs>
</svg>
